<svg width="29" height="28" viewBox="0 0 29 28" fill="none" xmlns="http://www.w3.org/2000/svg">
<path d="M22.3276 13.1089C22.0258 13.4078 22.0235 13.8916 22.3276 14.1928C23.2779 15.1347 23.2775 16.6553 22.3276 17.5968C22.2556 17.6679 22.1985 17.7523 22.1595 17.8453C22.1205 17.9383 22.1005 18.038 22.1005 18.1387C22.1005 18.2394 22.1205 18.339 22.1595 18.432C22.1985 18.525 22.2556 18.6095 22.3276 18.6806C23.278 19.6214 23.2775 21.1431 22.3276 22.0846L22.305 22.107C21.3567 23.0454 19.8146 23.0454 18.8668 22.107C18.795 22.0357 18.7097 21.9792 18.6157 21.9406C18.5218 21.902 18.4211 21.8821 18.3194 21.8821C18.2177 21.8821 18.1171 21.902 18.0231 21.9406C17.9292 21.9792 17.8439 22.0357 17.7721 22.107C16.8207 23.0478 15.2848 23.0474 14.3339 22.107C14.0296 21.8057 13.5408 21.8084 13.2392 22.107C12.289 23.0478 10.7513 23.0474 9.80153 22.107C9.49785 21.8064 9.00792 21.8078 8.70683 22.107C7.74547 23.0577 6.20812 23.0367 5.26918 22.107C4.96501 21.807 4.47678 21.8072 4.17393 22.107C3.2245 23.047 1.6872 23.0479 0.736281 22.1076L0.713082 22.0846C-0.235245 21.1457 -0.235245 19.6189 0.71253 18.6806C0.78454 18.6095 0.841674 18.525 0.880657 18.432C0.919641 18.339 0.939707 18.2394 0.939707 18.1387C0.939707 18.038 0.919641 17.9383 0.880657 17.8453C0.841674 17.7523 0.78454 17.6679 0.71253 17.5968C-0.237675 16.6549 -0.237288 15.1342 0.71253 14.1928C0.78454 14.1217 0.841674 14.0372 0.880657 13.9442C0.919641 13.8512 0.939707 13.7515 0.939707 13.6509C0.939707 13.5502 0.919641 13.4505 0.880657 13.3575C0.841674 13.2645 0.78454 13.18 0.71253 13.1089C-0.235797 12.1701 -0.239222 10.6478 0.71253 9.70548C1.01616 9.40486 1.01472 8.91972 0.71253 8.62167C-0.237178 7.68027 -0.237841 6.15857 0.71253 5.21766C0.78454 5.14657 0.841674 5.06211 0.880657 4.96912C0.919641 4.87613 0.939707 4.77644 0.939707 4.67576C0.939707 4.57507 0.919641 4.47538 0.880657 4.38239C0.841674 4.2894 0.78454 4.20494 0.71253 4.13385C0.253418 3.67884 0.000442496 3.07454 0.000442496 2.43206C0.000442496 0.320224 2.62073 -0.830853 4.17382 0.706815C4.24563 0.778107 4.33094 0.834671 4.42486 0.873265C4.51879 0.911859 4.61948 0.931725 4.72117 0.931725C4.82286 0.931725 4.92355 0.911859 5.01748 0.873265C5.1114 0.834671 5.19671 0.778107 5.26852 0.706815C6.21884 -0.234041 7.7558 -0.233549 8.70672 0.706815C9.00726 1.00552 9.4973 1.00793 9.80142 0.706815C10.7516 -0.233932 12.2893 -0.233549 13.2391 0.706815C13.3109 0.778107 13.3962 0.834671 13.4901 0.873265C13.584 0.911859 13.6847 0.931725 13.7864 0.931725C13.8881 0.931725 13.9888 0.911859 14.0827 0.873265C14.1767 0.834671 14.262 0.778107 14.3338 0.706815C15.2852 -0.233986 16.8211 -0.233549 17.772 0.706815C17.8438 0.778107 17.9291 0.834671 18.023 0.873265C18.1169 0.911859 18.2176 0.931725 18.3193 0.931725C18.421 0.931725 18.5217 0.911859 18.6156 0.873265C18.7096 0.834671 18.7949 0.778107 18.8667 0.706815C19.8169 -0.233932 21.3546 -0.233549 22.3043 0.706815L22.3281 0.73033C23.2753 1.66867 23.2747 3.19545 22.3275 4.13379C22.2554 4.20477 22.1982 4.28922 22.1592 4.38223C22.1202 4.47525 22.1003 4.575 22.1005 4.6757C22.1005 5.02543 22.3177 5.20273 22.3844 5.27667C23.2673 6.2102 23.2677 7.68973 22.3275 8.62167C22.0258 8.91923 22.0234 9.40442 22.3275 9.70548C23.2778 10.6462 23.2775 12.1686 22.3276 13.1089Z" fill="#C3B6A2"/>
<path d="M27.5708 13.8955C27.2728 14.1905 27.2719 14.6692 27.5708 14.9651C28.5171 15.902 28.5172 17.4185 27.5708 18.3554C27.2716 18.6517 27.2731 19.1303 27.5708 19.425C28.5153 20.3601 28.5191 21.876 27.5708 22.8148C27.2715 23.1123 27.2732 23.5902 27.5708 23.885C28.0282 24.3377 28.28 24.9398 28.28 25.5801C28.28 26.9079 27.1738 27.9993 25.8365 27.9993C25.1897 27.9993 24.5816 27.7499 24.1243 27.2972C23.8269 27.0027 23.3441 27.0006 23.0434 27.2972C22.0951 28.2361 20.564 28.2322 19.6196 27.2972C19.3215 27.0021 18.8382 27.0012 18.5392 27.2972C17.5929 28.234 16.0612 28.2341 15.1148 27.2972C14.8156 27.0009 14.3322 27.0025 14.0345 27.2972C13.09 28.2322 11.5589 28.236 10.6107 27.2972C10.3102 27.0008 9.82743 27.0025 9.52977 27.2972C9.52258 27.3043 9.5154 27.3114 9.50822 27.318C9.05364 27.7576 8.4544 27.9993 7.81754 27.9993C5.91172 27.9993 4.70644 25.8753 5.76789 24.2683C6.90396 24.6199 8.1975 24.474 9.2547 23.7745C10.6194 24.6783 12.4216 24.6787 13.7871 23.7745C15.155 24.6796 16.9566 24.6774 18.3201 23.7745C19.8848 24.8103 22.0585 24.6706 23.4771 23.267L23.5003 23.2441C24.9159 21.8406 25.0632 19.6931 24.0129 18.1383C24.9258 16.7859 24.9262 15.0034 24.0129 13.6504C24.9258 12.2992 24.9262 10.515 24.0129 9.16306C24.7158 8.12186 24.8687 6.84122 24.5117 5.71038C25.4417 5.10613 26.7158 5.19839 27.5484 6.0226L27.5555 6.02971L27.5749 6.04939C28.5176 6.98724 28.5159 8.49992 27.571 9.43536C27.2742 9.72925 27.2709 10.2072 27.571 10.5055C28.5191 11.4445 28.5153 12.9604 27.5708 13.8955Z" fill="#C3B6A2"/>
</svg>
