<svg width="26" height="26" viewBox="0 0 26 26" fill="none" xmlns="http://www.w3.org/2000/svg">
<g clip-path="url(#clip0_227_5423)">
<path fill-rule="evenodd" clip-rule="evenodd" d="M5.99999 3.9516V1.62501C5.99999 1.14176 5.60823 0.75 5.12502 0.75H1.62501C1.14176 0.75 0.75 1.14176 0.75 1.62501V19.3683C0.891759 19.2849 1.04466 19.2222 1.20411 19.1819L5.99999 3.9516ZM12.1609 4.77499L12.4671 3.79982C12.612 3.34073 12.3574 2.85116 11.8984 2.70608L8.55938 1.64817C8.09847 1.50347 7.60751 1.75962 7.46257 2.22043L2.15306 19.0813L12.1609 4.77499ZM17.2438 8.19317L17.844 7.33696C17.9099 7.24278 17.9566 7.13653 17.9814 7.0243C18.0063 6.91206 18.0088 6.79603 17.9887 6.68284C17.9687 6.56965 17.9266 6.46151 17.8647 6.36461C17.8029 6.2677 17.7226 6.18393 17.6283 6.11808L14.7609 4.10999C14.6668 4.04409 14.5605 3.99739 14.4483 3.97256C14.336 3.94773 14.22 3.94526 14.1068 3.96529C13.9936 3.98532 13.8855 4.02745 13.7886 4.08929C13.6917 4.15112 13.6079 4.23144 13.5421 4.32566L3.22364 19.0786L17.2438 8.19317ZM21.1038 12.944L21.907 12.3254C21.9984 12.2554 22.075 12.1681 22.1326 12.0685C22.1901 11.9689 22.2275 11.8589 22.2425 11.7448C22.2575 11.6308 22.2498 11.5149 22.2199 11.4038C22.1901 11.2926 22.1386 11.1885 22.0684 11.0973L19.9335 8.32356C19.8641 8.2319 19.7772 8.15493 19.6779 8.09712C19.5785 8.0393 19.4687 8.0018 19.3547 7.98678C19.2407 7.97176 19.1249 7.97952 19.014 8.00962C18.9031 8.03972 18.7992 8.09155 18.7085 8.16211L4.96008 18.8371L21.1038 12.944Z" fill="#C3B6A2"/>
<path d="M2.93751 23.0625C3.17914 23.0625 3.37501 22.8666 3.37501 22.625C3.37501 22.3834 3.17914 22.1875 2.93751 22.1875C2.69588 22.1875 2.5 22.3834 2.5 22.625C2.5 22.8666 2.69588 23.0625 2.93751 23.0625Z" fill="#C3B6A2"/>
<path fill-rule="evenodd" clip-rule="evenodd" d="M12.125 20H16.0625V25.25H12.125V20ZM7.3125 20H11.25V25.25H7.3125V20ZM24.375 20H21.75V25.25H24.375C24.8582 25.25 25.25 24.8582 25.25 24.375V20.875C25.25 20.3918 24.8582 20 24.375 20ZM16.9375 20H20.875V25.25H16.9375V20Z" fill="#C3B6A2"/>
<path d="M0.75 20.875V24.375C0.75 24.8582 1.14176 25.25 1.62501 25.25H6.43749V20H1.62501C1.14176 20 0.75 20.3918 0.75 20.875ZM2.93749 21.3125C3.66234 21.3125 4.25001 21.9001 4.25001 22.625C4.25001 23.3499 3.66239 23.9375 2.93749 23.9375C2.21258 23.9375 1.62497 23.3499 1.62497 22.625C1.62497 21.9001 2.21263 21.3125 2.93749 21.3125Z" fill="#C3B6A2"/>
<path fill-rule="evenodd" clip-rule="evenodd" d="M24.2819 18.3025C24.3899 18.2632 24.4891 18.2029 24.5739 18.1251C24.6586 18.0474 24.7271 17.9537 24.7756 17.8494C24.8241 17.7451 24.8515 17.6323 24.8564 17.5175C24.8612 17.4026 24.8434 17.2879 24.8039 17.1799L23.6052 13.8938C23.5658 13.7858 23.5055 13.6866 23.4277 13.6019C23.35 13.5172 23.2563 13.4486 23.152 13.4002C23.0478 13.3517 22.935 13.3242 22.8201 13.3194C22.7052 13.3145 22.5905 13.3324 22.4825 13.3719C20.6594 14.0387 12.4987 17.0172 6.72461 19.1251H22.0314L24.2819 18.3025Z" fill="#C3B6A2"/>
</g>
<defs>
<clipPath id="clip0_227_5423">
<rect width="24.5" height="24.5" fill="white" transform="translate(0.75 0.75)"/>
</clipPath>
</defs>
</svg>
