<svg width="28" height="28" viewBox="0 0 28 28" fill="none" xmlns="http://www.w3.org/2000/svg">
<g clip-path="url(#clip0_227_5416)">
<path d="M13.3876 2.51078C12.3185 3.5869 11.5536 4.92711 11.1709 6.39497C10.7882 7.86283 10.8013 9.40589 11.2089 10.867L0.306377 21.7695C0.140127 21.9358 0.0351266 22.172 0.0351266 22.417L0.000126554 27.0545C-0.00862345 27.562 0.437627 28.0083 0.945127 27.9908L5.57388 27.9558C6.09013 27.9558 6.50138 27.5358 6.50138 27.0195V24.8845H8.64513C8.89013 24.8845 9.14388 24.7708 9.31888 24.5958C9.49388 24.4208 9.59013 24.1845 9.59013 23.9308V21.7783L11.7339 21.787C12.2414 21.7958 12.6789 21.3583 12.6701 20.8508V18.6983H14.8314C15.0764 18.6983 15.3126 18.5933 15.4876 18.427L17.1239 16.7908C25.5589 19.1008 31.6489 8.75828 25.4889 2.51078C22.1551 -0.831719 16.7214 -0.831719 13.3876 2.51078ZM20.3089 5.02203C22.0851 3.30703 24.6926 5.90578 22.9689 7.69078C21.1926 9.40578 18.5851 6.80703 20.3089 5.02203Z" fill="#C3B6A2"/>
</g>
<defs>
<clipPath id="clip0_227_5416">
<rect width="28" height="28" fill="white"/>
</clipPath>
</defs>
</svg>
