<svg width="48" height="48" viewBox="0 0 48 48" fill="none" xmlns="http://www.w3.org/2000/svg">
<g clip-path="url(#clip0_93_2363)">
<path d="M4.16396 8.25H2.45698C1.51424 8.25 0.75 9.13144 0.75 10.2188V37.7812C0.75 38.8686 1.51424 39.75 2.45698 39.75H4.16396C5.1067 39.75 5.87094 38.8686 5.87094 37.7812V10.2188C5.87094 9.13144 5.1067 8.25 4.16396 8.25Z" fill="#CEBFA8"/>
<path d="M45.5429 8.25H43.8359C42.8931 8.25 42.1289 9.13144 42.1289 10.2188V37.7812C42.1289 38.8686 42.8931 39.75 43.8359 39.75H45.5429C46.4856 39.75 47.2498 38.8686 47.2498 37.7812V10.2188C47.2498 9.13144 46.4856 8.25 45.5429 8.25Z" fill="#CEBFA8"/>
<path d="M1.43652 11.7015L1.43652 14.8516L44.8336 14.8516V11.7015L1.43652 11.7015Z" fill="#CEBFA8"/>
<path d="M1.43652 17.0638L1.43652 20.2139L44.8336 20.2139V17.0638L1.43652 17.0638Z" fill="#CEBFA8"/>
<path d="M1.43848 22.4252L1.43848 25.5752L44.8356 25.5752V22.4252L1.43848 22.4252Z" fill="#CEBFA8"/>
<path d="M1.43848 27.7865L1.43848 30.9365L44.8356 30.9365V27.7865L1.43848 27.7865Z" fill="#CEBFA8"/>
<path d="M1.43848 33.1478L1.43848 36.2979H44.8356V33.1478H1.43848Z" fill="#CEBFA8"/>
</g>
<defs>
<clipPath id="clip0_93_2363">
<rect width="46.5" height="31.5" fill="white" transform="translate(0.75 8.25)"/>
</clipPath>
</defs>
</svg>
