<svg width="48" height="48" viewBox="0 0 48 48" fill="none" xmlns="http://www.w3.org/2000/svg">
<path d="M30 38.9775C29.238 39.2835 28.4505 39.54 27.636 39.7275L27.306 44.0265C27.2856 44.2914 27.166 44.5388 26.971 44.7193C26.7761 44.8998 26.5202 45 26.2545 45H21.744C21.4787 45 21.2232 44.8999 21.0286 44.7197C20.8339 44.5395 20.7144 44.2925 20.694 44.028L20.364 39.729C18.6248 39.3281 16.9649 38.6391 15.453 37.6905L12.1755 40.5C11.9739 40.6729 11.7145 40.7633 11.4491 40.753C11.1837 40.7427 10.9321 40.6325 10.7445 40.4445L7.5555 37.2555C7.36783 37.0678 7.25787 36.8161 7.24758 36.5509C7.23729 36.2856 7.32743 36.0262 7.5 35.8245L10.3095 32.547C9.36217 31.0345 8.67326 29.3748 8.271 27.636L3.972 27.306C3.70738 27.2852 3.46033 27.1654 3.28016 26.9705C3.09998 26.7756 2.99994 26.5199 3 26.2545V21.744C3 21.1935 3.4245 20.736 3.972 20.694L8.271 20.364C8.67192 18.6248 9.36092 16.9649 10.3095 15.453L7.5015 12.1755C7.32884 11.9742 7.23848 11.7152 7.24849 11.4502C7.25851 11.1852 7.36814 10.9337 7.5555 10.746L10.7445 7.557C10.9324 7.36964 11.184 7.25991 11.4492 7.24962C11.7143 7.23934 11.9736 7.32926 12.1755 7.5015L15.453 10.311C16.9655 9.36367 18.6252 8.67476 20.364 8.2725L20.694 3.9735C20.7144 3.70862 20.834 3.4612 21.029 3.28071C21.2239 3.10022 21.4798 2.99997 21.7455 3H26.256C26.8065 3 27.264 3.4245 27.306 3.972L27.3255 4.2225C26.2511 5.8705 25.6282 7.77173 25.5192 9.73601C25.4103 11.7003 25.819 13.6588 26.7045 15.4155C25.4669 15.0258 24.1598 14.9083 22.8726 15.0711C21.5854 15.2338 20.3486 15.673 19.247 16.3584C18.1453 17.0438 17.2049 17.9593 16.4902 19.0421C15.7755 20.1249 15.3033 21.3495 15.1061 22.6319C14.9088 23.9143 14.9912 25.2241 15.3475 26.4717C15.7038 27.7192 16.3257 28.875 17.1704 29.8598C18.0152 30.8445 19.0629 31.635 20.2417 32.177C21.4205 32.7191 22.7026 32.9998 24 33C26.2164 33.0008 28.3544 32.1793 30 30.6945V38.9775Z" fill="#CEBFA8"/>
<path d="M40.4997 17.6837V41.2502C40.4997 42.2448 40.1047 43.1986 39.4014 43.9018C38.6981 44.6051 37.7443 45.0002 36.7497 45.0002C35.7552 45.0002 34.8014 44.6051 34.0981 43.9018C33.3948 43.1986 32.9997 42.2448 32.9997 41.2502V17.6837C31.6684 17.0052 30.5467 15.9774 29.7545 14.7104C28.9623 13.4435 28.5295 11.9849 28.5023 10.4909C28.4752 8.99692 28.8548 7.52365 29.6005 6.22877C30.3462 4.93388 31.4299 3.8661 32.7357 3.13969C32.8512 3.07669 32.9997 3.16669 32.9997 3.29869V12.0002L36.7497 13.5002L40.4997 12.0002V3.29869C40.4997 3.16669 40.6482 3.07669 40.7637 3.14119C42.07 3.86703 43.1543 4.93453 43.9003 6.22936C44.6464 7.52419 45.0262 8.99758 44.9991 10.4917C44.972 11.9859 44.539 13.4445 43.7464 14.7114C42.9538 15.9783 41.8315 17.0057 40.4997 17.6837Z" fill="#CEBFA8"/>
</svg>
