<svg width="48" height="48" viewBox="0 0 48 48" fill="none" xmlns="http://www.w3.org/2000/svg">
<path d="M28.0903 25.5243L44.3944 12.8615C44.7215 12.6093 44.8809 12.2634 44.8884 11.849L44.9812 7.22996C44.9897 6.81559 44.7525 6.43309 44.3512 6.3234L40.3593 5.23871C40.0462 5.1534 39.7697 5.20402 39.5034 5.39246L22.1587 17.6371L26.235 16.9781C27.8297 16.7203 29.1422 18.1631 28.9106 19.7821L28.0903 25.5243ZM13.0565 38.5115L16.4156 35.37L12.6262 34.4746L11.0372 36.165L12.6872 37.9218C12.855 38.099 12.9769 38.3015 13.0565 38.5115ZM12.1087 16.4859L31.9115 5.15715L33.0328 4.49527L27.6037 3.49121L6.21373 15.3909L11.4703 16.2412C11.7094 16.2787 11.9222 16.364 12.1087 16.4859ZM13.6519 24.0384L18.8503 19.9059C18.7781 19.3396 18.9778 18.7603 19.3922 18.3703C19.5703 18.2025 19.7859 18.075 20.0325 17.9981L32.9212 8.8959L31.8956 6.25121L12.8334 17.5012C12.99 18.0937 12.8494 18.7396 12.4106 19.2075L10.7606 20.9615L13.6519 24.0384ZM19.2253 20.8021L14.7656 24.3496L18.7331 25.0462L20.9709 22.6678L19.3209 20.9109C19.2862 20.8734 19.2544 20.8387 19.2253 20.8021ZM42.8953 19.3265L27.6544 35.7206C27.734 35.9146 27.779 36.1321 27.7847 36.3665L27.9365 42.4228L44.2509 23.8818L43.4109 18.7931L42.8953 19.3265ZM29.294 25.7765L21.0534 33.4856L23.2697 36.5203L25.0687 35.0343C25.5422 34.6406 26.1553 34.5506 26.7 34.769L41.9062 19.005L40.2375 17.2781L29.294 25.7765ZM20.8837 32.3671L25.9837 27.5971C25.6837 27.5278 25.3912 27.3684 25.1465 27.1078L23.5359 25.394L21.165 27.9159L20.8837 32.3671ZM10.9097 26.5762L6.21654 31.2937C6.4481 31.379 6.66841 31.5196 6.85966 31.724L8.4731 33.4378L11.0831 30.6637L11.0409 26.7178L10.9097 26.5762ZM17.099 28.4475C15.9965 27.2728 14.1094 28.1128 14.1094 29.8003C14.1094 31.4878 15.9965 32.3278 17.099 31.1559C17.7975 30.4115 17.7975 29.1918 17.099 28.4475ZM15.8662 26.9643C18.2447 26.9643 19.4643 30.0046 17.7797 31.7953C16.725 32.9165 15.0075 32.9165 13.9528 31.7953C12.2681 30.0046 13.4878 26.9643 15.8662 26.9643ZM7.66779 18.8934C7.04341 18.2315 5.98029 18.7078 5.98029 19.6743C5.98029 20.639 7.04341 21.1143 7.66779 20.4534C8.06623 20.0287 8.06623 19.3218 7.66779 18.8934ZM6.97404 17.6503C8.67466 17.6503 9.55216 19.8131 8.34841 21.0946C7.13623 22.3865 5.0456 21.4715 5.0456 19.6753C5.04466 18.5831 5.88748 17.6503 6.97404 17.6503ZM25.2815 20.5303C24.6572 19.8656 23.594 20.3446 23.594 21.3093C23.594 22.2768 24.6572 22.7521 25.2815 22.0884C25.68 21.6628 25.68 20.9559 25.2815 20.5303ZM24.5878 19.2871C26.2884 19.2871 27.1659 21.45 25.9622 22.7315C24.7481 24.0206 22.6565 23.1065 22.6565 21.3093C22.6556 20.22 23.4984 19.2871 24.5878 19.2871ZM24.5109 39.9862C23.8894 39.3243 22.8262 39.8006 22.8262 40.7653C22.8262 41.7328 23.8894 42.2081 24.5109 41.5443C24.9122 41.1178 24.9122 40.4109 24.5109 39.9862ZM23.82 38.7421C25.5206 38.7421 26.3953 40.905 25.1943 42.1865C23.9803 43.4756 21.8887 42.5615 21.8887 40.7643C21.8878 39.675 22.7306 38.7421 23.82 38.7421ZM7.87779 36.7706C7.25623 36.1059 6.1931 36.585 6.1931 37.5496C6.1931 38.5143 7.25623 38.9925 7.87779 38.3287C8.27904 37.9031 8.27904 37.1962 7.87779 36.7706ZM7.18685 35.5265C8.88748 35.5265 9.76498 37.6893 8.56123 38.9681C7.34716 40.26 5.2556 39.345 5.2556 37.5487C5.25466 36.4575 6.09748 35.5265 7.18685 35.5265ZM18.869 36.795L18.8775 40.1568L20.4028 38.895L18.869 36.795ZM19.8872 33.2943L20.2434 27.6871C20.2509 27.574 20.2992 27.4674 20.3794 27.3871L23.1965 24.3918C23.2401 24.3452 23.2928 24.3081 23.3514 24.2827C23.4099 24.2573 23.473 24.2442 23.5368 24.2442C23.6007 24.2442 23.6638 24.2573 23.7223 24.2827C23.7809 24.3081 23.8336 24.3452 23.8772 24.3918L25.83 26.4675C26.2659 26.9325 26.9831 26.6587 27.0759 26.0053L27.9844 19.649C28.1278 18.6421 27.3468 17.7459 26.3822 17.9006L20.4084 18.8681C19.8056 18.9665 19.5478 19.7878 20.0015 20.2687L21.9525 22.3471C22.0348 22.4334 22.0808 22.5481 22.0808 22.6673C22.0808 22.7866 22.0348 22.9012 21.9525 22.9875L19.2422 25.8712C19.1897 25.9281 19.1236 25.9708 19.0502 25.9954C18.9768 26.02 18.8983 26.0256 18.8222 26.0118V26.0146L13.47 25.0743C13.3584 25.0556 13.26 24.9975 13.1906 24.915L9.7781 21.285C9.69678 21.1982 9.65153 21.0837 9.65153 20.9648C9.65153 20.8459 9.69678 20.7314 9.7781 20.6446L11.7309 18.5662C12.18 18.0881 11.9306 17.264 11.324 17.1656L5.34748 16.1981C4.3856 16.0443 3.60185 16.9396 3.7481 17.9465L4.65466 24.3028C4.75029 24.959 5.46748 25.2271 5.90341 24.765L7.85623 22.6865C8.03998 22.4925 8.3531 22.4925 8.53685 22.6865L11.8481 26.2078C11.8903 26.2535 11.923 26.3071 11.9444 26.3655C11.9658 26.4239 11.9755 26.4859 11.9728 26.5481L12.0178 30.8428C12.0178 30.9675 11.97 31.0818 11.8903 31.1671L8.81248 34.4409C8.76889 34.4875 8.71619 34.5247 8.65765 34.5501C8.59911 34.5755 8.53598 34.5886 8.47216 34.5886C8.40835 34.5886 8.34522 34.5755 8.28668 34.5501C8.22814 34.5247 8.17544 34.4875 8.13185 34.4409L6.17904 32.3653C5.7431 31.9031 5.02591 32.1712 4.93029 32.8275L4.02185 39.1837C3.87841 40.1934 4.66216 41.0868 5.62404 40.9321L11.6006 39.9646C12.2034 39.8662 12.4565 39.0421 12.0075 38.5612L10.0547 36.4856C9.97334 36.3988 9.92809 36.2844 9.92809 36.1654C9.92809 36.0465 9.97334 35.932 10.0547 35.8453L12.1331 33.6346C12.2503 33.51 12.4228 33.465 12.5794 33.5015V33.4987L18.5053 34.9021C18.6206 34.9298 18.7211 35.0002 18.7865 35.099L21.4172 38.6971C21.5634 38.8987 21.5287 39.1781 21.3375 39.3346L19.1587 41.1365C19.0256 41.2481 18.8953 41.4553 18.8794 41.6015V41.9812C18.9056 42.2203 19.1315 42.4996 19.4081 42.5821L25.2253 44.3306C26.19 44.6203 27.0347 43.799 27.0112 42.8156L26.8519 36.3871C26.8359 35.7356 26.1609 35.3456 25.664 35.7543L23.4853 37.559C23.2678 37.7371 22.9537 37.6809 22.7972 37.455L19.9772 33.599C19.9128 33.5109 19.881 33.4033 19.8872 33.2943Z" fill="#CEBFA8"/>
</svg>
