<svg width="48" height="48" viewBox="0 0 48 48" fill="none" xmlns="http://www.w3.org/2000/svg">
<g clip-path="url(#clip0_124_1628)">
<path d="M27.7969 13.3438C30.5152 13.3438 32.7188 11.1402 32.7188 8.42188C32.7188 5.7036 30.5152 3.5 27.7969 3.5C25.0786 3.5 22.875 5.7036 22.875 8.42188C22.875 11.1402 25.0786 13.3438 27.7969 13.3438Z" fill="#CEBFA8"/>
<path d="M40.0781 17.5933C42.7964 17.5933 45 15.3897 45 12.6714C45 9.95311 42.7964 7.74951 40.0781 7.74951C37.3598 7.74951 35.1562 9.95311 35.1562 12.6714C35.1562 15.3897 37.3598 17.5933 40.0781 17.5933Z" fill="#CEBFA8"/>
<path d="M14.6943 17.5933C17.4126 17.5933 19.6162 15.3897 19.6162 12.6714C19.6162 9.95311 17.4126 7.74951 14.6943 7.74951C11.9761 7.74951 9.77246 9.95311 9.77246 12.6714C9.77246 15.3897 11.9761 17.5933 14.6943 17.5933Z" fill="#CEBFA8"/>
<path d="M7.92188 29.1914C10.6402 29.1914 12.8438 26.9878 12.8438 24.2695C12.8438 21.5513 10.6402 19.3477 7.92188 19.3477C5.2036 19.3477 3 21.5513 3 24.2695C3 26.9878 5.2036 29.1914 7.92188 29.1914Z" fill="#CEBFA8"/>
<path d="M42.5393 26.3924C41.1809 26.3924 40.0784 27.4949 40.0784 28.8533V27.2127C40.0784 26.5335 39.8028 25.9182 39.3573 25.4728C38.9119 25.0274 38.2967 24.7517 37.6175 24.7517C36.259 24.7517 35.1565 25.8542 35.1565 27.2127V26.0068C35.1565 25.3276 34.8809 24.7124 34.4355 24.2669C33.99 23.8215 33.3748 23.5459 32.6956 23.5459C31.3404 23.5459 30.242 24.6402 30.2346 25.9937V17.8554C30.2347 16.5055 29.1454 15.4066 27.7967 15.3952C26.4232 15.3764 25.3102 16.5323 25.3128 17.9054V32.5636L22.2514 29.2249C21.7657 28.6958 21.1021 28.4276 20.4368 28.4276C19.8421 28.4276 19.2466 28.6408 18.7741 29.074C17.7725 29.9927 17.7052 31.5497 18.6239 32.5513L19.3819 33.3732C20.6657 34.7661 21.5705 36.4715 21.9569 38.3254C22.2661 39.8077 22.7944 42.9372 23.2407 44.5885C23.3859 45.1258 23.8723 45.4999 24.4293 45.4999H42.1366C42.678 45.4999 43.1562 45.148 43.3137 44.6304C44.0348 42.2531 45.0003 36.6405 45.0003 30.9229V28.8533C45.0003 28.1741 44.7246 27.5588 44.2792 27.1134C43.8338 26.668 43.2185 26.3924 42.5393 26.3924Z" fill="#CEBFA8"/>
</g>
<defs>
<clipPath id="clip0_124_1628">
<rect width="42" height="42" fill="white" transform="translate(3 3.5)"/>
</clipPath>
</defs>
</svg>
