<svg width="48" height="48" viewBox="0 0 48 48" fill="none" xmlns="http://www.w3.org/2000/svg">
<g clip-path="url(#clip0_124_1576)">
<path fill-rule="evenodd" clip-rule="evenodd" d="M13.7143 10.7044V7.28573C13.7143 6.57565 13.1386 6 12.4286 6H7.28573C6.57565 6 6 6.57565 6 7.28573V33.3575C6.2083 33.235 6.43297 33.1428 6.66727 33.0836L13.7143 10.7044ZM22.767 11.9143L23.217 10.4814C23.4298 9.80679 23.0557 9.08742 22.3813 8.87423L17.475 7.31977C16.7977 7.10714 16.0763 7.48352 15.8634 8.16063L8.06163 32.9357L22.767 11.9143ZM30.2357 16.9369L31.1177 15.6788C31.2146 15.5404 31.2832 15.3843 31.3197 15.2194C31.3562 15.0545 31.3598 14.884 31.3304 14.7176C31.3009 14.5513 31.239 14.3924 31.1482 14.25C31.0573 14.1076 30.9393 13.9846 30.8008 13.8878L26.5875 10.9371C26.4491 10.8403 26.293 10.7717 26.1281 10.7352C25.9632 10.6987 25.7927 10.6951 25.6263 10.7245C25.46 10.7539 25.3011 10.8158 25.1587 10.9067C25.0163 10.9976 24.8933 11.1156 24.7965 11.254L9.63473 32.9319L30.2357 16.9369ZM35.9076 23.9177L37.0879 23.0087C37.2221 22.9059 37.3347 22.7777 37.4193 22.6313C37.5039 22.4849 37.5587 22.3233 37.5808 22.1557C37.6028 21.9881 37.5915 21.8178 37.5477 21.6545C37.5038 21.4912 37.4281 21.3382 37.3251 21.2042L34.1879 17.1285C34.086 16.9938 33.9583 16.8807 33.8124 16.7958C33.6664 16.7108 33.505 16.6557 33.3375 16.6336C33.1701 16.6116 32.9999 16.623 32.8369 16.6672C32.6739 16.7114 32.5213 16.7876 32.3879 16.8913L12.1862 32.577L35.9076 23.9177Z" fill="#CEBFA8"/>
<path d="M9.21513 38.7857C9.57018 38.7857 9.858 38.4979 9.858 38.1429C9.858 37.7878 9.57018 37.5 9.21513 37.5C8.86009 37.5 8.57227 37.7878 8.57227 38.1429C8.57227 38.4979 8.86009 38.7857 9.21513 38.7857Z" fill="#CEBFA8"/>
<path fill-rule="evenodd" clip-rule="evenodd" d="M22.714 34.2856H28.4997V41.9999H22.714V34.2856ZM15.6426 34.2856H21.4283V41.9999H15.6426V34.2856ZM40.714 34.2856H36.8568V41.9999H40.714C41.4241 41.9999 41.9997 41.4243 41.9997 40.7142V35.5713C41.9997 34.8613 41.4241 34.2856 40.714 34.2856ZM29.7854 34.2856H35.5712V41.9999H29.7854V34.2856Z" fill="#CEBFA8"/>
<path d="M6 35.5713V40.7142C6 41.4243 6.57565 41.9999 7.28573 41.9999H14.3571V34.2856H7.28573C6.57565 34.2856 6 34.8613 6 35.5713ZM9.21427 36.2142C10.2794 36.2142 11.1429 37.0776 11.1429 38.1428C11.1429 39.2079 10.2794 40.0714 9.21427 40.0714C8.1491 40.0714 7.28566 39.2079 7.28566 38.1428C7.28566 37.0776 8.14917 36.2142 9.21427 36.2142Z" fill="#CEBFA8"/>
<path fill-rule="evenodd" clip-rule="evenodd" d="M40.5778 31.7911C40.7365 31.7332 40.8823 31.6446 41.0068 31.5304C41.1312 31.4161 41.232 31.2785 41.3032 31.1253C41.3744 30.9721 41.4148 30.8063 41.4219 30.6375C41.429 30.4687 41.4028 30.3002 41.3448 30.1415L39.5834 25.313C39.5255 25.1543 39.4369 25.0085 39.3226 24.884C39.2084 24.7596 39.0707 24.6589 38.9175 24.5876C38.7643 24.5164 38.5986 24.4761 38.4298 24.4689C38.261 24.4618 38.0924 24.488 37.9338 24.546C35.2549 25.5258 23.2637 29.9024 14.7793 32.9997H37.2709L40.5778 31.7911Z" fill="#CEBFA8"/>
</g>
<defs>
<clipPath id="clip0_124_1576">
<rect width="36" height="36" fill="white" transform="translate(6 6)"/>
</clipPath>
</defs>
</svg>
