<svg width="46" height="47" viewBox="0 0 46 47" fill="none" xmlns="http://www.w3.org/2000/svg">
<path d="M27.224 0.959961H18.968C18.008 0.959961 17.432 1.72796 17.24 1.72796C14.36 4.03196 9.94398 7.29596 3.41598 7.29596H3.22398C2.45598 7.29596 1.87998 7.67996 1.49598 8.44796C1.49598 8.63996 1.30398 8.63996 1.30398 8.83196C1.30398 9.02396 -3.68802 35.328 22.232 46.848C22.808 47.04 23.192 47.04 23.768 46.848C49.688 35.328 44.696 9.21596 44.696 8.83196C44.504 7.87196 43.736 7.29596 42.776 7.29596H42.584C36.056 7.29596 31.64 4.03196 28.952 1.72796C28.568 1.53596 28.184 0.959961 27.224 0.959961ZM24.92 42.048V4.79996H26.456C29.336 7.10396 33.944 10.752 41.048 11.136C41.624 16.128 41.816 32.832 24.92 42.048Z" fill="#CEBFA8"/>
</svg>
