<svg width="29" height="28" viewBox="0 0 29 28" fill="none" xmlns="http://www.w3.org/2000/svg">
<path d="M22.3276 13.1089C22.0258 13.4078 22.0235 13.8916 22.3276 14.1928C23.2779 15.1347 23.2775 16.6553 22.3276 17.5968C22.2556 17.6679 22.1985 17.7523 22.1595 17.8453C22.1205 17.9383 22.1005 18.038 22.1005 18.1387C22.1005 18.2394 22.1205 18.339 22.1595 18.432C22.1985 18.525 22.2556 18.6095 22.3276 18.6806C23.278 19.6214 23.2775 21.1431 22.3276 22.0846L22.305 22.107C21.3567 23.0454 19.8146 23.0454 18.8668 22.107C18.795 22.0357 18.7097 21.9792 18.6157 21.9406C18.5218 21.902 18.4211 21.8821 18.3194 21.8821C18.2177 21.8821 18.1171 21.902 18.0231 21.9406C17.9292 21.9792 17.8439 22.0357 17.7721 22.107C16.8207 23.0478 15.2848 23.0474 14.3339 22.107C14.0296 21.8057 13.5408 21.8084 13.2392 22.107C12.289 23.0478 10.7513 23.0474 9.80153 22.107C9.49785 21.8064 9.00792 21.8078 8.70683 22.107C7.74547 23.0577 6.20812 23.0367 5.26918 22.107C4.96501 21.807 4.47678 21.8072 4.17393 22.107C3.2245 23.047 1.6872 23.0479 0.736281 22.1076L0.713082 22.0846C-0.235245 21.1457 -0.235245 19.6189 0.71253 18.6806C0.78454 18.6095 0.841674 18.525 0.880657 18.432C0.919641 18.339 0.939707 18.2394 0.939707 18.1387C0.939707 18.038 0.919641 17.9383 0.880657 17.8453C0.841674 17.7523 0.78454 17.6679 0.71253 17.5968C-0.237675 16.6549 -0.237288 15.1342 0.71253 14.1928C0.78454 14.1217 0.841674 14.0372 0.880657 13.9442C0.919641 13.8512 0.939707 13.7515 0.939707 13.6509C0.939707 13.5502 0.919641 13.4505 0.880657 13.3575C0.841674 13.2645 0.78454 13.18 0.71253 13.1089C-0.235797 12.1701 -0.239222 10.6478 0.71253 9.70548C1.01616 9.40486 1.01472 8.91972 0.71253 8.62167C-0.237178 7.68027 -0.237841 6.15857 0.71253 5.21766C0.78454 5.14657 0.841674 5.06211 0.880657 4.96912C0.919641 4.87613 0.939707 4.77644 0.939707 4.67576C0.939707 4.57507 0.919641 4.47538 0.880657 4.38239C0.841674 4.2894 0.78454 4.20494 0.71253 4.13385C0.253418 3.67884 0.000442496 3.07454 0.000442496 2.43206C0.000442496 0.320224 2.62073 -0.830853 4.17382 0.706815C4.24563 0.778107 4.33094 0.834671 4.42486 0.873265C4.51879 0.911859 4.61948 0.931725 4.72117 0.931725C4.82286 0.931725 4.92355 0.911859 5.01748 0.873265C5.1114 0.834671 5.19671 0.778107 5.26852 0.706815C6.21884 -0.234041 7.7558 -0.233549 8.70672 0.706815C9.00726 1.00552 9.4973 1.00793 9.80142 0.706815C10.7516 -0.233932 12.2893 -0.233549 13.2391 0.706815C13.3109 0.778107 13.3962 0.834671 13.4901 0.873265C13.584 0.911859 13.6847 0.931725 13.7864 0.931725C13.8881 0.931725 13.9888 0.911859 14.0827 0.873265C14.1767 0.834671 14.262 0.778107 14.3338 0.706815C15.2852 -0.233986 16.8211 -0.233549 17.772 0.706815C17.8438 0.778107 17.9291 0.834671 18.023 0.873265C18.1169 0.911859 18.2176 0.931725 18.3193 0.931725C18.421 0.931725 18.5217 0.911859 18.6156 0.873265C18.7096 0.834671 18.7949 0.778107 18.8667 0.706815C19.8169 -0.233932 21.3546 -0.233549 22.3043 0.706815L22.3281 0.73033C23.2753 1.66867 23.2747 3.19545 22.3275 4.13379C22.2554 4.20477 22.1982 4.28922 22.1592 4.38223C22.1202 4.47525 22.1003 4.575 22.1005 4.6757C22.1005 5.02543 22.3177 5.20273 22.3844 5.27667C23.2673 6.2102 23.2677 7.68973 22.3275 8.62167C22.0258 8.91923 22.0234 9.40442 22.3275 9.70548C23.2778 10.6462 23.2775 12.1686 22.3276 13.1089Z" fill="#CEBFA8"/>
<path d="M27.5699 13.8956C27.2718 14.1907 27.2709 14.6693 27.5699 14.9652C28.5162 15.9021 28.5163 17.4186 27.5699 18.3556C27.2706 18.6519 27.2722 19.1304 27.5699 19.4252C28.5143 20.3602 28.5181 21.8761 27.5699 22.8149C27.2706 23.1124 27.2722 23.5904 27.5699 23.8851C28.0272 24.3378 28.279 24.9399 28.279 25.5803C28.279 26.908 27.1728 27.9994 25.8356 27.9994C25.1888 27.9994 24.5807 27.7501 24.1233 27.2973C23.8259 27.0029 23.3431 27.0007 23.0424 27.2973C22.0942 28.2362 20.563 28.2324 19.6186 27.2973C19.3205 27.0023 18.8372 27.0013 18.5383 27.2973C17.592 28.2342 16.0602 28.2343 15.1139 27.2973C14.8146 27.001 14.3312 27.0026 14.0335 27.2973C13.0891 28.2324 11.558 28.2361 10.6097 27.2973C10.3092 27.0009 9.82645 27.0026 9.52879 27.2973C9.52161 27.3044 9.51443 27.3115 9.50725 27.3181C9.05266 27.7577 8.45342 27.9994 7.81656 27.9994C5.91074 27.9994 4.70546 25.8754 5.76691 24.2684C6.90298 24.62 8.19653 24.4741 9.25372 23.7746C10.6185 24.6784 12.4207 24.6788 13.7861 23.7746C15.154 24.6797 16.9556 24.6775 18.3191 23.7746C19.8838 24.8104 22.0575 24.6707 23.4761 23.2672L23.4993 23.2442C24.9149 21.8407 25.0623 19.6932 24.0119 18.1384C24.9248 16.7861 24.9252 15.0035 24.0119 13.6505C24.9248 12.2993 24.9252 10.5151 24.0119 9.16319C24.7148 8.12198 24.8677 6.84135 24.5107 5.7105C25.4407 5.10625 26.7148 5.19851 27.5474 6.02272L27.5546 6.02983L27.5739 6.04952C28.5166 6.98736 28.5149 8.50004 27.57 9.43548C27.2732 9.72937 27.2699 10.2073 27.57 10.5056C28.5181 11.4447 28.5143 12.9606 27.5699 13.8956Z" fill="#CEBFA8"/>
</svg>
