<svg width="20" height="26" viewBox="0 0 20 26" fill="none" xmlns="http://www.w3.org/2000/svg">
<path d="M10 0C4.489 0 0 4.49 0 10C0 12.833 1.41 15.756 3.238 18.49C5.067 21.225 7.354 23.768 9.293 25.707C9.48053 25.8945 9.73484 25.9998 10 25.9998C10.2652 25.9998 10.5195 25.8945 10.707 25.707C12.69 23.724 14.977 21.18 16.795 18.455C18.613 15.731 20 12.827 20 10C20 4.49 15.511 0 10 0ZM10 6C12.197 6 14 7.803 14 10C14 12.197 12.197 14 10 14C7.803 14 6 12.197 6 10C6 7.803 7.803 6 10 6Z" fill="#CEBFA8"/>
</svg>
