<svg width="28" height="28" viewBox="0 0 28 28" fill="none" xmlns="http://www.w3.org/2000/svg">
<g clip-path="url(#clip0_238_3944)">
<path fill-rule="evenodd" clip-rule="evenodd" d="M6.99999 4.9516V2.62501C6.99999 2.14176 6.60823 1.75 6.12502 1.75H2.62501C2.14176 1.75 1.75 2.14176 1.75 2.62501V20.3683C1.89176 20.2849 2.04466 20.2222 2.20411 20.1819L6.99999 4.9516ZM13.1609 5.77499L13.4671 4.79982C13.612 4.34073 13.3574 3.85116 12.8984 3.70608L9.55938 2.64817C9.09847 2.50347 8.60751 2.75962 8.46257 3.22043L3.15306 20.0813L13.1609 5.77499ZM18.2438 9.19317L18.844 8.33696C18.9099 8.24278 18.9566 8.13653 18.9814 8.0243C19.0063 7.91206 19.0088 7.79603 18.9887 7.68284C18.9687 7.56965 18.9266 7.46151 18.8647 7.36461C18.8029 7.2677 18.7226 7.18393 18.6283 7.11808L15.7609 5.10999C15.6668 5.04409 15.5605 4.99739 15.4483 4.97256C15.336 4.94773 15.22 4.94526 15.1068 4.96529C14.9936 4.98532 14.8855 5.02745 14.7886 5.08929C14.6917 5.15112 14.6079 5.23144 14.5421 5.32566L4.22364 20.0786L18.2438 9.19317ZM22.1038 13.944L22.907 13.3254C22.9984 13.2554 23.075 13.1681 23.1326 13.0685C23.1901 12.9689 23.2275 12.8589 23.2425 12.7448C23.2575 12.6308 23.2498 12.5149 23.2199 12.4038C23.1901 12.2926 23.1386 12.1885 23.0684 12.0973L20.9335 9.32356C20.8641 9.2319 20.7772 9.15493 20.6779 9.09712C20.5785 9.0393 20.4687 9.0018 20.3547 8.98678C20.2407 8.97176 20.1249 8.97952 20.014 9.00962C19.9031 9.03972 19.7992 9.09155 19.7085 9.16211L5.96008 19.8371L22.1038 13.944Z" fill="#CEBFA8"/>
<path d="M3.93751 24.0625C4.17914 24.0625 4.37501 23.8666 4.37501 23.625C4.37501 23.3834 4.17914 23.1875 3.93751 23.1875C3.69588 23.1875 3.5 23.3834 3.5 23.625C3.5 23.8666 3.69588 24.0625 3.93751 24.0625Z" fill="#CEBFA8"/>
<path fill-rule="evenodd" clip-rule="evenodd" d="M13.125 21H17.0625V26.25H13.125V21ZM8.3125 21H12.25V26.25H8.3125V21ZM25.375 21H22.75V26.25H25.375C25.8582 26.25 26.25 25.8582 26.25 25.375V21.875C26.25 21.3918 25.8582 21 25.375 21ZM17.9375 21H21.875V26.25H17.9375V21Z" fill="#CEBFA8"/>
<path d="M1.75 21.875V25.375C1.75 25.8582 2.14176 26.25 2.62501 26.25H7.43749V21H2.62501C2.14176 21 1.75 21.3918 1.75 21.875ZM3.93749 22.3125C4.66234 22.3125 5.25001 22.9001 5.25001 23.625C5.25001 24.3499 4.66239 24.9375 3.93749 24.9375C3.21258 24.9375 2.62497 24.3499 2.62497 23.625C2.62497 22.9001 3.21263 22.3125 3.93749 22.3125Z" fill="#CEBFA8"/>
<path fill-rule="evenodd" clip-rule="evenodd" d="M25.2819 19.3025C25.3899 19.2632 25.4891 19.2029 25.5739 19.1251C25.6586 19.0474 25.7271 18.9537 25.7756 18.8494C25.8241 18.7451 25.8515 18.6323 25.8564 18.5175C25.8612 18.4026 25.8434 18.2879 25.8039 18.1799L24.6052 14.8938C24.5658 14.7858 24.5055 14.6866 24.4277 14.6019C24.35 14.5172 24.2563 14.4486 24.152 14.4002C24.0478 14.3517 23.935 14.3242 23.8201 14.3194C23.7052 14.3145 23.5905 14.3324 23.4825 14.3719C21.6594 15.0387 13.4987 18.0172 7.72461 20.1251H23.0314L25.2819 19.3025Z" fill="#CEBFA8"/>
</g>
<defs>
<clipPath id="clip0_238_3944">
<rect width="24.5" height="24.5" fill="white" transform="translate(1.75 1.75)"/>
</clipPath>
</defs>
</svg>
