<svg width="28" height="28" viewBox="0 0 28 28" fill="none" xmlns="http://www.w3.org/2000/svg">
<g clip-path="url(#clip0_238_3936)">
<path d="M13.3876 2.51127C12.3185 3.58738 11.5536 4.9276 11.1709 6.39546C10.7882 7.86331 10.8013 9.40637 11.2089 10.8675L0.306377 21.77C0.140127 21.9363 0.0351266 22.1725 0.0351266 22.4175L0.000126554 27.055C-0.00862345 27.5625 0.437627 28.0088 0.945127 27.9913L5.57388 27.9563C6.09013 27.9563 6.50138 27.5363 6.50138 27.02V24.885H8.64513C8.89013 24.885 9.14388 24.7713 9.31888 24.5963C9.49388 24.4213 9.59013 24.185 9.59013 23.9313V21.7788L11.7339 21.7875C12.2414 21.7963 12.6789 21.3588 12.6701 20.8513V18.6988H14.8314C15.0764 18.6988 15.3126 18.5938 15.4876 18.4275L17.1239 16.7913C25.5589 19.1013 31.6489 8.75877 25.4889 2.51127C22.1551 -0.83123 16.7214 -0.83123 13.3876 2.51127ZM20.3089 5.02252C22.0851 3.30752 24.6926 5.90627 22.9689 7.69127C21.1926 9.40627 18.5851 6.80752 20.3089 5.02252Z" fill="#CEBFA8"/>
</g>
<defs>
<clipPath id="clip0_238_3936">
<rect width="28" height="28" fill="white"/>
</clipPath>
</defs>
</svg>
