<svg width="14" height="14" viewBox="0 0 14 14" fill="none" xmlns="http://www.w3.org/2000/svg">
<g opacity="0.8">
<path d="M13.8679 2.35144L9.33301 7.01811L13.8679 11.6848C13.9499 11.5073 13.9997 11.3111 13.9997 11.1016V2.93459C13.9997 2.72507 13.9499 2.52891 13.8679 2.35144Z" fill="#333333"/>
<path d="M12.3453 2.35144H1.65536C1.47989 2.35144 1.31561 2.39761 1.16699 2.47373L6.19437 7.8279C6.63889 8.30373 7.36178 8.30373 7.80625 7.8279L12.8337 2.47373C12.685 2.39761 12.5208 2.35144 12.3453 2.35144Z" fill="#333333"/>
<path d="M0.131715 2.35144C0.0497364 2.52891 0 2.72507 0 2.93459V11.1016C0 11.3111 0.0497364 11.5074 0.131715 11.6848L4.66667 7.01811L0.131715 2.35144Z" fill="#333333"/>
<path d="M8.90019 8.18481L8.34359 8.66913C7.60289 9.31364 6.39771 9.31364 5.65704 8.66913L5.10045 8.18481L1.16699 11.5854C1.31561 11.6473 1.47989 11.6848 1.65536 11.6848H12.3453C12.5208 11.6848 12.685 11.6473 12.8337 11.5854L8.90019 8.18481Z" fill="#333333"/>
</g>
</svg>
