<svg width="64" height="64" viewBox="0 0 64 64" fill="none" xmlns="http://www.w3.org/2000/svg">
<path d="M40 51.97C38.984 52.378 37.934 52.72 36.848 52.97L36.408 58.702C36.3808 59.0552 36.2213 59.3851 35.9613 59.6257C35.7014 59.8664 35.3602 60 35.006 60H28.992C28.6383 60 28.2976 59.8666 28.0381 59.6263C27.7785 59.386 27.6192 59.0566 27.592 58.704L27.152 52.972C24.8331 52.4374 22.6198 51.5188 20.604 50.254L16.234 54C15.9652 54.2305 15.6193 54.351 15.2655 54.3373C14.9117 54.3236 14.5761 54.1767 14.326 53.926L10.074 49.674C9.82377 49.4237 9.67716 49.0882 9.66344 48.7345C9.64972 48.3808 9.76991 48.035 10 47.766L13.746 43.396C12.4829 41.3793 11.5643 39.1664 11.028 36.848L5.296 36.408C4.94318 36.3803 4.61378 36.2206 4.37354 35.9607C4.13331 35.7008 3.99992 35.3599 4 35.006V28.992C4 28.258 4.566 27.648 5.296 27.592L11.028 27.152C11.5626 24.8331 12.4812 22.6198 13.746 20.604L10.002 16.234C9.77178 15.9656 9.65131 15.6202 9.66466 15.2669C9.67801 14.9136 9.82419 14.5783 10.074 14.328L14.326 10.076C14.5766 9.82619 14.912 9.67987 15.2655 9.66616C15.6191 9.65245 15.9648 9.77235 16.234 10.002L20.604 13.748C22.6207 12.4849 24.8336 11.5663 27.152 11.03L27.592 5.298C27.6192 4.94482 27.7787 4.61493 28.0387 4.37428C28.2986 4.13363 28.6398 3.99996 28.994 4H35.008C35.742 4 36.352 4.566 36.408 5.296L36.434 5.63C35.0014 7.82733 34.171 10.3623 34.0257 12.9814C33.8803 15.6004 34.4253 18.2117 35.606 20.554C33.9559 20.0344 32.213 19.8778 30.4968 20.0948C28.7805 20.3118 27.1314 20.8973 25.6626 21.8112C24.1938 22.725 22.9399 23.9457 21.9869 25.3895C21.0339 26.8333 20.4044 28.466 20.1414 30.1758C19.8784 31.8857 19.9883 33.6321 20.4634 35.2956C20.9385 36.959 21.7676 38.5 22.8939 39.813C24.0202 41.1261 25.4172 42.18 26.9889 42.9027C28.5607 43.6254 30.2701 43.9997 32 44C34.9553 44.001 37.8058 42.9057 40 40.926V51.97Z" fill="#CEBFA8"/>
<path d="M53.9998 23.5776V54.9996C53.9998 56.3257 53.473 57.5975 52.5353 58.5351C51.5977 59.4728 50.3259 59.9996 48.9998 59.9996C47.6737 59.9996 46.402 59.4728 45.4643 58.5351C44.5266 57.5975 43.9998 56.3257 43.9998 54.9996V23.5776C42.2247 22.6729 40.729 21.3026 39.6728 19.6133C38.6165 17.924 38.0394 15.9793 38.0033 13.9873C37.9671 11.9952 38.4732 10.0309 39.4675 8.30437C40.4618 6.57785 41.9067 5.15415 43.6478 4.18561C43.8018 4.10161 43.9998 4.22161 43.9998 4.39761V15.9996L48.9998 17.9996L53.9998 15.9996V4.39761C53.9998 4.22161 54.1978 4.10161 54.3518 4.18761C56.0935 5.15539 57.5392 6.57872 58.534 8.30516C59.5287 10.0316 60.0352 11.9961 59.999 13.9883C59.9628 15.9805 59.3854 17.9254 58.3286 19.6146C57.2719 21.3038 55.7755 22.6737 53.9998 23.5776Z" fill="#CEBFA8"/>
</svg>
