<svg width="63" height="42" viewBox="0 0 63 42" fill="none" xmlns="http://www.w3.org/2000/svg">
<g clip-path="url(#clip0_227_5333)">
<path d="M5.21845 0H2.94248C1.68549 0 0.666504 1.17525 0.666504 2.625V39.375C0.666504 40.8247 1.68549 42 2.94248 42H5.21845C6.47543 42 7.49442 40.8247 7.49442 39.375V2.625C7.49442 1.17525 6.47543 0 5.21845 0Z" fill="#CEBFA8"/>
<path d="M60.3908 0H58.1148C56.8579 0 55.8389 1.17525 55.8389 2.625V39.375C55.8389 40.8247 56.8579 42 58.1148 42H60.3908C61.6478 42 62.6668 40.8247 62.6668 39.375V2.625C62.6668 1.17525 61.6478 0 60.3908 0Z" fill="#CEBFA8"/>
<path d="M1.58154 4.60257L1.58154 8.80261L59.4443 8.80261V4.60257L1.58154 4.60257Z" fill="#CEBFA8"/>
<path d="M1.58203 11.7511L1.58203 15.9512L59.4448 15.9512V11.7511L1.58203 11.7511Z" fill="#CEBFA8"/>
<path d="M1.58447 18.8996L1.58447 23.0996L59.4473 23.0996V18.8996L1.58447 18.8996Z" fill="#CEBFA8"/>
<path d="M1.58447 26.048L1.58447 30.248L59.4473 30.248V26.048L1.58447 26.048Z" fill="#CEBFA8"/>
<path d="M1.58447 33.1984L1.58447 37.3984L59.4473 37.3984V33.1984L1.58447 33.1984Z" fill="#CEBFA8"/>
</g>
<defs>
<clipPath id="clip0_227_5333">
<rect width="62" height="42" fill="white" transform="translate(0.666504)"/>
</clipPath>
</defs>
</svg>
