<svg width="64" height="64" viewBox="0 0 64 64" fill="none" xmlns="http://www.w3.org/2000/svg">
<g clip-path="url(#clip0_227_5372)">
<path d="M32.0004 63.9987C49.6725 63.9987 63.9997 49.6703 63.9997 31.9994C63.9997 14.3285 49.6738 0 32.0004 0C14.3269 0 0.000976562 14.3297 0.000976562 31.9994C0.000976562 49.669 14.3282 63.9987 32.0004 63.9987Z" fill="#FDF1F1"/>
<path fill-rule="evenodd" clip-rule="evenodd" d="M59.2711 15.2897H30.5617V6.93359H51.8938C54.823 9.26569 57.32 12.094 59.2711 15.2897ZM63.9998 31.9981H30.5792V23.6445H62.8986C63.6318 26.3684 64.0021 29.1772 63.9998 31.9981ZM32.0004 63.9975C39.2349 64.0141 46.2586 61.5625 51.9113 57.0476H12.0908C17.7426 61.5632 24.7662 64.015 32.0004 63.9975ZM59.3061 48.7103H4.6947C3.10186 46.1126 1.89232 43.2987 1.10352 40.3554H62.8973C62.1087 43.2988 60.8992 46.1128 59.3061 48.7103Z" fill="#D80027"/>
<path fill-rule="evenodd" clip-rule="evenodd" d="M14.8569 4.97993H14.8282V4.99993L14.8569 4.97993ZM14.8569 4.97993H17.7506L15.0244 6.93614L16.0557 10.1361L13.3357 8.17987L10.6333 10.1361L11.522 7.37488C9.13341 9.37404 7.0494 11.7111 5.33587 14.3122H6.27836L4.55339 15.5622L3.7709 16.9372L4.58839 19.4796L3.04217 18.3547L1.97594 20.8371L2.86467 23.6246H6.23961L3.55716 25.6008L4.58839 28.8007L1.86844 26.8445L0.268473 28.017C0.0899292 29.3369 0.00056168 30.6674 0.00097801 31.9994H32.0004V2.69526e-05C25.928 -0.00787056 19.98 1.71995 14.8569 4.97993ZM16.0494 28.7845L16.0732 28.8032H16.0557L16.0494 28.7845ZM15.0232 25.602L16.0494 28.7845L13.3345 26.847L10.6145 28.8032L11.6458 25.6033L8.9258 23.6471H12.3007L13.332 20.4471L14.3632 23.6471H17.7381L15.0232 25.602ZM15.0419 16.2872L16.0732 19.4871L13.3532 17.5309L10.6333 19.4871L11.6645 16.2872L8.94455 14.331H12.3195L13.3507 11.1311L14.3819 14.331H17.7569L15.0419 16.2872ZM24.8367 26.847L27.5567 28.8032L26.5255 25.6033L29.2504 23.6471H25.8755L24.8442 20.4471L23.813 23.6471H20.4381L23.158 25.6033L22.1268 28.8032L24.8367 26.847ZM26.5255 16.2872L27.5567 19.4871L24.8367 17.5309L22.1168 19.4871L23.148 16.2872L20.4281 14.331H23.803L24.8342 11.1311L25.8655 14.331H29.2404L26.5255 16.2872ZM27.5567 10.1711L26.5255 6.97114L29.2504 5.01493H25.8755L24.8442 1.81499L23.813 5.01493H20.4381L23.158 6.97114L22.1268 10.1711L24.8467 8.21487L27.5567 10.1711Z" fill="#2C3762"/>
</g>
<defs>
<clipPath id="clip0_227_5372">
<rect width="64" height="64" fill="white"/>
</clipPath>
</defs>
</svg>
