<svg width="56" height="56" viewBox="0 0 56 56" fill="none" xmlns="http://www.w3.org/2000/svg">
<g clip-path="url(#clip0_227_5344)">
<path fill-rule="evenodd" clip-rule="evenodd" d="M12 7.31795V2.00003C12 0.895453 11.1045 0 10 0H2.00003C0.895453 0 0 0.895453 0 2.00003V42.5561C0.32402 42.3655 0.673515 42.2221 1.03797 42.13L12 7.31795ZM26.082 9.19997L26.782 6.97102C27.1131 5.92167 26.5311 4.80266 25.482 4.47103L17.85 2.05297C16.7965 1.72222 15.6743 2.3077 15.343 3.36098L3.20698 41.9L26.082 9.19997ZM37.7 17.013L39.072 15.0559C39.2227 14.8406 39.3294 14.5978 39.3862 14.3412C39.4429 14.0847 39.4486 13.8195 39.4028 13.5608C39.357 13.302 39.2607 13.0549 39.1194 12.8334C38.978 12.6119 38.7944 12.4204 38.5791 12.2699L32.025 7.67998C31.8097 7.52935 31.5669 7.4226 31.3103 7.36585C31.0538 7.3091 30.7886 7.30345 30.5299 7.34923C30.2711 7.39501 30.024 7.49132 29.8025 7.63265C29.581 7.77399 29.3895 7.95758 29.239 8.17294L5.65403 41.894L37.7 17.013ZM46.523 27.872L48.359 26.458C48.5677 26.2981 48.7429 26.0986 48.8745 25.8709C49.006 25.6432 49.0914 25.3918 49.1256 25.1311C49.1599 24.8703 49.1424 24.6054 49.0742 24.3514C49.0059 24.0975 48.8882 23.8595 48.7279 23.651L43.8479 17.311C43.6893 17.1015 43.4908 16.9256 43.2637 16.7934C43.0366 16.6613 42.7855 16.5755 42.525 16.5412C42.2645 16.5069 41.9998 16.5246 41.7463 16.5934C41.4927 16.6622 41.2553 16.7807 41.0479 16.942L9.62303 41.342L46.523 27.872Z" fill="#C3B6A2"/>
<path d="M5.00002 51C5.55231 51 6.00003 50.5523 6.00003 50C6.00003 49.4477 5.55231 49 5.00002 49C4.44772 49 4 49.4477 4 50C4 50.5523 4.44772 51 5.00002 51Z" fill="#C3B6A2"/>
<path fill-rule="evenodd" clip-rule="evenodd" d="M26 44H35V56H26V44ZM15 44H24V56H15V44ZM54 44H48V56H54C55.1045 56 56 55.1045 56 53.9999V45.9999C56 44.8955 55.1045 44 54 44ZM37 44H46V56H37V44Z" fill="#C3B6A2"/>
<path d="M0 45.9999V53.9999C0 55.1045 0.895453 56 2.00003 56H13V44H2.00003C0.895453 44 0 44.8955 0 45.9999ZM4.99997 46.9999C6.65678 46.9999 8.00002 48.3431 8.00002 50C8.00002 51.6569 6.65689 53 4.99997 53C3.34305 53 1.99992 51.6569 1.99992 50C1.99992 48.3431 3.34316 46.9999 4.99997 46.9999Z" fill="#C3B6A2"/>
<path fill-rule="evenodd" clip-rule="evenodd" d="M53.7872 40.1204C54.0342 40.0303 54.2609 39.8925 54.4545 39.7148C54.6481 39.5371 54.8048 39.3229 54.9156 39.0846C55.0264 38.8463 55.0892 38.5885 55.1003 38.3259C55.1114 38.0633 55.0706 37.8011 54.9803 37.5543L52.2404 30.0433C52.1503 29.7964 52.0125 29.5697 51.8348 29.3761C51.6571 29.1824 51.4429 29.0257 51.2046 28.9149C50.9663 28.8041 50.7085 28.7414 50.4459 28.7303C50.1833 28.7192 49.9211 28.76 49.6743 28.8503C45.5072 30.3744 26.8542 37.1825 13.6562 42.0004H48.6432L53.7872 40.1204Z" fill="#C3B6A2"/>
</g>
<defs>
<clipPath id="clip0_227_5344">
<rect width="56" height="56" fill="white"/>
</clipPath>
</defs>
</svg>
