<svg width="65" height="64" viewBox="0 0 65 64" fill="none" xmlns="http://www.w3.org/2000/svg">
<path d="M59.3334 41.6836V47.4749C57.2251 47.342 55.4637 47.4981 53.6159 48.5127C52.5475 49.098 51.4507 49.5189 50.2199 49.174C48.9184 48.8091 47.9133 47.8419 46.5749 47.5371C45.3156 47.2492 43.8939 47.2755 42.6725 47.7185C41.5071 48.1425 40.579 49.0537 39.326 49.2615C38.0973 49.4651 37.0816 48.9588 36.0449 48.3819C34.8942 47.7407 33.6634 47.3568 32.3334 47.3568C31.0288 47.3568 29.8054 47.7544 28.6726 48.3735C27.5209 49.0031 26.4293 49.5273 25.0846 49.1676C23.8517 48.8375 22.8529 47.9737 21.6147 47.6352C20.3522 47.2903 18.9221 47.2302 17.6702 47.6584C16.4931 48.0613 15.5334 48.9419 14.3036 49.2162C13.0422 49.4978 11.9643 49.0337 10.8811 48.4452C9.14197 47.4991 7.29205 47.3325 5.3335 47.4907V41.6973C5.3335 40.824 6.05385 40.1163 6.93557 40.129C7.55256 40.1374 8.16849 40.1933 8.77283 40.3283C9.94669 40.5909 10.8664 41.2565 11.9622 41.692C14.5652 42.7256 16.1398 40.5277 18.5392 40.1501C19.8069 39.9507 21.1548 40.1005 22.3445 40.5772C23.3802 40.9917 24.2725 41.7342 25.3915 41.9399C26.6308 42.1666 27.6306 41.6435 28.68 41.0719C29.8117 40.4538 31.0309 40.0583 32.3334 40.0583C33.6001 40.0583 34.8267 40.4011 35.9268 41.016C36.9108 41.5644 37.8727 42.1034 39.0444 42C40.1613 41.9009 41.0135 41.2417 41.9701 40.7407C43.0564 40.1722 44.301 39.9866 45.5191 40.0815C46.8238 40.1817 47.8289 40.6722 48.9437 41.2986C49.9878 41.885 51.0773 42.2067 52.2649 41.8407C53.4071 41.4885 54.3363 40.6922 55.4986 40.3747C56.2379 40.1733 56.9983 40.1142 57.7598 40.1153C58.631 40.1174 59.3334 40.8209 59.3334 41.6836ZM59.3334 50.6389V56.851C59.3334 57.7159 58.6246 58.4183 57.7514 58.4183H6.91553C6.04225 58.4183 5.3335 57.7159 5.3335 56.851V50.6548C7.29205 50.4966 9.14197 50.6632 10.8811 51.6092C11.9643 52.1978 13.0422 52.6618 14.3036 52.3802C15.5334 52.106 16.4931 51.2253 17.6702 50.8224C18.9221 50.3942 20.3522 50.4544 21.6147 50.7992C22.8529 51.1378 23.8517 52.0016 25.0846 52.3317C26.4293 52.6914 27.5209 52.1672 28.6726 51.5375C29.8054 50.9184 31.0288 50.5208 32.3334 50.5208C33.6634 50.5208 34.8942 50.9047 36.0449 51.546C37.0816 52.1229 38.0973 52.6291 39.326 52.4256C40.579 52.2178 41.5071 51.3066 42.6725 50.8826C43.8939 50.4396 45.3156 50.4132 46.5749 50.7012C47.9133 51.006 48.9184 51.9731 50.2199 52.338C51.4507 52.6829 52.5475 52.2621 53.6159 51.6767C55.4637 50.6621 57.2251 50.506 59.3334 50.6389ZM59.3323 17.5239C59.3178 18.4731 59.1245 19.8644 58.175 21.2664C57.0015 22.9992 54.8793 24.2973 52.4326 24.2971C49.9499 24.2969 47.8017 22.9668 46.6493 21.2042C45.9606 20.1508 45.5548 18.8907 45.5339 17.5239C45.439 11.3234 51.1881 6.5573 51.4327 6.35691C51.6605 6.17082 51.9356 6.05191 52.2271 6.01353C52.5187 5.97515 52.8152 6.01882 53.0833 6.13964C53.2067 6.19554 53.3248 6.26726 53.4335 6.35691C53.6782 6.5573 59.4273 11.3234 59.3323 17.5239ZM13.2346 6.35702C12.9521 6.12638 12.5986 6.00041 12.234 6.00041C11.8693 6.00041 11.5159 6.12638 11.2334 6.35702C10.9887 6.55688 5.23963 11.3231 5.33466 17.524C5.3933 21.3221 8.42383 24.2971 12.234 24.2971C16.0441 24.2971 19.0747 21.3221 19.1333 17.524C19.2283 11.3234 13.4794 6.55688 13.2346 6.35702ZM33.3343 6.35691C32.7602 5.88673 31.9067 5.88673 31.3325 6.35691C30.9033 6.70812 20.8026 15.0802 20.9671 25.8538C21.0146 28.8723 22.1905 31.6778 24.2809 33.7534C26.3945 35.8522 29.2538 37.0082 32.3334 37.0082C35.4131 37.0082 38.2724 35.8522 40.386 33.7534C42.5551 31.5995 43.7019 28.6352 43.7019 25.5933C43.7019 14.9452 33.7604 6.70496 33.3343 6.35691Z" fill="#CEBFA8"/>
</svg>
