<svg width="65" height="64" viewBox="0 0 65 64" fill="none" xmlns="http://www.w3.org/2000/svg">
<path d="M53.7602 23.9388L59.6658 29.7273C60.3524 30.4139 61.4648 30.414 62.1515 29.7273C62.8381 29.0407 62.8381 27.9282 62.1515 27.2416L55.0031 20.2104C54.3165 19.5238 53.204 19.5238 52.5174 20.2104L47.748 24.9798C47.2055 23.7384 46.3661 22.6712 45.3456 21.8066L51.4874 15.6648C51.6507 15.5016 51.7802 15.3078 51.8686 15.0946C51.9569 14.8813 52.0024 14.6527 52.0024 14.4219V3.75781C52.0024 2.78621 51.2161 2 50.2445 2C49.2729 2 48.4867 2.78621 48.4867 3.75781V13.694L42.1074 20.0734C41.3366 19.8518 40.5391 19.6953 39.6977 19.6953H25.6352C24.7938 19.6953 23.9962 19.8518 23.2254 20.0734L16.8461 13.694V3.75781C16.8461 2.78621 16.0599 2 15.0883 2C14.1167 2 13.3305 2.78621 13.3305 3.75781V14.4219C13.3305 14.8888 13.5159 15.3351 13.8455 15.6646L19.9873 21.8064C18.9668 22.6709 18.1273 23.7383 17.585 24.9796L12.8156 20.2102C12.129 19.5236 11.0165 19.5236 10.3299 20.2102L3.18146 27.2415C2.49485 27.9281 2.49485 29.0405 3.18146 29.7271C3.86806 30.4137 4.98052 30.4137 5.66712 29.7271L11.5727 23.9388L16.8461 29.2122V36.1869L12.3589 33.9432C11.6791 33.605 10.8654 33.7355 10.3299 34.2727L3.18146 41.304C2.49485 41.9906 2.49485 43.103 3.18146 43.7896C3.86806 44.4762 4.9804 44.4764 5.66712 43.7896L11.9195 37.6544L16.9542 40.1716C17.061 41.6337 17.3342 43.0441 17.8148 44.366L13.8455 48.3352C13.6822 48.4984 13.5527 48.6922 13.4643 48.9054C13.3759 49.1187 13.3304 49.3473 13.3305 49.5781V60.2422C13.3305 61.2138 14.1167 62 15.0883 62C16.0599 62 16.8461 61.2138 16.8461 60.2422V50.306L19.4831 47.669C22.0124 51.4733 26.133 54.1366 30.9086 54.6739V28.4844C30.9086 27.5128 31.6948 26.7266 32.6664 26.7266C33.638 26.7266 34.4242 27.5128 34.4242 28.4844V54.6739C39.1999 54.1366 43.3204 51.4733 45.8498 47.669L48.4867 50.306V60.2422C48.4867 61.2138 49.2729 62 50.2445 62C51.2161 62 52.0024 61.2138 52.0024 60.2422V49.5781C52.0024 49.1113 51.817 48.6649 51.4873 48.3354L47.5181 44.3661C47.9988 43.0443 48.2718 41.6339 48.3787 40.1717L53.4133 37.6545L59.6657 43.7898C60.3523 44.4764 61.4647 44.4765 62.1514 43.7898C62.838 43.1032 62.838 41.9907 62.1514 41.3041L55.0029 34.2729C54.4708 33.7355 53.6502 33.6051 52.974 33.9433L48.4867 36.1869V29.2122L53.7602 23.9388Z" fill="#C3B6A2"/>
<path d="M24.0884 16.1797H41.2446C40.7412 13.6627 39.1737 11.5566 37.0453 10.3237C37.6292 9.45704 37.9407 8.43563 37.9399 7.39062C37.9399 6.41902 37.1537 5.63281 36.1821 5.63281C35.2105 5.63281 34.4243 6.41902 34.4243 7.39062C34.4243 8.36047 33.6347 9.14844 32.6665 9.14844C31.6983 9.14844 30.9087 8.36047 30.9087 7.39062C30.9087 6.41902 30.1225 5.63281 29.1509 5.63281C28.1793 5.63281 27.3931 6.41902 27.3931 7.39062C27.3931 8.47578 27.7238 9.48441 28.2877 10.3237C26.1592 11.5566 24.5918 13.6627 24.0884 16.1797Z" fill="#C3B6A2"/>
<line x1="7.5" y1="54.6716" x2="54.6716" y2="7.5" stroke="#333333" stroke-width="4" stroke-linecap="round"/>
</svg>
