<svg width="65" height="64" viewBox="0 0 65 64" fill="none" xmlns="http://www.w3.org/2000/svg">
<path d="M48.4109 24.7729C48.2491 24.5702 48.0529 24.61 47.9501 24.6514C47.864 24.6863 47.6666 24.7979 47.6939 25.0775C47.7267 25.4132 47.7451 25.7555 47.7487 26.095C47.7633 27.5034 47.1983 28.8832 46.1987 29.8806C45.2054 30.8715 43.899 31.4054 42.508 31.39C40.6079 31.3657 39.0319 30.3746 37.9504 28.5239C37.0561 26.9935 37.4492 25.0197 37.8653 22.9299C38.1088 21.7067 38.3607 20.4417 38.3607 19.2379C38.3607 9.86406 32.059 4.45604 28.3026 2.06668C28.2249 2.01734 28.151 2 28.0855 2C27.9789 2 27.8946 2.04594 27.853 2.07406C27.7723 2.12867 27.6433 2.25313 27.6848 2.47344C29.1206 10.098 24.838 14.6837 20.304 19.5386C15.6305 24.5429 10.3335 30.2149 10.3335 40.4445C10.3335 52.3308 20.0036 62.0008 31.8898 62.0008C41.6764 62.0008 50.3051 55.1776 52.873 45.4081C54.624 38.7467 52.7891 30.2613 48.4109 24.7729ZM32.4275 57.3996C29.4512 57.5353 26.6206 56.4679 24.4586 54.4007C22.3198 52.3555 21.0931 49.5014 21.0931 46.57C21.0931 41.069 23.1964 37.0307 28.8535 31.6696C28.9461 31.5818 29.0409 31.554 29.1235 31.554C29.1984 31.554 29.2633 31.5769 29.308 31.5983C29.4021 31.6437 29.5568 31.7559 29.5359 31.9988C29.3336 34.3525 29.3372 36.3061 29.5462 37.8057C30.0806 41.636 32.8846 44.2096 36.5239 44.2096C38.3082 44.2096 40.0078 43.5381 41.3096 42.3187C41.3599 42.2704 41.4212 42.2352 41.4882 42.216C41.5552 42.1969 41.6259 42.1945 41.6941 42.2089C41.7798 42.2275 41.8945 42.28 41.9546 42.4249C42.4944 43.7282 42.7703 45.1116 42.7745 46.5365C42.7917 52.2699 38.1501 57.1432 32.4275 57.3996Z" fill="#C3B6A2"/>
</svg>
