<svg width="200" height="80" viewBox="0 0 200 80" fill="none" xmlns="http://www.w3.org/2000/svg">
<path d="M0 0H200V66C200 73.732 193.732 80 186 80H14C6.26801 80 0 73.732 0 66V0Z" fill="#151515"/>
<path d="M113.227 50.8274C113.171 50.7772 113.106 50.7382 113.033 50.713C112.961 50.6878 112.885 50.6768 112.808 50.6807C112.344 50.683 111.88 50.7086 111.418 50.7573V51.0961L111.874 51.0648C112.114 51.0475 112.335 51.0389 112.532 51.0389C112.567 51.0383 112.602 51.0443 112.634 51.0566C112.666 51.0689 112.696 51.0872 112.72 51.1104C112.745 51.1337 112.765 51.1614 112.778 51.1919C112.791 51.2224 112.798 51.2551 112.798 51.2881V51.5599H111.763C111.687 51.5545 111.61 51.5647 111.538 51.5899C111.466 51.615 111.401 51.6544 111.346 51.7055C111.292 51.7567 111.249 51.8183 111.222 51.8862C111.195 51.9541 111.183 52.0268 111.188 52.0993V52.2924C111.183 52.365 111.194 52.4378 111.221 52.5059C111.248 52.574 111.291 52.6357 111.345 52.6869C111.4 52.7381 111.466 52.7776 111.538 52.8026C111.61 52.8276 111.687 52.8375 111.763 52.8318H111.923C112.041 52.8275 112.159 52.8079 112.271 52.7735C112.416 52.7327 112.554 52.6712 112.679 52.5912L112.81 52.5092L112.87 52.7886H113.38V51.2147C113.383 51.1438 113.371 51.0729 113.345 51.0064C113.319 50.9398 113.279 50.879 113.227 50.8274ZM112.801 52.328L112.725 52.3496C112.54 52.4055 112.349 52.4357 112.155 52.4391H112.041C112.007 52.4395 111.972 52.4334 111.94 52.421C111.908 52.4087 111.878 52.3904 111.854 52.3672C111.829 52.3439 111.81 52.3163 111.797 52.2859C111.783 52.2554 111.777 52.2228 111.777 52.1899V52.1468C111.777 52.1138 111.783 52.081 111.796 52.0505C111.809 52.0199 111.829 51.9922 111.853 51.9688C111.878 51.9455 111.907 51.9271 111.94 51.9147C111.972 51.9022 112.007 51.8961 112.041 51.8965H112.804L112.801 52.328ZM115.512 52.4359V52.8026C115.256 52.8253 115.003 52.8372 114.755 52.8372C114.679 52.8421 114.603 52.8316 114.531 52.8062C114.46 52.7808 114.395 52.7413 114.341 52.6902C114.287 52.6391 114.245 52.5776 114.219 52.5099C114.192 52.4422 114.181 52.3699 114.186 52.2978V51.1025H113.914V50.7239H114.17L114.26 50.2093H114.767V50.7239H115.336V51.1025H114.767V52.1899C114.766 52.2229 114.773 52.2556 114.786 52.2861C114.799 52.3165 114.819 52.344 114.844 52.3668C114.869 52.3903 114.898 52.4088 114.93 52.4212C114.962 52.4336 114.996 52.4397 115.031 52.4391L115.512 52.4359ZM118.139 51.958V51.2633C118.148 51.1842 118.138 51.1043 118.11 51.0293C118.082 50.9544 118.036 50.8864 117.977 50.8302C117.918 50.774 117.846 50.7312 117.767 50.7047C117.687 50.6783 117.603 50.669 117.52 50.6775H116.608C116.525 50.669 116.441 50.6783 116.361 50.7047C116.282 50.7311 116.211 50.774 116.151 50.8302C116.092 50.8864 116.047 50.9545 116.019 51.0294C115.991 51.1043 115.981 51.1843 115.99 51.2633V52.2946C115.985 52.3667 115.996 52.439 116.023 52.5067C116.049 52.5744 116.091 52.6358 116.145 52.6869C116.199 52.738 116.264 52.7776 116.335 52.803C116.407 52.8283 116.483 52.8389 116.559 52.8339C117.002 52.8339 117.5 52.8091 118.04 52.7573V52.4208C117.52 52.4564 117.113 52.4758 116.832 52.4758C116.797 52.4762 116.762 52.4702 116.73 52.458C116.698 52.4458 116.669 52.4276 116.644 52.4046C116.619 52.3813 116.599 52.3536 116.586 52.323C116.573 52.2925 116.566 52.2597 116.566 52.2266V51.9655L118.139 51.958ZM116.574 51.2848C116.571 51.2483 116.576 51.2115 116.589 51.1771C116.603 51.1426 116.624 51.1114 116.651 51.0856C116.679 51.0597 116.712 51.0399 116.748 51.0276C116.785 51.0152 116.824 51.0106 116.862 51.0141H117.276C117.314 51.0108 117.353 51.0155 117.389 51.0279C117.425 51.0404 117.458 51.0602 117.486 51.086C117.513 51.1119 117.534 51.1431 117.547 51.1774C117.56 51.2118 117.565 51.2484 117.562 51.2848V51.6214H116.58L116.574 51.2848ZM110.642 51.2784V52.739C110.03 52.8011 109.415 52.8339 108.8 52.8372C108.533 52.8372 108.344 52.78 108.223 52.6689C108.101 52.5578 108.045 52.3744 108.045 52.1219V50.7498C108.045 50.4779 108.106 50.2816 108.228 50.1662C108.35 50.0507 108.557 49.9914 108.844 49.9914H110.369V50.3916H109.027C108.976 50.3861 108.924 50.3916 108.875 50.4077C108.827 50.4237 108.783 50.4499 108.746 50.4843C108.71 50.5188 108.682 50.5605 108.665 50.6065C108.648 50.6524 108.643 50.7014 108.648 50.7498V52.1219C108.647 52.1637 108.654 52.2052 108.67 52.2442C108.686 52.2831 108.71 52.3186 108.741 52.3485C108.772 52.3779 108.81 52.4009 108.851 52.4159C108.893 52.4309 108.937 52.4377 108.981 52.4359C109.331 52.4359 109.652 52.4294 109.938 52.4143H110.038V51.5966H109.448V51.2827L110.642 51.2784ZM120.901 52.1219V52.2946C120.906 52.3667 120.895 52.4391 120.869 52.5069C120.842 52.5746 120.8 52.6362 120.746 52.6873C120.692 52.7385 120.627 52.778 120.556 52.8033C120.484 52.8286 120.408 52.8391 120.332 52.8339C119.828 52.8339 119.286 52.808 118.717 52.7563V52.3981C119.271 52.4348 119.723 52.4542 120.059 52.4542C120.094 52.4551 120.129 52.4493 120.161 52.4371C120.194 52.4249 120.223 52.4066 120.248 52.3833C120.273 52.36 120.293 52.3322 120.306 52.3016C120.319 52.2709 120.325 52.2381 120.325 52.205V51.9655H119.245C119.169 51.9705 119.093 51.9599 119.021 51.9346C118.95 51.9092 118.885 51.8696 118.831 51.8185C118.777 51.7674 118.735 51.706 118.708 51.6383C118.681 51.5706 118.67 51.4983 118.676 51.4262V51.2762C118.67 51.2041 118.681 51.1318 118.708 51.0641C118.735 50.9964 118.777 50.9349 118.831 50.8838C118.885 50.8327 118.95 50.7932 119.021 50.7678C119.093 50.7424 119.169 50.7319 119.245 50.7368H120.679V51.0939H119.517C119.482 51.0936 119.447 51.0999 119.415 51.1125C119.382 51.1251 119.353 51.1437 119.328 51.1673C119.303 51.1903 119.284 51.2178 119.271 51.2483C119.258 51.2787 119.251 51.3113 119.252 51.3442C119.251 51.3773 119.258 51.4103 119.271 51.441C119.284 51.4718 119.303 51.4997 119.328 51.5232C119.379 51.5697 119.447 51.5953 119.517 51.5944H120.332C120.408 51.5909 120.485 51.6021 120.558 51.6275C120.63 51.6529 120.696 51.692 120.752 51.7422C120.802 51.7935 120.841 51.8538 120.867 51.9195C120.893 51.9853 120.904 52.0552 120.901 52.1252V52.1219ZM94.0555 50.2136C93.9006 50.0659 93.6648 49.9914 93.3528 49.9914H91.6934V52.7962H93.3585C93.6705 52.7962 93.9063 52.7217 94.0612 52.5804C94.2161 52.4391 94.2947 52.2104 94.2947 51.9148V50.8868C94.289 50.5869 94.2104 50.3636 94.0555 50.2169V50.2136ZM93.6853 51.9073C93.6853 52.2169 93.4985 52.3938 93.1717 52.3938H92.2959V50.3916H93.1717C93.4985 50.3916 93.6853 50.5686 93.6853 50.8782V51.9073ZM99.9255 50.8285C99.8644 50.7752 99.7926 50.7341 99.7143 50.7078C99.636 50.6814 99.5528 50.6704 99.4699 50.6754H98.4289C98.346 50.6705 98.2629 50.6816 98.1847 50.7079C98.1064 50.7343 98.0345 50.7753 97.9734 50.8285C97.9168 50.8862 97.8732 50.9542 97.8454 51.0284C97.8176 51.1026 97.8061 51.1815 97.8116 51.26V52.2482C97.8028 52.3272 97.8128 52.4072 97.8409 52.4821C97.8689 52.557 97.9143 52.6251 97.9737 52.6812C98.0331 52.7374 98.105 52.7803 98.1842 52.8067C98.2634 52.8331 98.3478 52.8424 98.4312 52.8339H99.4722C99.5557 52.8424 99.6401 52.8331 99.7192 52.8067C99.7984 52.7803 99.8703 52.7374 99.9297 52.6812C99.9891 52.6251 100.034 52.557 100.063 52.4821C100.091 52.4072 100.101 52.3272 100.092 52.2482V51.26C100.096 51.182 100.083 51.1041 100.055 51.0308C100.026 50.9576 99.9822 50.8906 99.9255 50.8339V50.8285ZM99.5052 52.1845C99.5087 52.221 99.5037 52.2578 99.4905 52.2922C99.4773 52.3267 99.4563 52.3579 99.4289 52.3838C99.4015 52.4096 99.3684 52.4294 99.332 52.4418C99.2956 52.4542 99.2567 52.4588 99.2182 52.4553H98.6761C98.6375 52.4589 98.5985 52.4545 98.562 52.4422C98.5254 52.4299 98.4922 52.4101 98.4646 52.3842C98.4371 52.3584 98.4159 52.327 98.4027 52.2925C98.3894 52.258 98.3844 52.2211 98.3879 52.1845V51.3215C98.3844 51.2849 98.3894 51.2481 98.4027 51.2135C98.4159 51.179 98.4371 51.1477 98.4646 51.1218C98.4922 51.0959 98.5254 51.0761 98.562 51.0639C98.5985 51.0516 98.6375 51.0471 98.6761 51.0508H99.2182C99.2567 51.0473 99.2956 51.0519 99.332 51.0642C99.3684 51.0766 99.4015 51.0964 99.4289 51.1223C99.4563 51.1481 99.4773 51.1794 99.4905 51.2138C99.5037 51.2483 99.5087 51.285 99.5052 51.3215V52.1845ZM97.0269 50.8285C96.9658 50.7753 96.8939 50.7343 96.8156 50.7079C96.7373 50.6816 96.6543 50.6705 96.5714 50.6754H95.5224C95.439 50.6669 95.3546 50.6762 95.2754 50.7026C95.1962 50.729 95.1243 50.7719 95.0649 50.828C95.0055 50.8842 94.9601 50.9522 94.9321 51.0272C94.904 51.1021 94.894 51.182 94.9028 51.2611V52.2492C94.894 52.3283 94.904 52.4082 94.9321 52.4832C94.9601 52.5581 95.0055 52.6261 95.0649 52.6823C95.1243 52.7385 95.1962 52.7813 95.2754 52.8078C95.3546 52.8342 95.439 52.8435 95.5224 52.835H96.5645C96.648 52.8435 96.7324 52.8342 96.8116 52.8078C96.8907 52.7813 96.9626 52.7385 97.022 52.6823C97.0814 52.6261 97.1268 52.5581 97.1549 52.4832C97.1829 52.4082 97.1929 52.3283 97.1841 52.2492V51.2611C97.1894 51.1836 97.1782 51.1058 97.1512 51.0324C97.1242 50.9591 97.0819 50.8916 97.0269 50.8339V50.8285ZM96.6067 52.1845C96.6104 52.221 96.6055 52.2577 96.5925 52.2921C96.5794 52.3266 96.5585 52.3579 96.5311 52.3838C96.5038 52.4096 96.4708 52.4295 96.4344 52.4418C96.3981 52.4542 96.3593 52.4588 96.3208 52.4553H95.7764C95.7379 52.4588 95.6991 52.4542 95.6628 52.4418C95.6264 52.4295 95.5934 52.4096 95.566 52.3838C95.5387 52.3579 95.5178 52.3266 95.5047 52.2921C95.4917 52.2577 95.4868 52.221 95.4905 52.1845V51.3215C95.4868 51.2851 95.4917 51.2483 95.5047 51.2139C95.5178 51.1794 95.5387 51.1482 95.566 51.1223C95.5934 51.0964 95.6264 51.0766 95.6628 51.0642C95.6991 51.0518 95.7379 51.0472 95.7764 51.0508H96.3197C96.3581 51.0472 96.3969 51.0518 96.4333 51.0642C96.4697 51.0766 96.5027 51.0964 96.53 51.1223C96.5573 51.1482 96.5783 51.1794 96.5913 51.2139C96.6044 51.2483 96.6092 51.2851 96.6055 51.3215L96.6067 52.1845ZM102.301 50.6743V51.1392H102.022C101.803 51.1426 101.588 51.1893 101.389 51.2762L101.327 51.3032V52.7908H100.746V50.7174H101.251L101.313 51.0917L101.456 50.9709C101.658 50.7887 101.924 50.6831 102.203 50.6743H102.301ZM106.06 52.3474V52.8285L105.791 53.2298H105.596L105.777 52.7983H105.456V52.355L106.06 52.3474ZM104.972 52.1187V52.2913C104.977 52.3634 104.966 52.4357 104.939 52.5034C104.913 52.5711 104.871 52.6326 104.817 52.6837C104.763 52.7348 104.698 52.7744 104.627 52.7997C104.555 52.8251 104.479 52.8356 104.403 52.8307C103.899 52.8307 103.355 52.8048 102.786 52.753V52.3949C103.342 52.4315 103.793 52.451 104.13 52.451C104.165 52.4516 104.2 52.4457 104.232 52.4334C104.264 52.4212 104.294 52.4029 104.318 52.3798C104.343 52.3564 104.362 52.3286 104.375 52.2981C104.388 52.2675 104.395 52.2348 104.395 52.2018V51.9655H103.314C103.238 51.9705 103.161 51.9599 103.09 51.9346C103.018 51.9092 102.953 51.8696 102.9 51.8185C102.846 51.7674 102.804 51.706 102.777 51.6383C102.75 51.5706 102.739 51.4983 102.744 51.4262V51.2762C102.739 51.2041 102.75 51.1318 102.777 51.0641C102.804 50.9964 102.846 50.9349 102.9 50.8838C102.953 50.8327 103.018 50.7932 103.09 50.7678C103.161 50.7424 103.238 50.7319 103.314 50.7368H104.75V51.0939H103.586C103.551 51.0938 103.517 51.1001 103.485 51.1127C103.453 51.1252 103.424 51.1437 103.399 51.167C103.375 51.1902 103.355 51.2179 103.342 51.2483C103.329 51.2787 103.323 51.3113 103.323 51.3442C103.322 51.3773 103.329 51.4103 103.342 51.441C103.355 51.4718 103.374 51.4997 103.399 51.5232C103.424 51.5463 103.453 51.5645 103.485 51.5768C103.517 51.589 103.551 51.595 103.586 51.5944H104.406C104.482 51.5897 104.558 51.6004 104.63 51.6258C104.701 51.6512 104.766 51.6908 104.82 51.7418C104.874 51.7929 104.916 51.8543 104.942 51.9219C104.969 51.9895 104.98 52.0618 104.975 52.1338L104.972 52.1187ZM146.736 49.945V50.3474H146.157V49.9472L146.736 49.945ZM149.054 49.9882V50.7174H148.027C147.944 50.7126 147.861 50.7237 147.782 50.75C147.704 50.7763 147.632 50.8173 147.571 50.8706C147.514 50.9283 147.471 50.9963 147.443 51.0705C147.415 51.1447 147.404 51.2235 147.409 51.3021V52.2902C147.404 52.3623 147.415 52.4347 147.442 52.5024C147.469 52.57 147.511 52.6315 147.565 52.6826C147.619 52.7337 147.683 52.7733 147.755 52.7986C147.826 52.824 147.903 52.8346 147.979 52.8296H148.182C148.3 52.8255 148.417 52.8059 148.53 52.7714C148.675 52.7303 148.813 52.6689 148.939 52.5891L149.07 52.5071L149.129 52.7865H149.638V49.9817L149.054 49.9882ZM149.054 52.2999L148.979 52.3215C148.795 52.3774 148.603 52.4079 148.409 52.4121H148.254C148.219 52.4128 148.185 52.4067 148.152 52.394C148.12 52.3814 148.091 52.3626 148.067 52.3388C148.041 52.316 148.022 52.2885 148.008 52.258C147.995 52.2276 147.988 52.1948 147.989 52.1619V51.3679C147.986 51.3313 147.991 51.2944 148.004 51.2598C148.017 51.2252 148.038 51.1938 148.066 51.1679C148.093 51.1419 148.126 51.122 148.163 51.1096C148.2 51.0972 148.239 51.0926 148.277 51.0961H149.062L149.054 52.2999ZM146.736 50.8026V52.7908H146.157V51.1888H145.815V50.8091L146.736 50.8026ZM145.333 51.904V52.1198C145.333 52.3722 145.273 52.5513 145.155 52.6667C145.038 52.7821 144.842 52.835 144.578 52.835C144.427 52.835 144.264 52.835 144.092 52.8264L143.676 52.8102C143.411 52.7972 143.124 52.7789 142.821 52.7563V52.3755C143.581 52.4154 144.111 52.4337 144.396 52.4337C144.44 52.4354 144.484 52.4286 144.525 52.4135C144.567 52.3985 144.604 52.3756 144.636 52.3463C144.667 52.3165 144.691 52.281 144.707 52.242C144.722 52.2031 144.729 52.1615 144.727 52.1198V51.6419H143.585C143.298 51.6419 143.091 51.5826 142.968 51.4661C142.845 51.3496 142.783 51.1543 142.783 50.8835V50.7552C142.783 50.4833 142.846 50.287 142.968 50.1716C143.089 50.0561 143.298 49.9968 143.585 49.9968H145.065V50.397H143.761C143.71 50.3917 143.659 50.3973 143.61 50.4134C143.562 50.4296 143.518 50.4558 143.482 50.4902C143.446 50.5246 143.418 50.5663 143.401 50.6122C143.384 50.658 143.379 50.7069 143.384 50.7552V50.8415C143.379 50.8897 143.385 50.9384 143.402 50.9841C143.419 51.0299 143.446 51.0714 143.482 51.1057C143.519 51.14 143.562 51.1661 143.611 51.1822C143.659 51.1982 143.711 51.2038 143.761 51.1985H144.578C144.842 51.1985 145.034 51.2546 145.155 51.3668C145.277 51.479 145.34 51.6592 145.34 51.9105L145.333 51.904ZM151.13 50.8026V52.7908H150.549V51.1888H150.208V50.8091L151.13 50.8026ZM151.13 49.9396V50.3474H150.549V49.9472L151.13 49.9396ZM155.312 50.712C155.229 50.7035 155.144 50.7128 155.065 50.7393C154.986 50.7657 154.914 50.8085 154.855 50.8647C154.795 50.9209 154.75 50.9889 154.722 51.0639C154.694 51.1388 154.684 51.2187 154.693 51.2978V52.1608C154.688 52.2329 154.699 52.3052 154.725 52.3729C154.752 52.4406 154.794 52.5021 154.848 52.5532C154.902 52.6043 154.967 52.6438 155.038 52.6692C155.11 52.6946 155.186 52.7051 155.262 52.7002H155.43C155.682 52.6962 155.933 52.668 156.179 52.616L156.307 52.5912V52.9364C156.307 52.9696 156.301 53.0026 156.288 53.0334C156.275 53.0641 156.255 53.0921 156.23 53.1155C156.206 53.1387 156.176 53.1571 156.144 53.1695C156.112 53.1819 156.077 53.1881 156.042 53.1878C155.76 53.1878 155.353 53.1683 154.834 53.1306V53.4909C155.374 53.5405 155.872 53.5675 156.315 53.5675C156.391 53.5725 156.468 53.5618 156.54 53.5362C156.612 53.5105 156.677 53.4704 156.731 53.4187C156.785 53.367 156.827 53.3049 156.853 53.2365C156.88 53.1682 156.89 53.0953 156.884 53.0227V50.7207L155.312 50.712ZM156.302 52.2622L156.214 52.2762C156.029 52.3065 155.84 52.3213 155.652 52.3204H155.538C155.503 52.3211 155.468 52.315 155.436 52.3026C155.404 52.2902 155.374 52.2716 155.35 52.2482C155.326 52.2249 155.306 52.1973 155.293 52.1669C155.28 52.1366 155.273 52.104 155.274 52.0712V51.3625C155.27 51.326 155.275 51.2892 155.288 51.2548C155.301 51.2203 155.322 51.1889 155.349 51.163C155.376 51.137 155.409 51.1171 155.446 51.1046C155.482 51.0921 155.521 51.0873 155.559 51.0907H156.301L156.302 52.2622ZM154.074 51.2115V52.7854H153.493V51.3409C153.494 51.3079 153.488 51.2751 153.475 51.2445C153.462 51.2139 153.442 51.1862 153.417 51.1629C153.392 51.1395 153.363 51.1211 153.33 51.1087C153.298 51.0963 153.263 51.0901 153.228 51.0907H153.071C152.878 51.095 152.686 51.1255 152.501 51.1813L152.426 51.2018V52.7854H151.845V50.712H152.355L152.414 50.9914L152.544 50.9094C152.67 50.8304 152.808 50.769 152.953 50.7271C153.065 50.6927 153.183 50.6731 153.301 50.6689H153.505C153.582 50.6652 153.659 50.6762 153.731 50.7015C153.803 50.7267 153.869 50.7655 153.925 50.8156C153.98 50.8693 154.022 50.9335 154.049 51.0037C154.076 51.074 154.087 51.1488 154.081 51.2234L154.074 51.2115ZM121.982 52.342V52.8285L121.712 53.2298H121.519L121.701 52.7983H121.377V52.355L121.982 52.342ZM128.799 51.9493V51.2546C128.807 51.1758 128.796 51.0964 128.768 51.022C128.739 50.9476 128.694 50.8801 128.635 50.8242C128.575 50.7683 128.504 50.7254 128.425 50.6986C128.347 50.6717 128.263 50.6616 128.18 50.6689H127.269C127.186 50.6641 127.103 50.6751 127.024 50.7015C126.946 50.7278 126.874 50.7688 126.813 50.8221C126.757 50.8797 126.713 50.9478 126.685 51.022C126.657 51.0962 126.646 51.175 126.651 51.2536V52.2848C126.646 52.3569 126.657 52.4293 126.684 52.497C126.711 52.5646 126.753 52.6261 126.807 52.6772C126.861 52.7283 126.925 52.7679 126.997 52.7932C127.068 52.8186 127.145 52.8292 127.221 52.8242C127.663 52.8242 128.16 52.7994 128.701 52.7476V52.4111C128.182 52.4467 127.776 52.4661 127.494 52.4661C127.424 52.4668 127.356 52.4413 127.305 52.3949C127.28 52.3716 127.261 52.3438 127.248 52.3132C127.235 52.2826 127.228 52.2499 127.229 52.2169V51.9655L128.799 51.9493ZM127.236 51.2762C127.232 51.2397 127.237 51.2029 127.251 51.1684C127.264 51.134 127.285 51.1028 127.313 51.0769C127.34 51.0511 127.373 51.0313 127.41 51.019C127.446 51.0066 127.485 51.002 127.524 51.0054H127.932C127.97 51.0023 128.009 51.0072 128.045 51.0197C128.081 51.0322 128.114 51.052 128.141 51.0778C128.168 51.1036 128.189 51.1347 128.202 51.169C128.216 51.2033 128.221 51.2399 128.217 51.2762V51.6128H127.236V51.2762ZM131.698 51.2115V52.7854H131.116V51.3409C131.116 51.3079 131.11 51.2752 131.097 51.2446C131.084 51.2141 131.064 51.1863 131.04 51.163C131.015 51.1397 130.986 51.1212 130.953 51.1088C130.921 51.0964 130.887 51.0902 130.852 51.0907H130.693C130.5 51.095 130.308 51.1255 130.124 51.1813L130.049 51.2018V52.7854H129.468V50.712H129.977L130.036 50.9914L130.167 50.9094C130.293 50.8302 130.431 50.7688 130.576 50.7271C130.689 50.6926 130.806 50.673 130.925 50.6689H131.129C131.205 50.6639 131.281 50.6745 131.352 50.6998C131.424 50.7252 131.489 50.7648 131.543 50.8159C131.597 50.867 131.638 50.9284 131.665 50.9961C131.692 51.0638 131.703 51.1361 131.698 51.2082V51.2115ZM124.655 50.383V51.2913H125.991V51.6915H124.655V52.7854H124.05V49.9806H126.353V50.3809L124.655 50.383ZM132.898 51.3625V52.1996C132.898 52.2325 132.905 52.2651 132.918 52.2956C132.931 52.326 132.951 52.3536 132.975 52.3769C133 52.4001 133.029 52.4184 133.061 52.4307C133.093 52.4431 133.128 52.4492 133.163 52.4488C133.418 52.4488 133.794 52.4315 134.28 52.3938V52.7519C133.818 52.8001 133.355 52.8257 132.89 52.8285C132.814 52.8325 132.737 52.8215 132.665 52.7963C132.593 52.771 132.527 52.7321 132.471 52.6818C132.418 52.6295 132.377 52.5674 132.35 52.4992C132.323 52.4311 132.312 52.3585 132.316 52.2859V51.2978C132.311 51.2192 132.322 51.1404 132.35 51.0662C132.378 50.992 132.422 50.924 132.478 50.8663C132.539 50.8131 132.611 50.7721 132.689 50.7458C132.768 50.7195 132.851 50.7084 132.934 50.7131H134.278V51.1025H133.183C133.145 51.1004 133.107 51.106 133.072 51.119C133.037 51.132 133.005 51.1521 132.978 51.1779C132.952 51.2037 132.932 51.2347 132.919 51.2686C132.906 51.3025 132.902 51.3386 132.905 51.3744L132.898 51.3625ZM139.76 52.1176V52.2902C139.766 52.3624 139.755 52.4348 139.728 52.5026C139.701 52.5703 139.66 52.6319 139.606 52.683C139.552 52.7342 139.487 52.7737 139.415 52.799C139.344 52.8243 139.267 52.8347 139.191 52.8296C138.688 52.8296 138.145 52.8037 137.576 52.7519V52.3938C138.131 52.4305 138.584 52.4499 138.92 52.4499C138.955 52.4506 138.989 52.4447 139.022 52.4324C139.054 52.4202 139.083 52.4019 139.108 52.3786C139.133 52.3553 139.152 52.3276 139.165 52.297C139.178 52.2664 139.185 52.2337 139.184 52.2007V51.9655H138.104C138.028 51.9707 137.952 51.9602 137.88 51.9349C137.809 51.9096 137.744 51.8701 137.69 51.8189C137.636 51.7678 137.594 51.7062 137.567 51.6385C137.541 51.5707 137.53 51.4983 137.535 51.4262V51.2762C137.53 51.2041 137.541 51.1316 137.567 51.0639C137.594 50.9961 137.636 50.9346 137.69 50.8834C137.744 50.8323 137.809 50.7927 137.88 50.7674C137.952 50.7421 138.028 50.7317 138.104 50.7368H139.538V51.0939H138.377C138.341 51.0935 138.307 51.0997 138.274 51.1123C138.242 51.1249 138.212 51.1436 138.188 51.1673C138.163 51.1905 138.144 51.2181 138.131 51.2485C138.118 51.2789 138.112 51.3114 138.112 51.3442C138.111 51.3773 138.118 51.4102 138.131 51.441C138.144 51.4718 138.163 51.4997 138.188 51.5231C138.212 51.5465 138.242 51.5649 138.274 51.5772C138.307 51.5895 138.342 51.5953 138.377 51.5944H139.191C139.267 51.5895 139.343 51.6001 139.415 51.6254C139.486 51.6508 139.551 51.6903 139.605 51.7414C139.659 51.7926 139.701 51.854 139.728 51.9217C139.754 51.9894 139.766 52.0617 139.76 52.1338V52.1176ZM140.848 52.3463V52.8285L140.578 53.2298H140.396L140.576 52.7983H140.254V52.355L140.848 52.3463ZM136.997 51.9537V51.2589C137.006 51.1799 136.997 51.1 136.969 51.0251C136.941 50.9501 136.895 50.8821 136.836 50.8259C136.777 50.7697 136.705 50.7268 136.626 50.7004C136.547 50.674 136.462 50.6647 136.379 50.6732H135.468C135.384 50.6649 135.3 50.6743 135.221 50.7008C135.142 50.7273 135.07 50.7702 135.011 50.8263C134.952 50.8825 134.906 50.9505 134.879 51.0253C134.851 51.1002 134.841 51.18 134.849 51.2589V52.2902C134.844 52.3623 134.855 52.4347 134.882 52.5024C134.909 52.57 134.951 52.6315 135.005 52.6826C135.059 52.7337 135.123 52.7733 135.195 52.7986C135.266 52.824 135.343 52.8346 135.419 52.8296C135.862 52.8296 136.36 52.8048 136.899 52.753V52.4165C136.38 52.4521 135.973 52.4715 135.691 52.4715C135.656 52.4722 135.622 52.4663 135.589 52.454C135.557 52.4418 135.528 52.4235 135.503 52.4002C135.478 52.3769 135.459 52.3491 135.446 52.3186C135.433 52.288 135.426 52.2553 135.427 52.2223V51.9655L136.997 51.9537ZM135.435 51.2805C135.431 51.2441 135.437 51.2074 135.45 51.173C135.463 51.1387 135.484 51.1075 135.512 51.0817C135.539 51.0559 135.572 51.0361 135.608 51.0236C135.645 51.0112 135.683 51.0065 135.722 51.0098H136.13C136.168 51.0065 136.207 51.0112 136.243 51.0236C136.279 51.0361 136.312 51.0559 136.34 51.0817C136.367 51.1075 136.388 51.1387 136.401 51.173C136.415 51.2074 136.42 51.2441 136.417 51.2805V51.6171H135.435V51.2805Z" fill="#C3B6A2"/>
<path d="M110.807 40.1036C110.799 39.9512 110.793 39.8183 110.778 39.6844C110.55 37.6639 109.52 36.1138 107.733 35.077C106.552 34.4066 105.182 34.0546 103.786 34.0627C102.675 34.0596 101.578 34.279 100.574 34.7049C98.4207 35.6312 97.0359 37.4298 96.7744 39.6394C96.5106 41.8714 97.3611 43.6833 99.3029 45.0238C100.84 46.0851 102.689 46.4839 104.955 46.2426C108.365 45.8816 110.88 43.3438 110.822 40.3398C110.817 40.2559 110.812 40.1813 110.807 40.1036ZM107.798 43.6005C107.4 44.1487 106.867 44.6078 106.241 44.9425C105.616 45.2773 104.913 45.4789 104.187 45.5319C104.073 45.5401 103.96 45.5432 103.846 45.5432C103.173 45.5386 102.508 45.4069 101.895 45.1568C101.282 44.9067 100.735 44.5437 100.287 44.0913C99.2506 43.0688 98.623 41.7201 98.6071 40.4901C98.6424 38.7355 98.9482 37.6435 99.6747 36.7212C101.167 34.8173 103.927 34.3255 106.236 35.5515C107.68 36.3183 108.56 37.4942 108.851 39.0361C109.17 40.7048 108.814 42.2406 107.798 43.6005Z" fill="white"/>
<path d="M123.661 46.2203C122.628 46.4313 121.736 46.2733 120.94 45.7391C120.11 45.1804 119.508 44.4433 118.982 43.7297C118.681 43.3219 118.39 42.8988 118.11 42.4889C117.986 42.3054 117.862 42.1239 117.736 41.9415C117.42 41.4878 116.95 40.9403 116.09 40.7354C115.908 40.6779 115.74 40.5911 115.594 40.4795C115.536 40.4397 115.478 40.4 115.414 40.3623L115.445 40.3296C115.596 40.3082 115.749 40.2909 115.902 40.2736C116.254 40.2384 116.603 40.186 116.948 40.1166C117.846 39.9127 118.517 39.4886 118.889 38.8769C119.287 38.2193 119.334 37.3547 119.005 36.5657C118.893 36.2855 118.711 36.031 118.472 35.8213C118.232 35.6116 117.942 35.452 117.623 35.3545C116.816 35.0843 115.98 35.0986 115.17 35.1108L114.772 35.1159H114.715V46.051H113.089V34.3564C113.507 34.3564 113.931 34.3381 114.341 34.3238C115.671 34.2748 117.046 34.2218 118.37 34.596C120.007 35.0548 120.876 36.0233 120.953 37.4659C121.023 38.7912 120.149 39.9606 118.672 40.5243L118.55 40.5723L118.461 40.6069V40.6396C118.462 40.6457 118.462 40.6518 118.461 40.6579C118.455 40.6842 118.461 40.7114 118.476 40.7344C119.643 42.0937 120.81 43.453 121.98 44.8124C122.146 45.004 122.328 45.1855 122.473 45.3374C122.521 45.3853 122.569 45.4393 122.615 45.4832C122.903 45.7748 123.202 46.0847 123.661 46.2203Z" fill="white"/>
<path d="M94.2109 34.2966V46.0838H92.6152V40.2243H85.2337V46.0766H83.6392V34.2894H85.2337V39.3173H92.6152V34.2966H94.2109Z" fill="white"/>
<path d="M126.503 38.4133C126.162 39.753 126.235 41.0416 126.712 42.2456C127.45 44.1097 129.035 45.1831 131.42 45.4351C132.419 45.5421 133.431 45.4787 134.404 45.2484C134.681 45.1831 134.838 45.0831 134.828 44.7678C134.8 43.9414 134.788 43.1006 134.776 42.2864L134.763 41.4538C134.763 41.4251 134.766 41.3965 134.771 41.3681C134.77 41.3641 134.77 41.3599 134.771 41.3559H136.384V45.6739C133.331 46.5126 130.834 46.5218 128.533 45.7075C124.615 44.3189 123.73 40.7304 124.887 38.0552C125.796 35.9441 127.639 34.6881 130.508 34.2035C131.081 34.108 131.662 34.0609 132.245 34.0627C133.356 34.0786 134.461 34.2039 135.542 34.4361L136.088 34.5463L136.316 34.5922L136.498 35.9666C136.467 35.9568 136.439 35.9434 136.412 35.9268C135.622 35.3572 134.657 35.0164 133.647 34.9493C132.568 34.8656 131.313 34.8003 130.095 35.0891C128.153 35.5513 126.943 36.6696 126.503 38.4133Z" fill="white"/>
<path d="M148.755 45.9076C148.682 45.7508 148.611 45.6001 148.556 45.4505L148.442 45.1359C147.836 43.4963 147.209 41.8054 146.605 40.1371C145.868 38.1029 145.193 36.2102 144.542 34.3543C144.455 34.1073 144.345 34.0366 144.103 34.0745C144.009 34.0889 143.913 34.0889 143.819 34.0745C143.545 34.0284 143.413 34.1114 143.296 34.4025C142.423 36.5801 141.519 38.7895 140.643 40.9251L140.529 41.1895C140.064 42.327 139.594 43.4659 139.122 44.6061L138.511 46.0838H138.745C139.056 46.0838 139.38 46.0838 139.702 46.0715C139.755 46.0715 139.856 45.9691 139.891 45.8789C140.444 44.4708 140.942 43.1817 141.414 41.9397C141.504 41.7029 141.658 41.6619 141.881 41.6589C142.873 41.6681 144.026 41.6753 145.164 41.6589C145.482 41.6589 145.629 41.747 145.721 42.0145C146.07 43.0269 146.436 44.064 146.792 45.058C146.912 45.3962 147.031 45.7334 147.152 46.0736H148.831L148.755 45.9076ZM141.874 40.8555L143.689 36.2214L145.287 40.8555H141.874Z" fill="white"/>
<path d="M169.471 45.1091L169.127 46.0838H161.165V34.2894H168.434L168.569 35.1256H162.735V39.3139H167.279V40.1861H162.743V45.2404L169.471 45.1091Z" fill="white"/>
<path d="M177.767 43.485C177.671 44.8659 176.342 46.0281 174.606 46.2448C173.22 46.4206 171.869 46.2448 170.478 45.7143L170.975 44.5163L170.999 44.5327C171.043 44.5616 171.085 44.5927 171.125 44.6257C172.126 45.4843 173.825 45.7276 175.081 45.1899C175.359 45.0873 175.607 44.9311 175.809 44.7323C176.011 44.5336 176.161 44.2974 176.248 44.0406C176.335 43.7838 176.358 43.5129 176.314 43.2473C176.271 42.9818 176.162 42.7282 175.996 42.5047C175.618 41.9375 175.066 41.5623 174.576 41.269C174.348 41.1351 174.119 41.0032 173.896 40.8714C173.285 40.5156 172.653 40.1487 172.077 39.7378C170.995 38.9671 170.516 37.9214 170.653 36.6295C170.787 35.3651 171.99 34.3347 173.579 34.1262C174.502 34.0102 175.442 34.0532 176.348 34.253L176.919 34.3746L177.148 34.4226L176.714 35.5766C176 35.1445 175.144 34.938 174.284 34.9899C173.913 35.0128 173.548 35.0788 173.197 35.1862C172.901 35.2836 172.638 35.4452 172.429 35.6564C172.221 35.8677 172.075 36.122 172.004 36.3964C171.934 36.647 171.938 36.9095 172.017 37.1581C172.095 37.4066 172.244 37.6327 172.449 37.8141C172.879 38.1993 173.343 38.5521 173.838 38.869C174.181 39.0898 174.545 39.2942 174.897 39.4925C175.303 39.7214 175.722 39.9586 176.113 40.2182C177.308 41.0104 177.863 42.1092 177.767 43.485Z" fill="white"/>
<path d="M81.8772 35.1186H76.931V46.0838H75.3073V35.1197H70.5503L70.6887 34.2894H81.7365L81.8772 35.1186Z" fill="white"/>
<path d="M159.403 35.1277H154.563V46.0838H152.979V35.1277H148.328L148.461 34.2894H159.262L159.403 35.1277Z" fill="white"/>
<path d="M61.4712 34.1305V52.212L60.9581 38.0543L61.1987 38.0727V35.4514L60.9079 35.4177V34.3522L60.6798 34.3225V35.4718L59.9887 35.5739L60.0104 34.3869L48.4924 35.8937V50.7992L59.9534 53.0548V51.6706L60.6558 51.593V54.6811L63.4818 54.2449V34.4012L61.4712 34.1305ZM49.4423 41.5643L58.919 41.4448V42.6584L49.4423 42.5297V41.5643ZM49.4423 43.5819L58.919 43.9221V45.1091L49.4423 44.5473V43.5819ZM49.4423 45.5229L58.919 46.1716V47.5302L49.4423 46.5567V45.5229ZM49.4423 47.4894L58.8951 48.6693V49.934L49.4423 48.4415V47.4894ZM58.9304 51.8116L49.448 50.0228V49.3813L58.9304 50.98V51.8116ZM58.9304 40.2251L49.472 40.6266V39.7072L58.9304 39.1688V40.2251ZM58.9304 37.947L49.472 38.6519V37.8255L58.9304 36.8918V37.947ZM58.9304 36.0469L49.4765 37.2125V36.6282L58.935 35.4023L58.9304 36.0469ZM60.6 49.2444L59.9408 49.1259L60.007 37.9368L60.6912 37.9899L60.6 49.2444ZM61.77 32.7892L62.8352 32.9537L63.5023 33.4644V34.1938L61.4382 33.9098L61.3823 33.6248L61.2546 33.7985L60.6365 34.0927V33.3388L61.77 32.7892ZM30.1308 30.5459L30.1742 32.2324L28.7623 31.8167V30.1546L28.2822 30.0923V31.6532L27.6596 31.5817V35.4422L28.175 35.483L27.062 56.383V29.4988L22.2837 28.8542V60.6L28.8159 59.5927V55.1265L30.2449 54.9672V56.9204L46.7555 50.9463V35.7251L30.1308 30.5459ZM32.2109 32.402L45.7064 36.3095V36.9224L32.2109 33.2765V32.402ZM32.2109 34.4237L45.7064 37.5599V38.4261L32.2109 35.8722V34.4237ZM32.2109 37.5323L45.7064 39.5253V40.4897L32.2109 38.9778V37.5323ZM28.922 51.7186L28.7418 35.4595L30.1308 35.578L30.2631 51.3825L28.922 51.7186ZM45.7337 50.3068L32.212 54.7874V53.6596L45.7337 49.6418V50.3068ZM45.7406 48.655L32.2759 52.2192V50.4927L45.7406 47.66V48.655ZM45.7406 46.6772L32.2406 48.9369V47.0981L45.7451 45.6138L45.7406 46.6772ZM45.7406 44.5841L32.2406 45.6404V44.0202L45.7451 43.5788L45.7406 44.5841ZM45.7406 42.4756L32.236 42.2927V40.6388L45.7406 41.4663V42.4756ZM28.8467 28.7571V29.8461L27.5307 29.1136L27.2502 28.7918L27.1259 29.1862L22.2222 28.5099V27.3412L23.8917 26.9479L26.3903 27.3331L28.8467 28.7571ZM49.237 21.3488C49.3511 21.1843 50.0604 20.1812 51.3445 20.0208C52.713 19.8522 54.1955 20.7216 54.7474 22.1803C56.344 21.357 58.18 21.5807 59.1072 22.5481C59.8906 23.3653 59.7618 24.4462 59.7253 24.6934C59.2847 23.9327 58.5502 23.3415 57.6589 23.0303C55.9893 22.4654 54.5319 23.1856 54.3312 23.2898C54.2559 23.1059 53.655 21.7125 51.9729 21.2109C51.0729 20.9547 50.0992 21.0037 49.237 21.3488ZM34.1005 24.3634C35.4382 24.0089 36.5262 24.6699 36.6664 24.7557C36.744 24.6076 37.3233 23.5543 38.6838 23.2468C39.4147 23.0897 40.1844 23.175 40.8506 23.4869C40.7502 23.3132 40.2906 22.5675 39.3737 22.352C38.2892 22.1007 36.9892 22.6983 36.3745 23.871C35.2854 23.1559 33.8953 23.1866 33.0924 23.8485C32.3421 24.4676 32.3877 25.4023 32.3968 25.5535C32.7822 24.9828 33.3887 24.5591 34.1005 24.3634Z" fill="url(#paint0_linear_2005_32)"/>
<path d="M61.4712 34.1305V52.212L60.9581 38.0543L61.1987 38.0727V35.4514L60.9079 35.4177V34.3522L60.6798 34.3225V35.4718L59.9887 35.5739L60.0104 34.3869L48.4924 35.8937V50.7992L59.9534 53.0548V51.6706L60.6558 51.593V54.6811L63.4818 54.2449V34.4012L61.4712 34.1305ZM49.4423 41.5643L58.919 41.4448V42.6584L49.4423 42.5297V41.5643ZM49.4423 43.5819L58.919 43.9221V45.1091L49.4423 44.5473V43.5819ZM49.4423 45.5229L58.919 46.1716V47.5302L49.4423 46.5567V45.5229ZM49.4423 47.4894L58.8951 48.6693V49.934L49.4423 48.4415V47.4894ZM58.9304 51.8116L49.448 50.0228V49.3813L58.9304 50.98V51.8116ZM58.9304 40.2251L49.472 40.6266V39.7072L58.9304 39.1688V40.2251ZM58.9304 37.947L49.472 38.6519V37.8255L58.9304 36.8918V37.947ZM58.9304 36.0469L49.4765 37.2125V36.6282L58.935 35.4023L58.9304 36.0469ZM60.6 49.2444L59.9408 49.1259L60.007 37.9368L60.6912 37.9899L60.6 49.2444ZM61.77 32.7892L62.8352 32.9537L63.5023 33.4644V34.1938L61.4382 33.9098L61.3823 33.6248L61.2546 33.7985L60.6365 34.0927V33.3388L61.77 32.7892ZM30.1308 30.5459L30.1742 32.2324L28.7623 31.8167V30.1546L28.2822 30.0923V31.6532L27.6596 31.5817V35.4422L28.175 35.483L27.062 56.383V29.4988L22.2837 28.8542V60.6L28.8159 59.5927V55.1265L30.2449 54.9672V56.9204L46.7555 50.9463V35.7251L30.1308 30.5459ZM32.2109 32.402L45.7064 36.3095V36.9224L32.2109 33.2765V32.402ZM32.2109 34.4237L45.7064 37.5599V38.4261L32.2109 35.8722V34.4237ZM32.2109 37.5323L45.7064 39.5253V40.4897L32.2109 38.9778V37.5323ZM28.922 51.7186L28.7418 35.4595L30.1308 35.578L30.2631 51.3825L28.922 51.7186ZM45.7337 50.3068L32.212 54.7874V53.6596L45.7337 49.6418V50.3068ZM45.7406 48.655L32.2759 52.2192V50.4927L45.7406 47.66V48.655ZM45.7406 46.6772L32.2406 48.9369V47.0981L45.7451 45.6138L45.7406 46.6772ZM45.7406 44.5841L32.2406 45.6404V44.0202L45.7451 43.5788L45.7406 44.5841ZM45.7406 42.4756L32.236 42.2927V40.6388L45.7406 41.4663V42.4756ZM28.8467 28.7571V29.8461L27.5307 29.1136L27.2502 28.7918L27.1259 29.1862L22.2222 28.5099V27.3412L23.8917 26.9479L26.3903 27.3331L28.8467 28.7571ZM49.237 21.3488C49.3511 21.1843 50.0604 20.1812 51.3445 20.0208C52.713 19.8522 54.1955 20.7216 54.7474 22.1803C56.344 21.357 58.18 21.5807 59.1072 22.5481C59.8906 23.3653 59.7618 24.4462 59.7253 24.6934C59.2847 23.9327 58.5502 23.3415 57.6589 23.0303C55.9893 22.4654 54.5319 23.1856 54.3312 23.2898C54.2559 23.1059 53.655 21.7125 51.9729 21.2109C51.0729 20.9547 50.0992 21.0037 49.237 21.3488ZM34.1005 24.3634C35.4382 24.0089 36.5262 24.6699 36.6664 24.7557C36.744 24.6076 37.3233 23.5543 38.6838 23.2468C39.4147 23.0897 40.1844 23.175 40.8506 23.4869C40.7502 23.3132 40.2906 22.5675 39.3737 22.352C38.2892 22.1007 36.9892 22.6983 36.3745 23.871C35.2854 23.1559 33.8953 23.1866 33.0924 23.8485C32.3421 24.4676 32.3877 25.4023 32.3968 25.5535C32.7822 24.9828 33.3887 24.5591 34.1005 24.3634Z" fill="#C3B6A2"/>
<defs>
<linearGradient id="paint0_linear_2005_32" x1="22.2176" y1="40.3017" x2="63.5068" y2="40.3017" gradientUnits="userSpaceOnUse">
<stop stop-color="#DDBD91"/>
<stop offset="1" stop-color="#A07A53"/>
</linearGradient>
</defs>
</svg>
