<svg width="300" height="87" viewBox="0 0 300 87" fill="none" xmlns="http://www.w3.org/2000/svg">
<path d="M175.51 66.0587C175.402 65.951 175.275 65.8675 175.136 65.8135C174.997 65.7594 174.849 65.7358 174.701 65.7443C173.806 65.7493 172.911 65.8041 172.021 65.9085V66.6343L172.9 66.5673C173.364 66.5303 173.79 66.5118 174.17 66.5118C174.237 66.5106 174.304 66.5235 174.366 66.5498C174.428 66.5762 174.485 66.6154 174.533 66.6651C174.58 66.7149 174.618 66.7742 174.644 66.8396C174.669 66.905 174.682 66.9751 174.681 67.0458V67.6283H172.687C172.539 67.6167 172.391 67.6386 172.252 67.6924C172.114 67.7463 171.987 67.8308 171.882 67.9403C171.777 68.0499 171.696 68.1819 171.643 68.3274C171.591 68.473 171.568 68.6287 171.578 68.7841V69.1979C171.568 69.3534 171.589 69.5095 171.642 69.6554C171.694 69.8013 171.775 69.9336 171.881 70.0433C171.986 70.1531 172.113 70.2376 172.252 70.2911C172.391 70.3447 172.539 70.366 172.687 70.3537H172.995C173.223 70.3446 173.449 70.3025 173.667 70.2288C173.946 70.1413 174.211 70.0096 174.453 69.8382L174.706 69.6625L174.822 70.2612H175.804V66.8886C175.81 66.7365 175.788 66.5847 175.737 66.4421C175.686 66.2995 175.609 66.1691 175.51 66.0587ZM174.688 69.2742L174.541 69.3204C174.186 69.4402 173.816 69.5049 173.443 69.5123H173.223C173.156 69.5132 173.09 69.5 173.027 69.4735C172.965 69.4471 172.909 69.4078 172.861 69.3581C172.814 69.3083 172.776 69.2491 172.751 69.1839C172.726 69.1187 172.713 69.0487 172.713 68.9783V68.8858C172.712 68.8151 172.725 68.745 172.75 68.6795C172.776 68.614 172.813 68.5545 172.861 68.5045C172.908 68.4545 172.965 68.4151 173.027 68.3884C173.089 68.3618 173.156 68.3486 173.223 68.3495H174.695L174.688 69.2742ZM179.916 69.5053V70.2913C179.424 70.3398 178.934 70.3652 178.457 70.3652C178.31 70.3758 178.163 70.3532 178.025 70.2989C177.887 70.2445 177.762 70.1597 177.658 70.0502C177.554 69.9407 177.474 69.809 177.422 69.664C177.37 69.5189 177.349 69.3639 177.359 69.2094V66.6482H176.834V65.8368H177.328L177.502 64.7342H178.479V65.8368H179.577V66.6482H178.479V68.9783C178.478 69.0489 178.49 69.1191 178.516 69.1843C178.542 69.2496 178.58 69.3085 178.629 69.3574C178.675 69.4076 178.732 69.4472 178.793 69.4739C178.855 69.5005 178.922 69.5136 178.989 69.5123L179.916 69.5053ZM184.983 68.4813V66.9926C185 66.8232 184.981 66.6519 184.927 66.4913C184.873 66.3308 184.785 66.1849 184.67 66.0646C184.556 65.9442 184.417 65.8524 184.264 65.7958C184.112 65.7391 183.949 65.7192 183.788 65.7374H182.031C181.87 65.7192 181.707 65.7391 181.555 65.7957C181.402 65.8523 181.264 65.9442 181.149 66.0646C181.035 66.185 180.947 66.3309 180.894 66.4915C180.84 66.6521 180.821 66.8233 180.838 66.9926V69.2025C180.828 69.357 180.85 69.512 180.901 69.657C180.953 69.8021 181.033 69.9338 181.138 70.0433C181.242 70.1528 181.367 70.2376 181.505 70.2919C181.642 70.3463 181.79 70.3689 181.936 70.3583C182.791 70.3583 183.751 70.3051 184.792 70.1942V69.4729C183.788 69.5492 183.004 69.5908 182.461 69.5908C182.394 69.5918 182.328 69.5789 182.266 69.5527C182.203 69.5265 182.147 69.4876 182.099 69.4383C182.051 69.3884 182.013 69.329 181.988 69.2635C181.962 69.198 181.949 69.1277 181.95 69.0569V68.4975L184.983 68.4813ZM181.965 67.0388C181.959 66.9605 181.969 66.8817 181.994 66.8079C182.02 66.7341 182.061 66.6672 182.114 66.6118C182.167 66.5564 182.231 66.514 182.301 66.4876C182.371 66.4611 182.446 66.4512 182.521 66.4586H183.318C183.392 66.4515 183.467 66.4616 183.537 66.4883C183.607 66.5149 183.67 66.5574 183.723 66.6128C183.775 66.6682 183.816 66.7351 183.841 66.8087C183.866 66.8823 183.876 66.9608 183.869 67.0388V67.7601H181.976L181.965 67.0388ZM170.523 67.025V70.1549C169.344 70.2881 168.158 70.3582 166.972 70.3652C166.458 70.3652 166.093 70.2427 165.858 70.0046C165.623 69.7665 165.515 69.3735 165.515 68.8326V65.8923C165.515 65.3097 165.634 64.889 165.869 64.6417C166.104 64.3943 166.504 64.2672 167.057 64.2672H169.999V65.1248H167.409C167.31 65.113 167.211 65.1248 167.117 65.1592C167.023 65.1936 166.938 65.2497 166.868 65.3235C166.798 65.3972 166.745 65.4867 166.712 65.5852C166.68 65.6837 166.668 65.7886 166.68 65.8923V68.8326C166.677 68.922 166.691 69.0111 166.721 69.0945C166.752 69.178 166.798 69.254 166.858 69.3181C166.918 69.3811 166.991 69.4303 167.071 69.4625C167.15 69.4947 167.236 69.5093 167.321 69.5053C167.995 69.5053 168.615 69.4915 169.166 69.4591H169.359V67.7069H168.222V67.0342L170.523 67.025ZM190.309 68.8326V69.2025C190.32 69.3571 190.299 69.5123 190.247 69.6575C190.196 69.8027 190.115 69.9346 190.011 70.0442C189.907 70.1538 189.782 70.2385 189.644 70.2927C189.506 70.3469 189.358 70.3693 189.211 70.3583C188.24 70.3583 187.195 70.3028 186.097 70.1919V69.4244C187.166 69.503 188.038 69.5446 188.686 69.5446C188.754 69.5465 188.821 69.534 188.883 69.5079C188.946 69.4818 189.003 69.4426 189.051 69.3927C189.098 69.3428 189.136 69.2832 189.161 69.2175C189.187 69.1519 189.199 69.0815 189.198 69.0106V68.4975H187.116C186.969 68.5081 186.822 68.4854 186.684 68.4311C186.546 68.3768 186.421 68.292 186.317 68.1825C186.213 68.0729 186.132 67.9412 186.081 67.7962C186.029 67.6511 186.007 67.4962 186.018 67.3417V67.0203C186.007 66.8658 186.029 66.7108 186.081 66.5658C186.132 66.4208 186.213 66.289 186.317 66.1795C186.421 66.07 186.546 65.9852 186.684 65.9309C186.822 65.8766 186.969 65.8539 187.116 65.8645H189.881V66.6297H187.641C187.573 66.629 187.506 66.6425 187.443 66.6695C187.381 66.6965 187.324 66.7364 187.276 66.7869C187.228 66.8362 187.191 66.8953 187.165 66.9605C187.14 67.0256 187.128 67.0956 187.129 67.166C187.128 67.237 187.14 67.3076 187.166 67.3735C187.191 67.4394 187.228 67.4993 187.276 67.5497C187.374 67.6493 187.505 67.7042 187.641 67.7023H189.211C189.36 67.6946 189.508 67.7187 189.647 67.7731C189.787 67.8276 189.914 67.9112 190.022 68.019C190.119 68.1288 190.195 68.258 190.244 68.3989C190.293 68.5397 190.316 68.6895 190.309 68.8396V68.8326ZM138.536 64.7434C138.237 64.4267 137.783 64.2672 137.181 64.2672H133.98V70.2774H137.192C137.794 70.2774 138.248 70.1179 138.547 69.8151C138.846 69.5122 138.997 69.0222 138.997 68.3888V66.1858C138.986 65.5432 138.835 65.0647 138.536 64.7503V64.7434ZM137.822 68.3726C137.822 69.036 137.462 69.4152 136.832 69.4152H135.142V65.1248H136.832C137.462 65.1248 137.822 65.5039 137.822 66.1674V68.3726ZM149.857 66.061C149.739 65.9467 149.6 65.8586 149.449 65.8022C149.298 65.7458 149.138 65.7222 148.978 65.7328H146.971C146.811 65.7225 146.65 65.7462 146.499 65.8026C146.348 65.859 146.21 65.9469 146.092 66.061C145.983 66.1846 145.899 66.3304 145.845 66.4894C145.791 66.6484 145.769 66.8173 145.78 66.9857V69.1031C145.763 69.2725 145.782 69.4438 145.836 69.6044C145.89 69.7649 145.978 69.9107 146.093 70.0311C146.207 70.1514 146.346 70.2433 146.499 70.2999C146.651 70.3565 146.814 70.3765 146.975 70.3583H148.983C149.143 70.3765 149.306 70.3565 149.459 70.2999C149.612 70.2433 149.75 70.1514 149.865 70.0311C149.979 69.9107 150.067 69.7649 150.121 69.6044C150.175 69.4438 150.194 69.2725 150.177 69.1031V66.9857C150.185 66.8185 150.161 66.6515 150.106 66.4945C150.051 66.3376 149.966 66.194 149.857 66.0726V66.061ZM149.046 68.9667C149.053 69.0449 149.043 69.1237 149.018 69.1975C148.992 69.2713 148.952 69.3383 148.899 69.3937C148.846 69.4491 148.782 69.4916 148.712 69.518C148.642 69.5445 148.567 69.5544 148.493 69.5469H147.447C147.373 69.5548 147.298 69.5452 147.227 69.5188C147.157 69.4925 147.092 69.4501 147.039 69.3947C146.986 69.3392 146.945 69.2721 146.92 69.1981C146.894 69.1241 146.885 69.0451 146.891 68.9667V67.1174C146.885 67.039 146.894 66.96 146.92 66.886C146.945 66.812 146.986 66.7449 147.039 66.6895C147.092 66.634 147.157 66.5916 147.227 66.5653C147.298 66.539 147.373 66.5294 147.447 66.5372H148.493C148.567 66.5298 148.642 66.5396 148.712 66.5661C148.782 66.5926 148.846 66.635 148.899 66.6904C148.952 66.7458 148.992 66.8128 149.018 66.8866C149.043 66.9604 149.053 67.0392 149.046 67.1174V68.9667ZM144.267 66.061C144.149 65.9469 144.01 65.859 143.859 65.8026C143.708 65.7462 143.548 65.7225 143.388 65.7328H141.365C141.204 65.7146 141.041 65.7345 140.889 65.7912C140.736 65.8478 140.597 65.9396 140.483 66.06C140.368 66.1803 140.281 66.3261 140.227 66.4867C140.172 66.6473 140.153 66.8185 140.17 66.988V69.1054C140.153 69.2748 140.172 69.4461 140.227 69.6067C140.281 69.7672 140.368 69.9131 140.483 70.0334C140.597 70.1538 140.736 70.2456 140.889 70.3022C141.041 70.3589 141.204 70.3788 141.365 70.3606H143.375C143.536 70.3788 143.699 70.3589 143.851 70.3022C144.004 70.2456 144.143 70.1538 144.257 70.0334C144.372 69.9131 144.459 69.7672 144.513 69.6067C144.567 69.4461 144.587 69.2748 144.57 69.1054V66.988C144.58 66.8218 144.558 66.6552 144.506 66.498C144.454 66.3408 144.373 66.1961 144.267 66.0726V66.061ZM143.456 68.9667C143.463 69.0448 143.454 69.1235 143.429 69.1973C143.404 69.2712 143.363 69.3382 143.31 69.3937C143.258 69.4491 143.194 69.4916 143.124 69.5181C143.054 69.5446 142.979 69.5545 142.905 69.5469H141.855C141.781 69.5545 141.706 69.5446 141.636 69.5181C141.566 69.4916 141.502 69.4491 141.449 69.3937C141.397 69.3382 141.356 69.2712 141.331 69.1973C141.306 69.1235 141.296 69.0448 141.304 68.9667V67.1174C141.296 67.0394 141.306 66.9606 141.331 66.8868C141.356 66.813 141.397 66.746 141.449 66.6905C141.502 66.635 141.566 66.5925 141.636 66.566C141.706 66.5395 141.781 66.5297 141.855 66.5372H142.903C142.977 66.5297 143.052 66.5395 143.122 66.566C143.192 66.5925 143.256 66.635 143.308 66.6905C143.361 66.746 143.401 66.813 143.427 66.8868C143.452 66.9606 143.461 67.0394 143.454 67.1174L143.456 68.9667ZM154.439 65.7305V66.7268H153.9C153.478 66.7341 153.062 66.8341 152.679 67.0203L152.561 67.0781V70.2658H151.438V65.8229H152.413L152.532 66.6251L152.809 66.3662C153.199 65.9756 153.712 65.7494 154.25 65.7305H154.439ZM161.687 69.3158V70.3467L161.169 71.2067H160.793L161.142 70.282H160.523V69.3319L161.687 69.3158ZM159.589 68.8257V69.1956C159.599 69.3501 159.578 69.5051 159.526 69.6501C159.475 69.7951 159.394 69.9269 159.29 70.0364C159.186 70.1459 159.061 70.2307 158.923 70.285C158.785 70.3393 158.638 70.362 158.491 70.3514C157.52 70.3514 156.47 70.2959 155.374 70.1849V69.4175C156.446 69.4961 157.316 69.5377 157.966 69.5377C158.033 69.5391 158.1 69.5263 158.162 69.5001C158.224 69.4739 158.281 69.4348 158.329 69.3851C158.376 69.335 158.413 69.2755 158.439 69.21C158.464 69.1445 158.477 69.0744 158.476 69.0037V68.4975H156.391C156.244 68.5081 156.097 68.4854 155.959 68.4311C155.822 68.3768 155.696 68.292 155.592 68.1825C155.488 68.0729 155.408 67.9412 155.356 67.7962C155.304 67.6511 155.283 67.4962 155.293 67.3417V67.0203C155.283 66.8658 155.304 66.7108 155.356 66.5658C155.408 66.4208 155.488 66.289 155.592 66.1795C155.696 66.07 155.822 65.9852 155.959 65.9309C156.097 65.8766 156.244 65.8539 156.391 65.8645H159.161V66.6297H156.916C156.849 66.6294 156.783 66.6431 156.721 66.6699C156.659 66.6968 156.603 66.7363 156.556 66.7862C156.509 66.8361 156.472 66.8953 156.446 66.9605C156.421 67.0257 156.408 67.0956 156.409 67.166C156.408 67.237 156.42 67.3076 156.445 67.3735C156.471 67.4394 156.508 67.4993 156.556 67.5497C156.603 67.5992 156.66 67.6382 156.721 67.6644C156.783 67.6906 156.85 67.7035 156.916 67.7023H158.498C158.644 67.6921 158.792 67.7149 158.929 67.7694C159.067 67.8239 159.192 67.9087 159.296 68.0181C159.4 68.1276 159.48 68.2591 159.532 68.4039C159.584 68.5488 159.606 68.7037 159.596 68.8581L159.589 68.8257ZM240.135 64.1678V65.03H239.017V64.1724L240.135 64.1678ZM244.605 64.2603V65.8229H242.623C242.463 65.8126 242.303 65.8364 242.152 65.8928C242.001 65.9492 241.863 66.0371 241.745 66.1512C241.636 66.2747 241.552 66.4205 241.498 66.5795C241.444 66.7386 241.422 66.9074 241.433 67.0758V69.1933C241.423 69.3478 241.444 69.5027 241.496 69.6478C241.547 69.7928 241.628 69.9245 241.732 70.0341C241.836 70.1436 241.961 70.2283 242.099 70.2827C242.237 70.337 242.384 70.3597 242.531 70.3491H242.922C243.15 70.3403 243.377 70.2983 243.594 70.2242C243.874 70.1363 244.14 70.0046 244.383 69.8336L244.635 69.6579L244.75 70.2566H245.731V64.2464L244.605 64.2603ZM244.605 69.214L244.46 69.2603C244.104 69.3799 243.734 69.4453 243.361 69.4545H243.063C242.995 69.4559 242.928 69.4427 242.866 69.4157C242.803 69.3886 242.747 69.3483 242.7 69.2973C242.652 69.2484 242.613 69.1895 242.588 69.1242C242.562 69.0589 242.549 68.9888 242.551 68.9182V67.2168C242.544 67.1383 242.554 67.0592 242.579 66.9851C242.605 66.9111 242.646 66.8438 242.699 66.7882C242.752 66.7326 242.816 66.69 242.886 66.6634C242.957 66.6368 243.032 66.6268 243.107 66.6343H244.62L244.605 69.214ZM240.135 66.0055V70.2658H239.017V66.8331H238.358V66.0194L240.135 66.0055ZM237.429 68.3657V68.828C237.429 69.3689 237.312 69.7527 237.086 70C236.86 70.2473 236.482 70.3606 235.972 70.3606C235.68 70.3606 235.366 70.3606 235.034 70.3421L234.233 70.3074C233.721 70.2797 233.167 70.2404 232.583 70.1919V69.3759C234.05 69.4614 235.072 69.5007 235.621 69.5007C235.706 69.5044 235.791 69.4897 235.871 69.4575C235.951 69.4253 236.023 69.3763 236.084 69.3135C236.144 69.2495 236.19 69.1735 236.22 69.0899C236.25 69.0064 236.264 68.9173 236.26 68.828V67.804H234.057C233.503 67.804 233.104 67.6768 232.866 67.4272C232.629 67.1775 232.511 66.7591 232.511 66.1789V65.9038C232.511 65.3213 232.631 64.9006 232.866 64.6533C233.101 64.4059 233.503 64.2788 234.057 64.2788H236.912V65.1364H234.397C234.299 65.1249 234.2 65.137 234.106 65.1716C234.013 65.2061 233.928 65.2623 233.858 65.336C233.789 65.4098 233.736 65.4991 233.703 65.5974C233.67 65.6957 233.659 65.8004 233.67 65.9038V66.0887C233.66 66.192 233.671 66.2965 233.704 66.3945C233.736 66.4925 233.79 66.5815 233.859 66.6549C233.929 66.7284 234.014 66.7844 234.107 66.8188C234.2 66.8533 234.299 66.8653 234.397 66.8539H235.972C236.482 66.8539 236.851 66.9741 237.086 67.2145C237.321 67.4549 237.442 67.841 237.442 68.3796L237.429 68.3657ZM248.609 66.0055V70.2658H247.489V66.8331H246.83V66.0194L248.609 66.0055ZM248.609 64.1562V65.03H247.489V64.1724L248.609 64.1562ZM256.674 65.8114C256.513 65.7932 256.351 65.8131 256.198 65.8698C256.045 65.9264 255.906 66.0182 255.792 66.1386C255.677 66.2589 255.59 66.4047 255.536 66.5653C255.482 66.7259 255.462 66.8972 255.479 67.0666V68.9159C255.469 69.0704 255.491 69.2254 255.542 69.3704C255.594 69.5154 255.675 69.6472 255.779 69.7567C255.883 69.8662 256.008 69.951 256.146 70.0053C256.283 70.0596 256.431 70.0823 256.578 70.0717H256.9C257.387 70.0632 257.871 70.0028 258.346 69.8914L258.592 69.8382V70.5779C258.593 70.649 258.581 70.7197 258.556 70.7857C258.53 70.8516 258.493 70.9115 258.445 70.9616C258.397 71.0114 258.34 71.0507 258.278 71.0773C258.216 71.1039 258.149 71.1172 258.082 71.1165C257.537 71.1165 256.753 71.0749 255.752 70.994V71.7661C256.793 71.8724 257.753 71.9302 258.607 71.9302C258.755 71.941 258.903 71.9181 259.042 71.8631C259.181 71.8081 259.306 71.7222 259.411 71.6114C259.515 71.5006 259.595 71.3675 259.646 71.221C259.697 71.0746 259.717 70.9183 259.705 70.7628V65.8299L256.674 65.8114ZM258.583 69.1331L258.414 69.1632C258.056 69.2281 257.692 69.2598 257.329 69.258H257.109C257.042 69.2593 256.975 69.2463 256.913 69.2197C256.851 69.1931 256.794 69.1534 256.747 69.1031C256.7 69.0533 256.662 68.9941 256.637 68.929C256.612 68.864 256.599 68.7943 256.6 68.724V67.2053C256.592 67.1271 256.602 67.0483 256.627 66.9744C256.652 66.9005 256.693 66.8333 256.745 66.7777C256.798 66.722 256.861 66.6793 256.932 66.6525C257.002 66.6258 257.077 66.6156 257.151 66.6227H258.581L258.583 69.1331ZM254.287 66.8816V70.2543H253.166V67.159C253.168 67.0883 253.155 67.018 253.13 66.9524C253.105 66.8869 253.067 66.8274 253.019 66.7776C252.971 66.7275 252.915 66.6879 252.852 66.6613C252.789 66.6347 252.722 66.6216 252.655 66.6227H252.352C251.979 66.6321 251.609 66.6975 251.253 66.8169L251.108 66.8608V70.2543H249.988V65.8114H250.97L251.084 66.4101L251.335 66.2344C251.578 66.0651 251.844 65.9335 252.123 65.8437C252.341 65.77 252.567 65.728 252.795 65.7189H253.188C253.337 65.7109 253.485 65.7347 253.624 65.7887C253.764 65.8427 253.891 65.9259 253.999 66.0333C254.105 66.1485 254.186 66.2859 254.238 66.4364C254.29 66.587 254.311 66.7473 254.3 66.9071L254.287 66.8816ZM192.394 69.3042V70.3467L191.873 71.2067H191.502L191.851 70.282H191.228V69.3319L192.394 69.3042ZM205.542 68.4628V66.9741C205.557 66.8052 205.536 66.6351 205.481 66.4757C205.426 66.3163 205.338 66.1715 205.224 66.0518C205.11 65.932 204.973 65.8401 204.821 65.7825C204.669 65.725 204.508 65.7033 204.347 65.7189H202.59C202.43 65.7086 202.27 65.7323 202.119 65.7887C201.968 65.8451 201.829 65.933 201.711 66.0472C201.602 66.1707 201.518 66.3165 201.465 66.4755C201.411 66.6345 201.389 66.8034 201.4 66.9718V69.1817C201.389 69.3362 201.411 69.4912 201.463 69.6362C201.514 69.7813 201.595 69.913 201.699 70.0225C201.803 70.132 201.928 70.2168 202.066 70.2711C202.204 70.3255 202.351 70.3481 202.498 70.3375C203.35 70.3375 204.31 70.2843 205.353 70.1734V69.4521C204.352 69.5284 203.567 69.57 203.025 69.57C202.889 69.5717 202.758 69.5169 202.66 69.4175C202.613 69.3675 202.575 69.308 202.55 69.2425C202.525 69.177 202.512 69.1068 202.513 69.036V68.4975L205.542 68.4628ZM202.526 67.0203C202.52 66.942 202.53 66.8632 202.556 66.7894C202.581 66.7156 202.622 66.6487 202.675 66.5933C202.728 66.538 202.792 66.4955 202.862 66.4691C202.933 66.4426 203.008 66.4327 203.082 66.4401H203.868C203.942 66.4334 204.017 66.4439 204.087 66.4707C204.156 66.4974 204.22 66.54 204.272 66.5952C204.325 66.6505 204.365 66.7172 204.391 66.7906C204.416 66.864 204.426 66.9425 204.42 67.0203V67.7416H202.526V67.0203ZM211.132 66.8816V70.2543H210.01V67.159C210.011 67.0883 209.998 67.0182 209.973 66.9527C209.948 66.8872 209.91 66.8277 209.863 66.7777C209.815 66.7278 209.758 66.6883 209.696 66.6617C209.634 66.635 209.567 66.6218 209.5 66.6227H209.195C208.822 66.6321 208.452 66.6975 208.097 66.8169L207.952 66.8608V70.2543H206.831V65.8114H207.813L207.928 66.4101L208.18 66.2344C208.424 66.0646 208.689 65.9331 208.969 65.8437C209.186 65.7697 209.412 65.7276 209.641 65.7189H210.034C210.181 65.7083 210.328 65.7309 210.466 65.7853C210.604 65.8396 210.729 65.9244 210.833 66.0339C210.937 66.1434 211.018 66.2751 211.069 66.4202C211.121 66.5652 211.142 66.7202 211.132 66.8747V66.8816ZM197.549 65.1063V67.0527H200.126V67.9103H197.549V70.2543H196.383V64.2441H200.824V65.1017L197.549 65.1063ZM213.447 67.2053V68.9991C213.447 69.0696 213.46 69.1395 213.485 69.2047C213.51 69.2699 213.548 69.3291 213.595 69.3789C213.643 69.4286 213.699 69.4679 213.761 69.4943C213.823 69.5208 213.89 69.534 213.957 69.533C214.449 69.533 215.174 69.4961 216.112 69.4152V70.1826C215.222 70.2859 214.327 70.3407 213.432 70.3467C213.284 70.3552 213.136 70.3317 212.997 70.2776C212.858 70.2235 212.731 70.1401 212.624 70.0324C212.521 69.9203 212.441 69.7871 212.39 69.6411C212.338 69.4951 212.316 69.3394 212.325 69.184V67.0666C212.314 66.8982 212.336 66.7293 212.39 66.5703C212.444 66.4113 212.528 66.2655 212.637 66.1419C212.755 66.0279 212.893 65.9401 213.044 65.8837C213.195 65.8273 213.355 65.8035 213.515 65.8137H216.107V66.6482H213.996C213.923 66.6435 213.85 66.6555 213.782 66.6834C213.714 66.7113 213.652 66.7544 213.601 66.8097C213.55 66.8651 213.511 66.9313 213.487 67.004C213.463 67.0767 213.454 67.154 213.46 67.2307L213.447 67.2053ZM226.681 68.8234V69.1933C226.692 69.3479 226.67 69.503 226.619 69.6482C226.567 69.7934 226.487 69.9253 226.383 70.0349C226.279 70.1445 226.153 70.2293 226.015 70.2835C225.877 70.3377 225.73 70.36 225.583 70.3491C224.612 70.3491 223.567 70.2936 222.468 70.1826V69.4152C223.538 69.4938 224.412 69.5354 225.06 69.5354C225.127 69.5369 225.194 69.5242 225.256 69.4979C225.319 69.4717 225.375 69.4325 225.423 69.3826C225.471 69.3327 225.508 69.2733 225.533 69.2078C225.559 69.1422 225.571 69.0721 225.57 69.0014V68.4975H223.487C223.341 68.5084 223.193 68.4861 223.055 68.4319C222.917 68.3777 222.792 68.2929 222.688 68.1833C222.584 68.0737 222.503 67.9418 222.452 67.7966C222.4 67.6514 222.379 67.4963 222.389 67.3417V67.0203C222.379 66.8657 222.4 66.7106 222.452 66.5653C222.503 66.4201 222.584 66.2883 222.688 66.1787C222.792 66.0691 222.917 65.9843 223.055 65.9301C223.193 65.8759 223.341 65.8535 223.487 65.8645H226.253V66.6297H224.012C223.945 66.6287 223.878 66.6421 223.815 66.6691C223.752 66.6961 223.695 66.7362 223.648 66.7869C223.601 66.8366 223.564 66.8958 223.539 66.961C223.514 67.0261 223.502 67.0958 223.503 67.166C223.501 67.2369 223.513 67.3075 223.538 67.3734C223.563 67.4394 223.6 67.4993 223.648 67.5494C223.696 67.5996 223.753 67.6391 223.815 67.6653C223.878 67.6916 223.945 67.7042 224.012 67.7023H225.583C225.73 67.6917 225.877 67.7143 226.015 67.7686C226.153 67.823 226.278 67.9078 226.382 68.0173C226.486 68.1268 226.566 68.2585 226.618 68.4035C226.67 68.5486 226.691 68.7036 226.681 68.8581V68.8234ZM228.779 69.3135V70.3467L228.258 71.2067H227.907L228.254 70.282H227.632V69.3319L228.779 69.3135ZM221.352 68.472V66.9833C221.37 66.814 221.351 66.6428 221.297 66.4822C221.243 66.3216 221.156 66.1758 221.042 66.0554C220.927 65.935 220.789 65.8431 220.636 65.7865C220.483 65.7298 220.321 65.7099 220.16 65.7282H218.403C218.242 65.7103 218.079 65.7306 217.927 65.7874C217.774 65.8441 217.636 65.936 217.522 66.0563C217.407 66.1766 217.32 66.3223 217.266 66.4827C217.212 66.6431 217.193 66.8141 217.21 66.9833V69.1933C217.2 69.3478 217.221 69.5027 217.273 69.6478C217.325 69.7928 217.405 69.9245 217.509 70.0341C217.613 70.1436 217.738 70.2283 217.876 70.2827C218.014 70.337 218.161 70.3597 218.308 70.3491C219.163 70.3491 220.122 70.2959 221.164 70.1849V69.4637C220.162 69.54 219.378 69.5816 218.833 69.5816C218.766 69.5832 218.699 69.5704 218.637 69.5442C218.574 69.5179 218.518 69.4787 218.47 69.4288C218.423 69.379 218.385 69.3195 218.36 69.254C218.335 69.1885 218.322 69.1183 218.324 69.0476V68.4975L221.352 68.472ZM218.339 67.0296C218.332 66.9515 218.342 66.8729 218.368 66.7993C218.394 66.7257 218.434 66.6588 218.487 66.6035C218.54 66.5482 218.603 66.5057 218.673 66.4791C218.743 66.4525 218.818 66.4423 218.892 66.4494H219.679C219.753 66.4423 219.828 66.4525 219.898 66.4791C219.968 66.5057 220.031 66.5482 220.084 66.6035C220.137 66.6588 220.178 66.7257 220.203 66.7993C220.229 66.8729 220.239 66.9515 220.232 67.0296V67.7508H218.339V67.0296Z" fill="#C3B6A2"/>
<path d="M170.844 43.0787C170.828 42.7523 170.815 42.4674 170.787 42.1804C170.348 37.8509 168.361 34.5293 164.915 32.3076C162.637 30.871 159.995 30.1167 157.302 30.1341C155.16 30.1274 153.044 30.5974 151.108 31.51C146.955 33.4951 144.284 37.3492 143.78 42.084C143.271 46.867 144.911 50.7495 148.656 53.622C151.621 55.8963 155.186 56.7508 159.556 56.2337C166.134 55.4603 170.984 50.0221 170.872 43.5849C170.861 43.4052 170.852 43.2452 170.844 43.0787ZM165.04 50.5721C164.272 51.7469 163.245 52.7306 162.038 53.4479C160.831 54.1653 159.476 54.5973 158.076 54.7109C157.857 54.7285 157.637 54.735 157.418 54.735C156.12 54.7251 154.838 54.4431 153.656 53.9072C152.474 53.3712 151.418 52.5933 150.555 51.6238C148.555 49.4327 147.345 46.5428 147.314 43.9069C147.382 40.1471 147.972 37.8071 149.373 35.8308C152.252 31.7511 157.574 30.6972 162.027 33.3242C164.812 34.9675 166.509 37.4872 167.07 40.7913C167.686 44.3671 167 47.658 165.04 50.5721Z" fill="white"/>
<path d="M195.631 56.1863C193.639 56.6385 191.919 56.2999 190.384 55.1552C188.783 53.958 187.622 52.3785 186.607 50.8493C186.027 49.9754 185.467 49.0688 184.927 48.1906C184.688 47.7973 184.448 47.4085 184.206 47.0174C183.597 46.0452 182.689 44.8721 181.031 44.433C180.68 44.3098 180.356 44.1238 180.075 43.8846C179.963 43.7994 179.851 43.7142 179.728 43.6334L179.786 43.5635C180.077 43.5176 180.373 43.4805 180.669 43.4433C181.347 43.3681 182.02 43.2557 182.685 43.1069C184.416 42.67 185.711 41.7612 186.428 40.4504C187.197 39.0413 187.286 37.1887 186.652 35.4978C186.437 34.8974 186.085 34.3522 185.624 33.9029C185.162 33.4535 184.602 33.1115 183.986 32.9025C182.432 32.3236 180.819 32.3541 179.257 32.3804L178.489 32.3913H178.379V55.8237H175.243V30.7637C176.049 30.7637 176.867 30.7244 177.658 30.6938C180.223 30.589 182.875 30.4754 185.427 31.2771C188.586 32.2602 190.261 34.3356 190.409 37.4269C190.543 40.2669 188.859 42.7727 186.009 43.9808L185.774 44.0835L185.604 44.1577V44.2276C185.605 44.2407 185.605 44.2539 185.604 44.267C185.592 44.3232 185.602 44.3817 185.633 44.4308C187.882 47.3437 190.134 50.2565 192.389 53.1693C192.71 53.5801 193.061 53.9689 193.342 54.2944C193.433 54.3971 193.525 54.5129 193.615 54.6068C194.17 55.2316 194.746 55.8958 195.631 56.1863Z" fill="white"/>
<path d="M138.835 30.6356V55.8939H135.758V43.3378H121.522V55.8784H118.447V30.6201H121.522V41.3942H135.758V30.6356H138.835Z" fill="white"/>
<path d="M201.114 39.4567C200.456 42.3274 200.596 45.0888 201.517 47.6688C202.94 51.6633 205.996 53.9634 210.595 54.5035C212.522 54.7327 214.474 54.5969 216.35 54.1033C216.885 53.9634 217.188 53.7491 217.168 53.0736C217.115 51.3026 217.091 49.501 217.069 47.7562L217.043 45.9721C217.044 45.9107 217.049 45.8493 217.058 45.7885C217.057 45.7798 217.057 45.7709 217.058 45.7622H220.169V55.0151C214.281 56.8123 209.466 56.832 205.029 55.0872C197.472 52.1115 195.764 44.422 197.996 38.6893C199.75 34.1656 203.304 31.4742 208.837 30.4356C209.942 30.2312 211.063 30.1301 212.187 30.1339C214.329 30.1682 216.461 30.4365 218.545 30.9341L219.599 31.1703L220.038 31.2686L220.388 34.2137C220.33 34.1927 220.275 34.164 220.224 34.1284C218.7 32.9079 216.84 32.1776 214.89 32.0339C212.81 31.8546 210.389 31.7147 208.041 32.3334C204.295 33.3239 201.962 35.7201 201.114 39.4567Z" fill="white"/>
<path d="M244.028 55.5158C243.886 55.1799 243.75 54.8571 243.643 54.5365L243.424 53.8623C242.256 50.3488 241.046 46.7255 239.882 43.1505C238.46 38.7916 237.158 34.7357 235.903 30.7589C235.734 30.2296 235.522 30.0781 235.056 30.1594C234.875 30.1901 234.69 30.1901 234.509 30.1594C233.979 30.0605 233.726 30.2384 233.5 30.8621C231.816 35.5284 230.072 40.2629 228.383 44.8392L228.164 45.4058C227.266 47.8433 226.361 50.2837 225.449 52.727L224.272 55.8936H224.723C225.322 55.8936 225.948 55.8935 226.569 55.8672C226.67 55.8672 226.865 55.6476 226.932 55.4544C228 52.4372 228.961 49.6747 229.871 47.0132C230.044 46.5059 230.341 46.4181 230.77 46.4115C232.684 46.4313 234.907 46.4466 237.102 46.4115C237.716 46.4115 237.999 46.6003 238.176 47.1735C238.85 49.3431 239.556 51.5654 240.241 53.6954C240.473 54.4201 240.703 55.1425 240.937 55.8716H244.175L244.028 55.5158ZM230.757 44.6899L234.257 34.7598L237.34 44.6899H230.757Z" fill="white"/>
<path d="M283.98 53.8051L283.316 55.8939H267.961V30.6201H281.979L282.24 32.412H270.989V41.387H279.751V43.2559H271.004V54.0866L283.98 53.8051Z" fill="white"/>
<path d="M299.98 50.3246C299.794 53.2837 297.231 55.7741 293.883 56.2384C291.21 56.6152 288.605 56.2384 285.922 55.1017L286.881 52.5346L286.927 52.5696C287.012 52.6316 287.093 52.6982 287.17 52.769C289.101 54.6088 292.378 55.1301 294.8 53.978C295.335 53.7582 295.814 53.4234 296.203 52.9975C296.592 52.5716 296.881 52.0654 297.05 51.5152C297.219 50.9649 297.262 50.3844 297.178 49.8153C297.094 49.2463 296.884 48.7028 296.563 48.2241C295.836 47.0085 294.771 46.2046 293.826 45.576C293.385 45.2891 292.944 45.0065 292.515 44.724C291.335 43.9617 290.117 43.1754 289.006 42.2949C286.919 40.6434 285.995 38.4027 286.26 35.6342C286.517 32.9248 288.838 30.7169 291.902 30.2701C293.683 30.0214 295.496 30.1136 297.242 30.5417L298.344 30.8023L298.785 30.9053L297.95 33.3781C296.571 32.4521 294.922 32.0096 293.262 32.1209C292.548 32.17 291.843 32.3114 291.166 32.5414C290.596 32.7501 290.087 33.0964 289.685 33.5491C289.284 34.0018 289.002 34.5467 288.865 35.1348C288.73 35.6717 288.739 36.2342 288.89 36.7669C289.04 37.2996 289.328 37.7841 289.724 38.1727C290.553 38.9981 291.449 39.7541 292.402 40.4332C293.063 40.9063 293.766 41.3443 294.445 41.7692C295.228 42.2599 296.037 42.768 296.79 43.3244C299.094 45.0218 300.165 47.3764 299.98 50.3246Z" fill="white"/>
<path d="M115.049 32.3971H105.51V55.8939H102.378V32.3993H93.2041L93.471 30.6201H114.777L115.049 32.3971Z" fill="white"/>
<path d="M264.563 32.4166H255.229V55.8939H252.173V32.4166H243.204L243.461 30.6201H264.291L264.563 32.4166Z" fill="white"/>
<path d="M75.6946 30.2796V69.0257L74.7049 38.6878L75.169 38.7272V33.1101L74.6082 33.0378V30.7547L74.1683 30.6912V33.1538L72.8355 33.3727L72.8773 30.8291L50.664 34.0579V65.9983L72.7673 70.8317V67.8656L74.1221 67.6992V74.3167L79.5721 73.382V30.8597L75.6946 30.2796ZM52.496 46.2093L70.7725 45.9532V48.5538L52.496 48.278V46.2093ZM52.496 50.5327L70.7725 51.2617V53.8053L52.496 52.6013V50.5327ZM52.496 54.6919L70.7725 56.0819V58.9934L52.496 56.9072V54.6919ZM52.496 58.9058L70.7263 61.4341V64.1442L52.496 60.946V58.9058ZM70.7945 68.1677L52.507 64.3346V62.9599L70.7945 66.3858V68.1677ZM70.7945 43.3395L52.5532 44.1998V42.2296L70.7945 41.076V43.3395ZM70.7945 38.4579L52.5532 39.9683V38.1974L70.7945 36.1966V38.4579ZM70.7945 34.3863L52.562 36.884V35.6319L70.8033 33.005L70.7945 34.3863ZM74.0143 62.6666L72.7431 62.4126L72.8707 38.436L74.1903 38.5498L74.0143 62.6666ZM76.2709 27.4054L78.325 27.7578L79.6116 28.8524V30.4153L75.6309 29.8068L75.5231 29.196L75.2767 29.5682L74.0847 30.1986V28.5831L76.2709 27.4054ZM15.2524 22.5983L15.336 26.2124L12.6132 25.3214V21.7599L11.6873 21.6263V24.9712L10.4864 24.818V33.0904L11.4805 33.1779L9.33399 77.9636V20.3545L0.118759 18.9732V87L12.7166 84.8416V75.2711L15.4723 74.9296V79.1151L47.3144 66.3135V33.6967L15.2524 22.5983ZM19.264 26.5758L45.291 34.9489V36.2623L19.264 28.4496V26.5758ZM19.264 30.9079L45.291 37.6283V39.4846L19.264 34.012V30.9079ZM19.264 37.5692L45.291 41.84V43.9064L19.264 40.6667V37.5692ZM12.9211 67.9684L12.5736 33.1276L15.2524 33.3815L15.5075 67.2482L12.9211 67.9684ZM45.3438 64.9432L19.2662 74.5443V72.1276L45.3438 63.5181V64.9432ZM45.357 61.4035L19.3894 69.0411V65.3416L45.357 59.2714V61.4035ZM45.357 57.1655L19.3212 62.0077V58.0674L45.3657 54.8867L45.357 57.1655ZM45.357 52.6801L19.3212 54.9436V51.4718L45.3657 50.5261L45.357 52.6801ZM45.357 48.162L19.3124 47.7701V44.2261L45.357 45.9992V48.162ZM12.7759 18.7652V21.0988L10.2379 19.5292L9.69688 18.8397L9.45716 19.6846L0 18.2355V15.7312L3.21982 14.8884L8.03858 15.7137L12.7759 18.7652ZM52.1001 2.89028C52.32 2.53785 53.688 0.388203 56.1645 0.0445224C58.8037 -0.31667 61.6628 1.5462 62.7273 4.67216C65.8064 2.90779 69.3473 3.38719 71.1354 5.46022C72.6463 7.21146 72.3978 9.52747 72.3274 10.0572C71.4778 8.42714 70.0613 7.16042 68.3422 6.49344C65.1224 5.2829 62.3117 6.82619 61.9246 7.04947C61.7794 6.65544 60.6204 3.66958 57.3763 2.59475C55.6407 2.0457 53.7629 2.15088 52.1001 2.89028ZM22.9083 9.35015C25.4881 8.59055 27.5863 10.0069 27.8568 10.1907C28.0064 9.87334 29.1236 7.61642 31.7474 6.95752C33.157 6.62071 34.6415 6.80347 35.9262 7.47196C35.7326 7.09982 34.8463 5.50182 33.078 5.03993C30.9865 4.50142 28.4792 5.78201 27.2938 8.29504C25.1934 6.76271 22.5124 6.82837 20.9641 8.24687C19.5169 9.57344 19.6049 11.5764 19.6225 11.9004C20.3657 10.6773 21.5354 9.76949 22.9083 9.35015Z" fill="url(#paint0_linear_227_6362)"/>
<path d="M75.6946 30.2796V69.0257L74.7049 38.6878L75.169 38.7272V33.1101L74.6082 33.0378V30.7547L74.1683 30.6912V33.1538L72.8355 33.3727L72.8773 30.8291L50.664 34.0579V65.9983L72.7673 70.8317V67.8656L74.1221 67.6992V74.3167L79.5721 73.382V30.8597L75.6946 30.2796ZM52.496 46.2093L70.7725 45.9532V48.5538L52.496 48.278V46.2093ZM52.496 50.5327L70.7725 51.2617V53.8053L52.496 52.6013V50.5327ZM52.496 54.6919L70.7725 56.0819V58.9934L52.496 56.9072V54.6919ZM52.496 58.9058L70.7263 61.4341V64.1442L52.496 60.946V58.9058ZM70.7945 68.1677L52.507 64.3346V62.9599L70.7945 66.3858V68.1677ZM70.7945 43.3395L52.5532 44.1998V42.2296L70.7945 41.076V43.3395ZM70.7945 38.4579L52.5532 39.9683V38.1974L70.7945 36.1966V38.4579ZM70.7945 34.3863L52.562 36.884V35.6319L70.8033 33.005L70.7945 34.3863ZM74.0143 62.6666L72.7431 62.4126L72.8707 38.436L74.1903 38.5498L74.0143 62.6666ZM76.2709 27.4054L78.325 27.7578L79.6116 28.8524V30.4153L75.6309 29.8068L75.5231 29.196L75.2767 29.5682L74.0847 30.1986V28.5831L76.2709 27.4054ZM15.2524 22.5983L15.336 26.2124L12.6132 25.3214V21.7599L11.6873 21.6263V24.9712L10.4864 24.818V33.0904L11.4805 33.1779L9.33399 77.9636V20.3545L0.118759 18.9732V87L12.7166 84.8416V75.2711L15.4723 74.9296V79.1151L47.3144 66.3135V33.6967L15.2524 22.5983ZM19.264 26.5758L45.291 34.9489V36.2623L19.264 28.4496V26.5758ZM19.264 30.9079L45.291 37.6283V39.4846L19.264 34.012V30.9079ZM19.264 37.5692L45.291 41.84V43.9064L19.264 40.6667V37.5692ZM12.9211 67.9684L12.5736 33.1276L15.2524 33.3815L15.5075 67.2482L12.9211 67.9684ZM45.3438 64.9432L19.2662 74.5443V72.1276L45.3438 63.5181V64.9432ZM45.357 61.4035L19.3894 69.0411V65.3416L45.357 59.2714V61.4035ZM45.357 57.1655L19.3212 62.0077V58.0674L45.3657 54.8867L45.357 57.1655ZM45.357 52.6801L19.3212 54.9436V51.4718L45.3657 50.5261L45.357 52.6801ZM45.357 48.162L19.3124 47.7701V44.2261L45.357 45.9992V48.162ZM12.7759 18.7652V21.0988L10.2379 19.5292L9.69688 18.8397L9.45716 19.6846L0 18.2355V15.7312L3.21982 14.8884L8.03858 15.7137L12.7759 18.7652ZM52.1001 2.89028C52.32 2.53785 53.688 0.388203 56.1645 0.0445224C58.8037 -0.31667 61.6628 1.5462 62.7273 4.67216C65.8064 2.90779 69.3473 3.38719 71.1354 5.46022C72.6463 7.21146 72.3978 9.52747 72.3274 10.0572C71.4778 8.42714 70.0613 7.16042 68.3422 6.49344C65.1224 5.2829 62.3117 6.82619 61.9246 7.04947C61.7794 6.65544 60.6204 3.66958 57.3763 2.59475C55.6407 2.0457 53.7629 2.15088 52.1001 2.89028ZM22.9083 9.35015C25.4881 8.59055 27.5863 10.0069 27.8568 10.1907C28.0064 9.87334 29.1236 7.61642 31.7474 6.95752C33.157 6.62071 34.6415 6.80347 35.9262 7.47196C35.7326 7.09982 34.8463 5.50182 33.078 5.03993C30.9865 4.50142 28.4792 5.78201 27.2938 8.29504C25.1934 6.76271 22.5124 6.82837 20.9641 8.24687C19.5169 9.57344 19.6049 11.5764 19.6225 11.9004C20.3657 10.6773 21.5354 9.76949 22.9083 9.35015Z" fill="#C3B6A2"/>
<defs>
<linearGradient id="paint0_linear_227_6362" x1="-0.00879735" y1="43.5037" x2="79.6204" y2="43.5037" gradientUnits="userSpaceOnUse">
<stop stop-color="#DDBD91"/>
<stop offset="1" stop-color="#A07A53"/>
</linearGradient>
</defs>
</svg>
