<svg width="119" height="48" viewBox="0 0 119 48" fill="none" xmlns="http://www.w3.org/2000/svg">
<g clip-path="url(#clip0_96_2795)">
<path d="M117.837 16.7981C117.196 15.4776 116.335 14.2717 115.288 13.2305C115.078 13.0303 114.853 12.8462 114.614 12.6797C114.434 12.5429 114.247 12.4161 114.053 12.2998H114.013L113.962 12.2706C113.753 12.1588 113.537 12.0578 113.316 11.9682H113.26C112.706 11.7534 112.116 11.6428 111.52 11.6424H111.273C110.619 11.6833 109.98 11.8557 109.398 12.1508C108.71 12.5095 108.079 12.9642 107.524 13.5008H107.489L107.455 13.5344C107.433 13.5589 107.409 13.581 107.382 13.6001L107.275 13.6994C106.894 14.0515 106.512 14.4328 106.068 14.8784L105.754 15.1999C105.356 15.5911 104.961 15.9856 104.57 16.3832C104.692 14.2999 104.823 12.1669 104.928 10.05C104.928 9.77968 104.957 9.49918 104.979 9.23328C105.058 8.30849 105.077 7.37786 105.036 6.45015V6.2237C104.979 5.16596 104.89 3.57205 103.815 2.20605C103.027 1.18922 101.452 0 98.4556 0C97.7774 0.00449281 97.1002 0.0542805 96.4289 0.149018C95.3259 0.302795 94.2383 0.548142 93.1775 0.882421C89.8429 1.95769 87.9174 3.6378 87.4338 5.92128C87.0796 7.61307 87.715 9.08572 88.1302 10.0602L88.2194 10.2706C88.5959 11.1252 89.0289 11.9536 89.517 12.7513L89.9217 13.4628C90.9547 15.3073 92.0008 17.1448 93.06 18.975L91.4529 18.4242L91.0437 18.281C90.4485 18.0663 89.9217 17.8836 89.4322 17.7288L89.2983 17.6908L89.203 17.663H89.1123C88.3725 17.4198 87.6005 17.2844 86.8207 17.2613H86.6987C86.0834 17.2587 85.474 17.3785 84.9071 17.6134C84.2792 17.8734 83.7167 18.262 83.2554 18.7544C83.1018 18.9324 82.9559 19.1166 82.8179 19.3066L82.7852 19.3504L82.751 19.4001C82.4673 19.8238 82.2355 20.2789 82.0605 20.7559V20.7895C81.5839 22.1682 81.3465 23.6157 81.3582 25.0716C79.9267 19.5594 75.2335 15.4847 69.6965 15.4847C67.6867 15.4911 65.7146 16.0204 63.981 17.0187C63.0041 16.2075 61.7757 15.7456 60.4968 15.7084C59.2178 15.6713 57.9638 16.0611 56.9397 16.8142V13.9142C56.9051 12.4534 56.2948 11.0626 55.2372 10.0346C54.1796 9.0065 52.757 8.42127 51.2688 8.40199C49.7605 8.40741 48.3159 9.00031 47.2524 10.0505C46.1889 11.1007 45.5933 12.5224 45.5965 14.0033V20.0283C45.455 19.8455 45.3035 19.6705 45.1426 19.5038C43.5098 17.8246 41.4546 16.598 39.1846 15.9479C36.8984 15.3164 34.4789 15.3184 32.1939 15.9537H32.1328C30.2904 16.4276 28.5867 17.3187 27.1584 18.5557C26.7073 17.6248 25.9956 16.8392 25.1065 16.2907C24.2175 15.7422 23.1878 15.4536 22.1378 15.4584C21.6051 15.4584 21.0768 15.5344 20.5664 15.6834C17.7585 16.5162 16.6351 19.1956 15.9506 20.7939C15.8881 20.9429 15.8315 21.0817 15.772 21.2132C15.6024 21.6106 15.4402 21.9626 15.3107 22.2446C15.1802 22.5177 15.0601 22.7955 14.9506 23.0774C14.8718 23.2921 14.8048 23.4397 14.7274 23.6281C14.2588 22.6941 13.7851 21.7624 13.3064 20.8333L13.0236 20.2489C12.3168 18.7588 11.2559 16.522 8.6176 15.7389C7.30236 15.3444 5.88471 15.4435 4.63972 16.0172C3.39472 16.5908 2.41115 17.5981 1.87983 18.8435C0.60459 21.8034 2.18785 24.4156 3.03602 25.8167C3.64313 26.8101 4.42286 28.125 5.15348 29.4939C5.46596 30.0447 5.58501 30.277 6.27545 31.5933L6.37664 31.7759L7.25308 33.4297C7.4614 33.8096 7.69056 34.245 7.95989 34.7534C8.24708 35.3041 8.57296 35.8988 8.93157 36.5606C8.87056 36.6439 8.80807 36.7315 8.73515 36.8148L8.68456 36.8747L8.6057 36.8367C8.04575 36.5574 7.45165 36.3497 6.83792 36.2187C6.40513 36.1202 5.96233 36.0702 5.51805 36.0697C4.54602 36.0693 3.59104 36.3203 2.74915 36.7973C1.90726 37.2743 1.20816 37.9606 0.722144 38.7871C0.236614 39.6196 -0.012596 40.5647 0.000490057 41.5239C0.0135761 42.4832 0.288479 43.4214 0.796545 44.2409C2.4795 46.9962 5.91088 47.9999 8.57891 47.9999C9.28572 48.0028 9.99253 47.9312 10.683 47.7852C16.6752 46.5068 19.2689 40.8383 21.1616 36.6994L21.5426 35.8666C21.9329 34.9883 22.3392 34.117 22.7613 33.253L23.1377 32.4421C23.5205 33.6485 24.082 34.7931 24.8043 35.8389C25.2507 36.4905 25.7492 37.1055 26.2983 37.6753C26.8563 38.2348 27.4634 38.7447 28.1122 39.202C28.7669 39.6491 29.4663 40.0347 30.1954 40.3532C30.9394 40.6951 31.7177 40.9522 32.5197 41.1261C33.0108 41.2444 33.5108 41.335 34.0137 41.3949C34.475 41.4431 34.9363 41.4636 35.4005 41.4563H35.8098C37.473 41.458 39.124 41.1783 40.6905 40.6294C41.4107 40.3956 42.1086 40.0961 42.7737 39.7367C43.9562 39.0625 44.927 38.082 45.5801 36.9024C45.7529 38.2473 46.4176 39.4847 47.4505 40.3842C48.4833 41.2838 49.8138 41.7842 51.1944 41.7923C52.4101 41.7923 53.5916 41.4051 54.5648 40.6893V42.4322C54.5648 43.9088 55.1623 45.325 56.2258 46.3692C57.2893 47.4133 58.7317 47.9999 60.2357 47.9999C61.7397 47.9999 63.1821 47.4133 64.2456 46.3692C65.3091 45.325 65.9065 43.9088 65.9065 42.4322V40.9113C67.1029 41.3204 68.3618 41.5293 69.6296 41.5278C76.2885 41.5278 81.7064 35.7059 81.7183 28.5501C81.8552 28.984 82.0441 29.4004 82.2793 29.7919C82.6364 30.3442 83.1036 30.819 83.6557 31.1857C84.4487 31.7052 85.3752 31.9939 86.3282 32.0184H86.7656C87.5071 32.001 88.2438 31.8976 88.9605 31.7102H89.0795L92.1835 31.0206C91.6955 31.6824 91.2178 32.3267 90.758 32.9666L90.4991 33.3245C90.1241 33.8315 89.8027 34.2786 89.517 34.7081L89.4381 34.8293L89.3816 34.9126L89.3548 34.9506V34.99C88.9097 35.6262 88.5613 36.3226 88.3206 37.0573C88.1241 37.6792 88.0633 38.3348 88.1421 38.9814C88.2284 39.6417 88.459 40.2773 88.8147 40.8441V40.8719C88.9441 41.0706 89.0899 41.2634 89.2358 41.4227L89.27 41.4563L89.2983 41.4942C89.4545 41.6769 89.6286 41.8478 89.8042 42.0129C90.0095 42.213 90.2313 42.3971 90.4664 42.5651C91.5764 43.3102 92.7907 43.8946 94.0704 44.3008C95.1611 44.6572 96.2935 44.8705 97.4393 44.9348H97.7666C97.954 44.9367 98.1413 44.9275 98.3276 44.9071C98.5612 44.8881 98.7934 44.8574 99.0225 44.8136H99.1237C99.3588 44.7595 99.5924 44.6923 99.8201 44.6149H99.8543C100.484 44.3851 101.058 44.0283 101.539 43.5674C102 43.1056 102.361 42.5563 102.6 41.953C102.871 41.23 103.034 40.4721 103.083 39.7031V39.6038C103.087 39.5707 103.087 39.5375 103.083 39.5044V39.3773C103.132 38.8265 103.156 38.3196 103.183 37.7235V36.8761L103.375 37.2166L103.594 37.6198C103.897 38.1706 104.155 38.6337 104.424 39.0749L104.492 39.1845L104.553 39.2838V39.3174L104.583 39.3612C105.013 40.0158 105.539 40.6031 106.143 41.1086C106.626 41.5541 107.199 41.8946 107.827 42.1064H107.861C108.348 42.2671 108.858 42.3489 109.372 42.3489C109.531 42.3489 109.69 42.3387 109.848 42.3212H109.9C110.141 42.2949 110.381 42.2554 110.619 42.1999H110.718C110.949 42.1415 111.177 42.0669 111.398 41.9807C111.663 41.8829 111.919 41.766 112.168 41.633C113.173 41.0819 114.098 40.4014 114.919 39.6096C115.888 38.6936 116.72 37.6468 117.389 36.5007C117.647 36.044 117.844 35.5563 117.974 35.0499V34.9564C118.029 34.7278 118.071 34.496 118.097 34.2625V34.1894C118.161 33.5344 118.084 32.8736 117.873 32.2493C117.651 31.6323 117.299 31.0685 116.839 30.5955C116.295 30.0409 115.673 29.5657 114.992 29.1842H114.952L114.907 29.1579L114.818 29.1082L114.705 29.0352C114.257 28.7766 113.757 28.4844 113.229 28.2316L112.791 27.9993C112.093 27.617 111.387 27.2492 110.674 26.8963L113.751 26.1965H113.87C114.744 26.0345 115.586 25.7387 116.367 25.3199C117.211 24.8881 117.915 24.2307 118.395 23.4236C118.711 22.8611 118.903 22.2402 118.956 21.5989C119.203 19.609 118.35 17.85 117.84 16.7981H117.837Z" fill="#E8E6E3"/>
<path d="M94.6419 27.6005L96.4945 27.1797C96.5331 27.1709 96.5986 27.1563 96.676 27.1315C97.1877 26.9968 97.6262 26.6723 97.899 26.2265C98.1719 25.7806 98.2578 25.2482 98.1387 24.7414L98.1313 24.7092C98.07 24.4664 97.963 24.237 97.8158 24.0328C97.6084 23.7743 97.3516 23.5579 97.0599 23.3958C96.7165 23.2037 96.3571 23.0404 95.9855 22.9079L93.9544 22.1788C92.8146 21.7625 91.6747 21.3578 90.523 20.9619C89.7775 20.7018 89.1451 20.4724 88.596 20.3044C88.4915 20.276 88.3878 20.2449 88.285 20.2109C87.6214 20.0122 87.1541 19.929 86.7598 19.926C86.4963 19.9164 86.2337 19.9633 85.9905 20.0634C85.7364 20.1714 85.5082 20.3307 85.3209 20.5309C85.2279 20.6345 85.1405 20.7427 85.059 20.8552C84.9005 21.0943 84.7697 21.3501 84.6691 21.6178C84.2918 22.7121 84.1037 23.8607 84.1126 25.016C84.12 26.0592 84.1483 27.3989 84.7331 28.3076C84.8745 28.5413 85.0635 28.7429 85.2882 28.8993C85.7048 29.1812 86.1244 29.2192 86.5634 29.2499C87.2181 29.2952 87.8505 29.1389 88.4829 28.9942L94.6374 27.599L94.6419 27.6005ZM115.311 17.945C114.805 16.9028 114.125 15.9512 113.299 15.1297C113.192 15.0252 113.078 14.9285 112.956 14.8404C112.845 14.758 112.728 14.6815 112.608 14.6111C112.485 14.5446 112.357 14.4846 112.227 14.4314C111.97 14.3322 111.695 14.2874 111.419 14.2999C111.156 14.3145 110.899 14.3875 110.665 14.5088C110.312 14.6812 109.93 14.9588 109.421 15.4219C109.351 15.4906 109.263 15.568 109.183 15.641C108.765 16.0282 108.297 16.5059 107.742 17.0611C106.884 17.9128 106.04 18.769 105.199 19.6324L103.696 21.1635C103.422 21.4427 103.172 21.7443 102.95 22.0649C102.759 22.3362 102.624 22.6414 102.552 22.9634C102.512 23.2107 102.518 23.4632 102.57 23.7085L102.577 23.7406C102.696 24.2469 103.01 24.6882 103.454 24.9716C103.898 25.255 104.436 25.3584 104.955 25.26C105.018 25.2514 105.08 25.2397 105.141 25.225L113.15 23.4075C113.782 23.2643 114.422 23.1329 114.989 22.8085C115.37 22.5938 115.732 22.379 115.98 21.9466C116.112 21.7084 116.193 21.4456 116.215 21.1752C116.339 20.1028 115.769 18.8858 115.311 17.945ZM100.973 21.2511C101.554 20.5353 101.554 19.4688 101.604 18.5951C101.78 15.6805 101.963 12.7659 102.11 9.84978C102.165 8.7453 102.286 7.65542 102.219 6.54217C102.164 5.62468 102.158 4.56987 101.567 3.81601C100.526 2.48654 98.3024 2.59611 96.7861 2.80356C96.3184 2.867 95.854 2.95281 95.3948 3.06069C94.9335 3.1688 94.4752 3.28714 94.0288 3.42886C92.5735 3.89636 90.5275 4.75541 90.1823 6.40191C89.9858 7.33255 90.4501 8.28363 90.8072 9.13391C91.2432 10.1624 91.8369 11.0901 92.3786 12.0588C93.8116 14.6169 95.2698 17.1604 96.7236 19.7054C97.1596 20.4651 97.6313 21.4264 98.472 21.8209C98.5286 21.8443 98.5851 21.8647 98.6432 21.8837C99.0196 22.024 99.4318 22.0503 99.8232 21.9612L99.8931 21.9466C100.256 21.8487 100.584 21.6544 100.841 21.387C100.889 21.3432 100.93 21.2993 100.973 21.2511ZM100.279 29.0541C100.052 28.7413 99.7305 28.5069 99.3601 28.3843C98.9897 28.2618 98.5892 28.2574 98.2161 28.3719C98.1283 28.4002 98.0428 28.4349 97.9602 28.4756C97.8323 28.5396 97.7103 28.6144 97.5956 28.6991C97.268 28.9525 96.9754 29.2467 96.7251 29.5742C96.6611 29.6546 96.6016 29.7612 96.5242 29.8314L95.2356 31.5699C94.5065 32.5458 93.7848 33.5232 93.072 34.5152C92.6048 35.1566 92.203 35.6986 91.8831 36.1763C91.8236 36.2669 91.7611 36.3662 91.7045 36.4481C91.3221 37.0266 91.1063 37.4503 90.9947 37.8272C90.9114 38.0776 90.8849 38.3429 90.9173 38.6044C90.9531 38.8762 91.0468 39.1377 91.1911 39.3729C91.2685 39.4898 91.3518 39.6037 91.4411 39.7133C91.634 39.9312 91.8511 40.1273 92.0884 40.2977C92.9783 40.9055 93.9514 41.3423 94.9752 41.6798C95.8278 41.9573 96.7132 42.1239 97.609 42.1736C97.7623 42.1809 97.9155 42.178 98.0673 42.1648C98.208 42.1519 98.3481 42.1324 98.4869 42.1064C98.6258 42.0746 98.7629 42.0356 98.8976 41.9895C99.1595 41.8932 99.3977 41.7438 99.597 41.5512C99.786 41.3657 99.9318 41.1421 100.023 40.8952C100.171 40.53 100.27 40.0683 100.335 39.3817C100.34 39.2838 100.354 39.1669 100.365 39.0603C100.415 38.4905 100.439 37.8184 100.475 37.0324C100.539 35.8213 100.588 34.616 100.627 33.4078L100.71 31.2573C100.729 30.7635 100.713 30.2141 100.573 29.7218C100.512 29.4853 100.412 29.2599 100.279 29.0541ZM114.821 32.4187C114.553 32.128 114.172 31.8402 113.571 31.4837C113.485 31.4355 113.382 31.3727 113.288 31.3172C112.788 31.0206 112.186 30.7109 111.482 30.3354C110.4 29.751 109.318 29.1842 108.225 28.6202L106.295 27.6151C106.195 27.5859 106.094 27.5157 105.998 27.4704C105.627 27.2843 105.233 27.1463 104.826 27.0599C104.686 27.0333 104.543 27.0187 104.4 27.0161C104.308 27.0156 104.215 27.021 104.124 27.0322C103.737 27.0907 103.38 27.2676 103.102 27.5376C102.824 27.8076 102.64 28.1568 102.576 28.5355C102.548 28.7765 102.557 29.0205 102.604 29.2572C102.698 29.7627 102.927 30.2609 103.165 30.6977L104.195 32.5955C104.769 33.6649 105.35 34.7285 105.945 35.7892C106.329 36.4802 106.649 37.0719 106.948 37.5628C107.004 37.6548 107.068 37.7542 107.117 37.8404C107.482 38.4291 107.774 38.8002 108.07 39.0676C108.267 39.2538 108.504 39.395 108.763 39.4808C109.022 39.5667 109.298 39.5952 109.57 39.5643C109.711 39.5474 109.852 39.523 109.991 39.4912C110.275 39.4164 110.551 39.3101 110.811 39.1742C111.594 38.7432 112.316 38.2127 112.958 37.5964C113.729 36.8513 114.41 36.039 114.94 35.1098C115.014 34.9783 115.077 34.8425 115.13 34.7007C115.18 34.571 115.224 34.4388 115.26 34.3048C115.291 34.1675 115.315 34.0302 115.331 33.8914C115.358 33.6186 115.326 33.3434 115.238 33.0835C115.15 32.834 115.008 32.6066 114.821 32.4173V32.4187Z" fill="#FF1A1A"/>
<path fill-rule="evenodd" clip-rule="evenodd" d="M48.3585 13.9654C48.3585 12.4021 49.6545 11.1252 51.2199 11.1252C52.763 11.1252 54.0159 12.4021 54.0829 13.9887V36.1574C54.0829 37.7206 52.7853 38.9975 51.2199 38.9975C50.8416 38.9973 50.467 38.9235 50.1179 38.7803C49.7687 38.6372 49.452 38.4275 49.1859 38.1634C48.9198 37.8993 48.7097 37.586 48.5676 37.2417C48.4256 36.8974 48.3545 36.5288 48.3585 36.1574V13.9654ZM45.6964 27.659C45.6741 28.0987 45.5625 28.9139 44.9821 29.5085C44.3557 30.147 43.506 30.3004 43.0135 30.3004C40.9674 30.3121 38.9214 30.3179 36.8754 30.3223C34.8293 30.3281 32.7833 30.334 30.7373 30.3442C30.9158 30.895 31.273 31.7321 32.078 32.502C32.569 32.9652 33.0393 33.2281 33.2416 33.3392C33.4871 33.4926 34.3368 33.9338 35.3874 33.9338C36.5063 33.9338 37.4899 33.5802 38.4527 33.0967L38.5316 33.0557C39.2012 32.7153 39.8901 32.3647 40.6207 32.2376C41.335 32.128 42.0969 32.2595 42.6549 32.7446C43.326 33.3173 43.5953 34.1529 43.3483 35.012C43.0581 35.9806 42.2308 36.8177 41.3588 37.3232C40.8597 37.61 40.3359 37.8529 39.7934 38.0493C38.4094 38.5315 36.946 38.7559 35.4781 38.7111C35.121 38.7111 34.7401 38.7111 34.3591 38.6673C33.9574 38.6235 33.5556 38.5344 33.1747 38.4467C32.5571 38.3152 31.9566 38.1157 31.3846 37.8521C30.8123 37.603 30.2657 37.3007 29.7522 36.9492C29.24 36.5878 28.7615 36.1825 28.3222 35.7381C27.8854 35.2881 27.4886 34.8023 27.1363 34.2859C25.9295 32.4801 25.37 30.2565 25.4816 28.0987C25.5709 25.9862 26.2866 23.8721 27.5842 22.1555C27.724 21.9393 27.8862 21.7567 28.0395 21.5843C28.1065 21.5083 28.1719 21.4353 28.2329 21.3622C29.8341 19.4396 31.9738 18.8318 32.8562 18.5805L32.9053 18.5659C34.6962 18.0667 36.5933 18.0667 38.3842 18.5659C38.8098 18.677 41.2026 19.4031 43.0581 21.3622C43.1474 21.4499 43.3944 21.7362 43.7069 22.1555C44.5006 23.2167 45.0836 24.4151 45.4256 25.6881L45.4285 25.6998C45.5625 26.1834 45.6964 26.8452 45.6964 27.659ZM32.5705 24.027C31.6876 24.732 31.0731 25.7091 30.8266 26.7999H40.5761C40.313 25.71 39.6924 24.7352 38.8098 24.0255C37.9208 23.3256 36.8185 22.9383 35.679 22.9254C34.5455 22.9365 33.4493 23.3243 32.569 24.0255L32.5705 24.027ZM69.6461 18.1919C67.0971 18.1919 64.7714 19.3154 63.1167 21.1431V21.0759C63.0835 20.3419 62.7579 19.6501 62.2101 19.1497C61.6623 18.6492 60.9361 18.3801 60.1881 18.4004C59.4401 18.4207 58.7301 18.7288 58.2113 19.2583C57.6925 19.7877 57.4064 20.4961 57.4146 21.2307V42.3869C57.4128 42.7569 57.4856 43.1235 57.6288 43.4658C57.7719 43.808 57.9826 44.119 58.2487 44.381C58.5148 44.6429 58.8311 44.8506 59.1793 44.992C59.5275 45.1335 59.9007 45.2059 60.2775 45.2051C60.6542 45.2057 61.0273 45.1331 61.3753 44.9916C61.7234 44.8501 62.0394 44.6424 62.3054 44.3804C62.5713 44.1185 62.7819 43.8075 62.925 43.4654C63.068 43.1233 63.1408 42.7568 63.139 42.3869V35.7819C64.7937 37.5877 67.0971 38.733 69.6684 38.733C74.7902 38.733 78.9493 34.1748 78.9493 28.4946C78.9269 22.8159 74.7679 18.1919 69.6461 18.1919ZM68.3947 34.131C65.4871 34.131 63.1167 31.643 63.1167 28.5399C63.1167 25.4135 65.4648 22.9254 68.3947 22.9254C71.3008 22.9254 73.6712 25.4135 73.6712 28.5399C73.6489 31.643 71.3008 34.131 68.3947 34.131ZM21.1886 29.9702L20.2497 31.9965C19.8241 32.876 19.3985 33.7789 18.9968 34.6818L18.6084 35.5292C16.8198 39.4328 14.6994 44.067 10.0746 45.0502C7.83808 45.5353 4.46175 44.8749 3.20883 42.8048C1.95741 40.7141 3.81297 38.3138 6.20571 38.8645C6.58367 38.9463 6.95419 39.1275 7.32917 39.3116C7.95265 39.6184 8.58506 39.9267 9.26956 39.7893C9.91833 39.6798 10.3201 39.2166 10.835 38.622C11.5492 37.8083 11.8632 36.9492 11.9971 36.4423L11.9644 36.3663C11.954 36.34 11.9426 36.3142 11.9301 36.2889C11.3483 35.2224 10.8394 34.2698 10.4153 33.4736C10.1769 33.024 9.93635 32.5754 9.69364 32.128L8.71899 30.3106C8.00474 28.9811 7.88569 28.762 7.57023 28.1878C6.87478 26.899 6.14389 25.629 5.37837 24.3791C4.55103 23.0131 3.70137 21.4952 4.39479 19.8866C4.65542 19.2639 5.14483 18.7599 5.76604 18.4747C6.38725 18.1895 7.09491 18.1439 7.7488 18.3468C9.18771 18.7748 9.82608 20.1204 10.4213 21.3768C10.5299 21.6047 10.6356 21.8297 10.7457 22.0445C11.7069 23.916 12.6459 25.7875 13.5848 27.659C13.6682 27.8445 13.7931 28.0972 13.9479 28.407C14.0848 28.6816 14.244 29.0016 14.4122 29.3537L14.6607 29.8621C14.7574 30.0608 14.8422 30.2302 14.9047 30.3661C15.3407 29.2996 15.7826 28.2375 16.2231 27.1739C16.665 26.1118 17.107 25.0497 17.543 23.9817C17.5549 23.9233 17.659 23.6954 17.8168 23.352C17.9492 23.0613 18.1188 22.6888 18.3034 22.2651L18.4923 21.8166C19.0727 20.4287 19.772 18.7588 21.3226 18.303C21.8729 18.1461 22.4593 18.1615 23.0004 18.3468C23.5414 18.5322 24.0102 18.8784 24.3418 19.3373C24.6766 19.799 24.8105 20.3278 24.8328 20.8567C24.8507 22.0255 24.2763 23.279 23.7823 24.3543C23.6632 24.6172 23.5471 24.8685 23.4475 25.1052L23.3879 25.2338C23.251 25.5362 22.879 26.3543 22.2392 27.7028C22.0085 28.1849 21.7868 28.6699 21.5621 29.1594L21.1886 29.9702Z" fill="black"/>
</g>
<defs>
<clipPath id="clip0_96_2795">
<rect width="119" height="48" fill="white"/>
</clipPath>
</defs>
</svg>
