<svg width="161" height="40" viewBox="0 0 161 40" fill="none" xmlns="http://www.w3.org/2000/svg">
<path d="M43.0228 14.3326H59.2136V17.3467H52.8386V34.3378H49.3444V17.3467H42.9961L43.0228 14.3326ZM58.5201 19.8541H61.5075V22.6548H61.5609C61.6675 22.2547 61.8543 21.8812 62.121 21.5078C62.3877 21.1344 62.7078 20.7876 63.1079 20.4942C63.4813 20.1741 63.9081 19.9341 64.3882 19.7474C64.8417 19.5606 65.3218 19.454 65.8019 19.454C66.1754 19.454 66.4421 19.4806 66.5755 19.4806C66.7088 19.5073 66.8689 19.534 67.0023 19.534V22.6014C66.7889 22.5481 66.5488 22.5214 66.3087 22.4947C66.0687 22.4681 65.8553 22.4414 65.6152 22.4414C65.0818 22.4414 64.575 22.5481 64.0948 22.7615C63.6147 22.9749 63.2146 23.2949 62.8412 23.695C62.4944 24.1218 62.201 24.6286 61.9876 25.2421C61.7742 25.8556 61.6676 26.5758 61.6676 27.376V34.2577H58.4667L58.5201 19.8541ZM81.6727 34.3378H78.5252V32.3106H78.4719C78.0718 33.0574 77.4849 33.6176 76.7114 34.071C75.9379 34.5245 75.1377 34.7379 74.3375 34.7379C72.4436 34.7379 71.0566 34.2844 70.2031 33.3242C69.3495 32.3906 68.9227 30.9502 68.9227 29.0564V19.8541H72.1236V28.7363C72.1236 30.0167 72.3636 30.9236 72.8704 31.4304C73.3505 31.9638 74.0441 32.2306 74.9243 32.2306C75.5911 32.2306 76.1513 32.1239 76.6047 31.9105C77.0582 31.6971 77.4316 31.4304 77.6983 31.0836C77.9917 30.7368 78.1785 30.3101 78.3118 29.8299C78.4452 29.3498 78.4985 28.8164 78.4985 28.2562V19.8541H81.6994V34.3378H81.6727ZM87.1141 29.6966C87.2208 30.6301 87.5675 31.2703 88.181 31.6704C88.7945 32.0439 89.5414 32.2306 90.3949 32.2306C90.6883 32.2306 91.0351 32.2039 91.4085 32.1505C91.7819 32.0972 92.1554 32.0172 92.4755 31.8838C92.8222 31.7504 93.0889 31.5637 93.3023 31.297C93.5157 31.0303 93.6224 30.7102 93.5957 30.3101C93.5691 29.91 93.4357 29.5632 93.1423 29.2965C92.8489 29.0297 92.5021 28.843 92.0754 28.6563C91.6486 28.4963 91.1418 28.3629 90.5816 28.2562C90.0215 28.1495 89.4613 28.0161 88.8745 27.8828C88.2877 27.7494 87.7009 27.5894 87.1408 27.4027C86.5806 27.2159 86.1005 26.9759 85.647 26.6291C85.2203 26.309 84.8468 25.9089 84.6068 25.4021C84.34 24.8954 84.2067 24.3085 84.2067 23.5617C84.2067 22.7615 84.3934 22.1213 84.7935 21.5878C85.1669 21.0544 85.6737 20.6276 86.2605 20.3075C86.8473 19.9874 87.5142 19.7474 88.2344 19.614C88.9546 19.4806 89.6481 19.4273 90.2882 19.4273C91.0351 19.4273 91.7553 19.5073 92.4221 19.6673C93.0889 19.8274 93.7291 20.0674 94.2626 20.4409C94.8227 20.7876 95.2762 21.2677 95.6229 21.8279C95.9964 22.388 96.2097 23.0815 96.3164 23.8818H92.9823C92.8222 23.1082 92.4755 22.6014 91.942 22.3347C91.3818 22.068 90.7683 21.9346 90.0482 21.9346C89.8348 21.9346 89.5414 21.9613 89.248 21.9879C88.9279 22.0413 88.6611 22.0946 88.3677 22.2013C88.101 22.308 87.8609 22.4681 87.6742 22.6548C87.4875 22.8415 87.3808 23.1082 87.3808 23.4283C87.3808 23.8284 87.5142 24.1218 87.7809 24.3619C88.0477 24.6019 88.3944 24.7887 88.8479 24.9754C89.2746 25.1354 89.7814 25.2688 90.3416 25.3755C90.9017 25.4822 91.4885 25.6155 92.0754 25.7489C92.6622 25.8823 93.2223 26.0423 93.7825 26.229C94.3426 26.4157 94.8494 26.6558 95.2762 27.0026C95.7029 27.3226 96.0764 27.7227 96.3431 28.2029C96.6099 28.683 96.7432 29.2965 96.7432 29.99C96.7432 30.8435 96.5565 31.5637 96.1564 32.1772C95.7563 32.764 95.2495 33.2708 94.636 33.6443C94.0225 34.0177 93.3023 34.2844 92.5555 34.4711C91.7819 34.6312 91.0351 34.7379 90.2882 34.7379C89.3813 34.7379 88.5278 34.6312 87.7542 34.4178C86.9807 34.2044 86.2872 33.8843 85.7271 33.4842C85.1669 33.0574 84.7135 32.5506 84.3934 31.9105C84.0733 31.297 83.8866 30.5501 83.8599 29.6699H87.0874V29.6966H87.1141ZM97.6501 19.8541H100.077V15.4796H103.278V19.8274H106.159V22.2013H103.278V29.9366C103.278 30.2834 103.305 30.5501 103.332 30.8169C103.358 31.0569 103.438 31.2703 103.518 31.4304C103.625 31.5904 103.785 31.7238 103.972 31.8038C104.185 31.8838 104.452 31.9372 104.825 31.9372C105.039 31.9372 105.279 31.9372 105.492 31.9105C105.706 31.8838 105.946 31.8571 106.159 31.8038V34.2844C105.812 34.3378 105.465 34.3644 105.119 34.3911C104.772 34.4445 104.452 34.4445 104.078 34.4445C103.225 34.4445 102.558 34.3644 102.051 34.2044C101.544 34.0444 101.144 33.8043 100.851 33.5109C100.558 33.1908 100.371 32.8174 100.264 32.3639C100.157 31.9105 100.104 31.3503 100.077 30.7635V22.228H97.6501V19.8007V19.8541ZM108.4 19.8541H111.414V21.8279H111.467C111.92 20.9743 112.534 20.3875 113.334 20.0141C114.134 19.6407 114.988 19.454 115.948 19.454C117.095 19.454 118.082 19.6407 118.936 20.0674C119.789 20.4675 120.483 21.001 121.043 21.7212C121.603 22.4147 122.03 23.2416 122.296 24.1752C122.563 25.1087 122.723 26.1223 122.723 27.1626C122.723 28.1495 122.59 29.0831 122.35 29.99C122.083 30.8969 121.71 31.7238 121.203 32.4173C120.696 33.1108 120.056 33.6709 119.256 34.0977C118.455 34.5245 117.549 34.7379 116.482 34.7379C116.028 34.7379 115.548 34.6845 115.095 34.6045C114.641 34.5245 114.188 34.3911 113.761 34.2044C113.334 34.0177 112.934 33.7776 112.587 33.4842C112.214 33.1908 111.92 32.8441 111.68 32.4706H111.627V39.6991H108.426V19.8541H108.4ZM119.576 27.1093C119.576 26.4691 119.496 25.8289 119.309 25.2154C119.149 24.6019 118.882 24.0685 118.535 23.5883C118.189 23.1082 117.762 22.7348 117.282 22.4414C116.775 22.148 116.188 22.0146 115.548 22.0146C114.214 22.0146 113.201 22.4681 112.507 23.4016C111.84 24.3352 111.494 25.5889 111.494 27.1359C111.494 27.8828 111.574 28.5496 111.76 29.1631C111.947 29.7766 112.187 30.3101 112.561 30.7635C112.907 31.217 113.334 31.5637 113.841 31.8305C114.348 32.0972 114.908 32.2306 115.575 32.2306C116.322 32.2306 116.908 32.0705 117.415 31.7771C117.922 31.4837 118.322 31.0836 118.669 30.6301C118.989 30.15 119.229 29.6166 119.362 29.0031C119.496 28.3629 119.576 27.7494 119.576 27.1093ZM125.204 14.3326H128.405V17.3467H125.204V14.3326ZM125.204 19.8541H128.405V34.3378H125.204V19.8541ZM131.259 14.3326H134.46V34.3378H131.259V14.3326ZM144.222 34.7379C143.075 34.7379 142.035 34.5512 141.128 34.1511C140.221 33.751 139.474 33.2442 138.834 32.5773C138.221 31.9105 137.74 31.0836 137.42 30.15C137.1 29.2165 136.914 28.1762 136.914 27.0826C136.914 25.989 137.074 24.9754 137.42 24.0418C137.74 23.1082 138.221 22.308 138.834 21.6145C139.448 20.9477 140.221 20.4142 141.128 20.0408C142.035 19.6673 143.075 19.454 144.222 19.454C145.369 19.454 146.409 19.6407 147.316 20.0408C148.223 20.4142 148.97 20.9477 149.61 21.6145C150.224 22.2813 150.704 23.1082 151.024 24.0418C151.344 24.9754 151.531 25.989 151.531 27.0826C151.531 28.2029 151.371 29.2165 151.024 30.15C150.677 31.0836 150.224 31.8838 149.61 32.5773C148.997 33.2442 148.223 33.7776 147.316 34.1511C146.409 34.5245 145.396 34.7379 144.222 34.7379ZM144.222 32.2039C144.916 32.2039 145.556 32.0438 146.063 31.7504C146.596 31.457 146.996 31.0569 147.343 30.5768C147.69 30.0967 147.93 29.5365 148.09 28.9497C148.25 28.3362 148.33 27.7227 148.33 27.0826C148.33 26.4691 148.25 25.8556 148.09 25.2421C147.93 24.6286 147.69 24.0951 147.343 23.615C146.996 23.1349 146.569 22.7615 146.063 22.4681C145.529 22.1747 144.916 22.0146 144.222 22.0146C143.529 22.0146 142.888 22.1747 142.382 22.4681C141.848 22.7615 141.448 23.1616 141.101 23.615C140.755 24.0951 140.514 24.6286 140.354 25.2421C140.194 25.8556 140.114 26.4691 140.114 27.0826C140.114 27.7227 140.194 28.3362 140.354 28.9497C140.514 29.5632 140.755 30.0967 141.101 30.5768C141.448 31.0569 141.875 31.457 142.382 31.7504C142.915 32.0705 143.529 32.2039 144.222 32.2039ZM152.491 19.8541H154.918V15.4796H158.119V19.8274H161V22.2013H158.119V29.9366C158.119 30.2834 158.146 30.5501 158.172 30.8169C158.199 31.0569 158.279 31.2703 158.359 31.4304C158.466 31.5904 158.626 31.7238 158.812 31.8038C159.026 31.8838 159.293 31.9372 159.666 31.9372C159.879 31.9372 160.119 31.9372 160.333 31.9105C160.546 31.8838 160.786 31.8571 161 31.8038V34.2844C160.653 34.3378 160.306 34.3644 159.959 34.3911C159.613 34.4445 159.293 34.4445 158.919 34.4445C158.066 34.4445 157.399 34.3644 156.892 34.2044C156.385 34.0444 155.985 33.8043 155.692 33.5109C155.398 33.1908 155.212 32.8174 155.105 32.3639C154.998 31.9105 154.945 31.3503 154.918 30.7635V22.228H152.491V19.8007V19.8541Z" fill="black"/>
<path d="M39.2888 14.3325H24.6451L20.1372 0.408936L15.6027 14.3325L0.958984 14.3058L12.802 22.9214L8.26753 36.8449L20.1106 28.2294L31.9536 36.8449L27.4458 22.9214L39.2888 14.3325Z" fill="#00B67A"/>
<path d="M28.4589 26.0689L27.4453 22.9214L20.1367 28.2294L28.4589 26.0689Z" fill="#005128"/>
</svg>
