<svg width="14" height="14" viewBox="0 0 14 14" fill="none" xmlns="http://www.w3.org/2000/svg">
<path opacity="0.8" d="M11.0866 8.49626C10.6666 8.06061 10.1206 8.06061 9.68321 8.49626C9.35422 8.82386 9.02878 9.14796 8.69978 9.47556C8.60878 9.56618 8.53529 9.58361 8.42681 9.53129C8.22732 9.40586 7.98934 9.31524 7.78985 9.18631C6.84146 8.58689 6.04 7.82364 5.32959 6.95589C4.98312 6.52025 4.67515 6.06722 4.45467 5.54097C4.41968 5.43293 4.41968 5.37718 4.51067 5.28657C4.85713 4.9764 5.16511 4.65229 5.49408 4.3247C5.94904 3.87165 5.94904 3.34541 5.49408 2.89236C5.2211 2.62053 4.96562 2.36612 4.71015 2.11172C4.43717 1.83989 4.1817 1.56806 3.90872 1.31365C3.48876 0.89545 2.94281 0.89545 2.50535 1.31365C2.17638 1.64124 1.85091 1.96535 1.52194 2.29294C1.21047 2.60311 1.04948 2.96555 1.01099 3.38026C0.954993 4.05287 1.11948 4.70457 1.35746 5.33884C1.85091 6.66314 2.59634 7.80621 3.48876 8.87613C4.71015 10.3294 6.16601 11.4725 7.86338 12.288C8.6298 12.6504 9.41374 12.9397 10.2501 12.9954C10.8521 13.0303 11.363 12.8699 11.7795 12.4134C12.0525 12.0858 12.3814 11.814 12.6719 11.5073C13.1094 11.0543 13.1094 10.5106 12.6719 10.075C12.1435 9.54871 11.615 9.02249 11.0866 8.49626Z" fill="#333333"/>
</svg>
