<svg width="16" height="17" viewBox="0 0 16 17" fill="none" xmlns="http://www.w3.org/2000/svg">
<path d="M15.5434 11.806L12.0434 10.306C11.8939 10.2422 11.7278 10.2288 11.5699 10.2677C11.4121 10.3066 11.2712 10.3957 11.1684 10.5216L9.61844 12.4153C7.18586 11.2684 5.22819 9.31073 4.08125 6.87815L5.975 5.32815C6.10115 5.22555 6.19044 5.08465 6.22934 4.92676C6.26825 4.76888 6.25466 4.60262 6.19063 4.45315L4.69063 0.953154C4.62035 0.792032 4.49605 0.660481 4.33917 0.581185C4.18229 0.501889 4.00266 0.479819 3.83125 0.518779L0.58125 1.26878C0.41599 1.30694 0.268545 1.39999 0.16298 1.53274C0.0574141 1.66549 -3.80691e-05 1.83011 1.89256e-08 1.99972C1.89256e-08 10.0153 6.49688 16.4997 14.5 16.4997C14.6697 16.4998 14.8344 16.4424 14.9672 16.3368C15.1 16.2313 15.1931 16.0838 15.2313 15.9185L15.9813 12.6685C16.02 12.4962 15.9974 12.3159 15.9175 12.1585C15.8376 12.001 15.7053 11.8764 15.5434 11.806Z" fill="#222121"/>
</svg>
