<svg width="29" height="29" viewBox="0 0 29 29" fill="none" xmlns="http://www.w3.org/2000/svg">
<path d="M20.3327 8.6667L1.66602 27.3333M22.9993 18H10.9993M7.79931 23.3333H16.7824C17.1085 23.3333 17.2715 23.3333 17.425 23.2965C17.5611 23.2639 17.6911 23.21 17.8104 23.1369C17.945 23.0544 18.0603 22.9391 18.2909 22.7085L24.9993 16C25.3179 15.6814 25.4773 15.5221 25.6055 15.381C28.379 12.3298 28.379 7.67026 25.6055 4.61898C25.4773 4.47794 25.3179 4.31863 24.9993 4.00001C24.6808 3.6814 24.5214 3.52209 24.3804 3.39388C21.3291 0.620335 16.6696 0.620335 13.6183 3.39388C13.4773 3.52209 13.3179 3.68139 12.9994 4.00001L6.29087 10.7085C6.06025 10.9391 5.94495 11.0544 5.8625 11.189C5.78939 11.3082 5.73551 11.4383 5.70285 11.5743C5.66602 11.7278 5.66602 11.8908 5.66602 12.217V21.2C5.66602 21.9468 5.66602 22.3201 5.81134 22.6053C5.93917 22.8562 6.14314 23.0602 6.394 23.188C6.67924 23.3333 7.05262 23.3333 7.79931 23.3333Z" stroke="#B5A480" stroke-width="2" stroke-linecap="round" stroke-linejoin="round"/>
</svg>
