<svg width="40" height="31" viewBox="0 0 40 31" fill="none" xmlns="http://www.w3.org/2000/svg">
<path d="M7.45364 11.0241C9.92268 9.85968 12.628 9.28317 15.3572 9.33984C18.0865 9.2827 20.7915 9.85984 23.2608 11.0241C24.3722 10.3013 25.0001 9.4527 25.0001 8.62556C25.0001 6.55413 21.1251 4.33984 15.3572 4.33984C9.58936 4.33984 5.71436 6.55413 5.71436 8.62556C5.71436 9.4527 6.34221 10.3013 7.45364 11.0241ZM39.2858 19.3398H32.8572V20.8048C34.2736 20.7756 35.7144 22.1806 35.7144 24.697C35.7471 25.8803 35.3183 27.0299 34.5186 27.9027C34.0768 28.3473 33.4835 28.6087 32.8572 28.6348V30.0541H39.2858C39.4752 30.0541 39.6569 29.9789 39.7909 29.8449C39.9248 29.711 40.0001 29.5293 40.0001 29.3398V20.0541C40.0001 19.8647 39.9248 19.683 39.7909 19.5491C39.6569 19.4151 39.4752 19.3398 39.2858 19.3398ZM38.5715 25.7684C38.5715 25.9579 38.4963 26.1395 38.3623 26.2735C38.2283 26.4074 38.0467 26.4827 37.8572 26.4827C37.6678 26.4827 37.4861 26.4074 37.3521 26.2735C37.2182 26.1395 37.1429 25.9579 37.1429 25.7684V23.6256C37.1429 23.4361 37.2182 23.2544 37.3521 23.1205C37.4861 22.9865 37.6678 22.9113 37.8572 22.9113C38.0467 22.9113 38.2283 22.9865 38.3623 23.1205C38.4963 23.2544 38.5715 23.4361 38.5715 23.6256V25.7684Z" fill="#333333"/>
<path d="M15.3571 17.9104C23.825 17.9104 30.7143 14.0654 30.7143 9.33901C30.7143 4.61258 23.825 0.767578 15.3571 0.767578C6.88929 0.767578 0 4.61258 0 9.33901C0 14.0654 6.88929 17.9104 15.3571 17.9104ZM15.3571 2.91044C21.565 2.91044 26.4286 5.42044 26.4286 8.62472C26.4286 10.0869 25.4079 11.4012 23.7143 12.4019C23.6631 12.4408 23.6069 12.4725 23.5471 12.4962C21.0131 13.7826 18.198 14.416 15.3571 14.339C12.4864 14.4204 9.64286 13.7719 7.09071 12.4547C7.05324 12.4375 7.01739 12.4169 6.98357 12.3933C5.30071 11.394 4.28571 10.0826 4.28571 8.62472C4.28571 5.42044 9.14929 2.91044 15.3571 2.91044Z" fill="#333333"/>
<path d="M33.5143 26.8863C34.0395 26.2803 34.3152 25.4976 34.2857 24.6963C34.2857 23.1699 33.5443 22.2113 32.8571 22.1963C32.4831 22.1997 32.123 22.055 31.8553 21.7938C31.5876 21.5325 31.4342 21.176 31.4286 20.802V19.3391H15.3571C8.50786 19.3391 2.60714 16.8813 0 13.3691V21.482C0 23.312 1.07143 25.0141 2.85714 26.4156V23.6249C2.85714 23.4354 2.9324 23.2537 3.06635 23.1198C3.20031 22.9858 3.38199 22.9106 3.57143 22.9106C3.76087 22.9106 3.94255 22.9858 4.07651 23.1198C4.21046 23.2537 4.28572 23.4354 4.28572 23.6249V27.3863C4.97392 27.7843 5.69008 28.1319 6.42857 28.4263V27.1963C6.42857 27.0068 6.50383 26.8252 6.63778 26.6912C6.77174 26.5573 6.95342 26.482 7.14286 26.482C7.3323 26.482 7.51398 26.5573 7.64793 26.6912C7.78189 26.8252 7.85714 27.0068 7.85714 27.1963V28.9441C8.53929 29.1584 9.26 29.3384 10 29.4949V26.482C10 26.2926 10.0753 26.1109 10.2092 25.9769C10.3432 25.843 10.5248 25.7677 10.7143 25.7677C10.9037 25.7677 11.0854 25.843 11.2194 25.9769C11.3533 26.1109 11.4286 26.2926 11.4286 26.482V29.7513C12.3757 29.892 13.3286 29.9799 14.2857 30.017V28.6249C14.2857 28.4354 14.361 28.2537 14.4949 28.1198C14.6289 27.9858 14.8106 27.9106 15 27.9106C15.1894 27.9106 15.3711 27.9858 15.5051 28.1198C15.639 28.2537 15.7143 28.4354 15.7143 28.6249V30.047H18.5714V27.1963C18.5714 27.0068 18.6467 26.8252 18.7806 26.6912C18.9146 26.5573 19.0963 26.482 19.2857 26.482C19.4752 26.482 19.6568 26.5573 19.7908 26.6912C19.9247 26.8252 20 27.0068 20 27.1963V30.0477H22.8571V28.6249C22.8571 28.4354 22.9324 28.2537 23.0664 28.1198C23.2003 27.9858 23.382 27.9106 23.5714 27.9106C23.7609 27.9106 23.9426 27.9858 24.0765 28.1198C24.2105 28.2537 24.2857 28.4354 24.2857 28.6249V30.0491H27.1429V27.1963C27.1429 27.0068 27.2181 26.8252 27.3521 26.6912C27.486 26.5573 27.6677 26.482 27.8571 26.482C28.0466 26.482 28.2283 26.5573 28.3622 26.6912C28.4962 26.8252 28.5714 27.0068 28.5714 27.1963V30.0534H31.4286V28.5627C31.4279 28.3864 31.4625 28.2118 31.5302 28.049C31.5979 27.8863 31.6974 27.7387 31.8229 27.6149C32.1043 27.3541 32.4729 27.2077 32.8571 27.2056C33.1107 27.1941 33.3486 27.0791 33.5143 26.8863ZM30.7143 17.9106V13.3691C28.9593 15.5002 26.6248 17.0775 23.9929 17.9106H30.7143Z" fill="#333333"/>
</svg>
