<svg width="40" height="27" viewBox="0 0 40 27" fill="none" xmlns="http://www.w3.org/2000/svg">
<g clip-path="url(#clip0_227_5289)">
<path d="M3.46996 0.375H2.04748C1.26187 0.375 0.625 1.10953 0.625 2.01562V24.9844C0.625 25.8905 1.26187 26.625 2.04748 26.625H3.46996C4.25558 26.625 4.89245 25.8905 4.89245 24.9844V2.01562C4.89245 1.10953 4.25558 0.375 3.46996 0.375Z" fill="#333333"/>
<path d="M37.9529 0.375H36.5304C35.7448 0.375 35.1079 1.10953 35.1079 2.01562V24.9844C35.1079 25.8905 35.7448 26.625 36.5304 26.625H37.9529C38.7385 26.625 39.3754 25.8905 39.3754 24.9844V2.01562C39.3754 1.10953 38.7385 0.375 37.9529 0.375Z" fill="#333333"/>
<path d="M1.19727 3.25193L1.19727 5.87695L37.3615 5.87695V3.25193L1.19727 3.25193Z" fill="#333333"/>
<path d="M1.19727 7.72068L1.19727 10.3457L37.3615 10.3457V7.72068L1.19727 7.72068Z" fill="#333333"/>
<path d="M1.19873 12.1875L1.19873 14.8125L37.363 14.8125V12.1875L1.19873 12.1875Z" fill="#333333"/>
<path d="M1.19873 16.6562L1.19873 19.2812L37.363 19.2813V16.6562L1.19873 16.6562Z" fill="#333333"/>
<path d="M1.19873 21.123L1.19873 23.748L37.363 23.748V21.123L1.19873 21.123Z" fill="#333333"/>
</g>
<defs>
<clipPath id="clip0_227_5289">
<rect width="38.75" height="26.25" fill="white" transform="translate(0.625 0.375)"/>
</clipPath>
</defs>
</svg>
