<svg width="32" height="33" viewBox="0 0 32 33" fill="none" xmlns="http://www.w3.org/2000/svg">
<g clip-path="url(#clip0_227_5302)">
<path d="M27 2.5H25V1.5C25 0.94725 24.5527 0.5 24 0.5C23.4473 0.5 23 0.94725 23 1.5V2.5H19V1.5C19 0.94725 18.5527 0.5 18 0.5C17.4473 0.5 17 0.94725 17 1.5V2.5H13V1.5C13 0.94725 12.5527 0.5 12 0.5C11.4473 0.5 11 0.94725 11 1.5V2.5H7V1.5C7 0.94725 6.55275 0.5 6 0.5C5.44725 0.5 5 0.94725 5 1.5V2.5H3C1.34575 2.5 0 3.84575 0 5.5V29.5C0 30.0527 0.44725 30.5 1 30.5H17.5236C16.5632 29.0686 16 27.3494 16 25.5C16 20.5371 20.0371 16.5 25 16.5C26.8494 16.5 28.5686 17.0632 30 18.0236V5.5C30 3.84575 28.6542 2.5 27 2.5ZM7 26.5H5C4.44725 26.5 4 26.0527 4 25.5C4 24.9473 4.44725 24.5 5 24.5H7C7.55275 24.5 8 24.9473 8 25.5C8 26.0527 7.55275 26.5 7 26.5ZM7 22.5H5C4.44725 22.5 4 22.0527 4 21.5C4 20.9473 4.44725 20.5 5 20.5H7C7.55275 20.5 8 20.9473 8 21.5C8 22.0527 7.55275 22.5 7 22.5ZM7 18.5H5C4.44725 18.5 4 18.0527 4 17.5C4 16.9473 4.44725 16.5 5 16.5H7C7.55275 16.5 8 16.9473 8 17.5C8 18.0527 7.55275 18.5 7 18.5ZM7 14.5H5C4.44725 14.5 4 14.0527 4 13.5C4 12.9473 4.44725 12.5 5 12.5H7C7.55275 12.5 8 12.9473 8 13.5C8 14.0527 7.55275 14.5 7 14.5ZM13 26.5H11C10.4473 26.5 10 26.0527 10 25.5C10 24.9473 10.4473 24.5 11 24.5H13C13.5527 24.5 14 24.9473 14 25.5C14 26.0527 13.5527 26.5 13 26.5ZM13 22.5H11C10.4473 22.5 10 22.0527 10 21.5C10 20.9473 10.4473 20.5 11 20.5H13C13.5527 20.5 14 20.9473 14 21.5C14 22.0527 13.5527 22.5 13 22.5ZM13 18.5H11C10.4473 18.5 10 18.0527 10 17.5C10 16.9473 10.4473 16.5 11 16.5H13C13.5527 16.5 14 16.9473 14 17.5C14 18.0527 13.5527 18.5 13 18.5ZM13 14.5H11C10.4473 14.5 10 14.0527 10 13.5C10 12.9473 10.4473 12.5 11 12.5H13C13.5527 12.5 14 12.9473 14 13.5C14 14.0527 13.5527 14.5 13 14.5ZM19 18.5H17C16.4473 18.5 16 18.0527 16 17.5C16 16.9473 16.4473 16.5 17 16.5H19C19.5527 16.5 20 16.9473 20 17.5C20 18.0527 19.5527 18.5 19 18.5ZM19 14.5H17C16.4473 14.5 16 14.0527 16 13.5C16 12.9473 16.4473 12.5 17 12.5H19C19.5527 12.5 20 12.9473 20 13.5C20 14.0527 19.5527 14.5 19 14.5ZM25 14.5H23C22.4473 14.5 22 14.0527 22 13.5C22 12.9473 22.4473 12.5 23 12.5H25C25.5527 12.5 26 12.9473 26 13.5C26 14.0527 25.5527 14.5 25 14.5ZM28 8.5H2V5.5C2 4.94825 2.44825 4.5 3 4.5H5V5.5C5 6.05275 5.44725 6.5 6 6.5C6.55275 6.5 7 6.05275 7 5.5V4.5H11V5.5C11 6.05275 11.4473 6.5 12 6.5C12.5527 6.5 13 6.05275 13 5.5V4.5H17V5.5C17 6.05275 17.4473 6.5 18 6.5C18.5527 6.5 19 6.05275 19 5.5V4.5H23V5.5C23 6.05275 23.4473 6.5 24 6.5C24.5527 6.5 25 6.05275 25 5.5V4.5H27C27.5518 4.5 28 4.94825 28 5.5V8.5Z" fill="#333333"/>
<path d="M25 18.5C21.1406 18.5 18 21.6406 18 25.5C18 29.3594 21.1406 32.5 25 32.5C28.8594 32.5 32 29.3594 32 25.5C32 21.6406 28.8594 18.5 25 18.5ZM29 26.5H25C24.4472 26.5 24 26.0528 24 25.5V21.5C24 20.9472 24.4472 20.5 25 20.5C25.5528 20.5 26 20.9472 26 21.5V24.5H29C29.5527 24.5 30 24.9472 30 25.5C30 26.0528 29.5527 26.5 29 26.5Z" fill="#333333"/>
</g>
<defs>
<clipPath id="clip0_227_5302">
<rect width="32" height="32" fill="white" transform="translate(0 0.5)"/>
</clipPath>
</defs>
</svg>
