<svg width="40" height="41" viewBox="0 0 40 41" fill="none" xmlns="http://www.w3.org/2000/svg">
<path d="M18.377 32.4165C18.5459 32.0171 18.7904 31.6542 19.097 31.3476L31.8051 18.6395C32.4624 17.9821 33.5281 17.9821 34.1854 18.6395L36.5658 21.0199C37.2231 21.6771 37.2231 22.7429 36.5658 23.4001L23.8577 36.1083C23.5511 36.4149 23.1881 36.6594 22.7888 36.8283L17.0542 39.254C16.3581 39.5484 15.6568 38.8472 15.9513 38.151L18.377 32.4165Z" fill="#333333"/>
<path fill-rule="evenodd" clip-rule="evenodd" d="M18.2355 1.67578C18.8853 1.67578 19.412 2.2025 19.412 2.85225V8.7346C19.412 10.0341 20.4655 11.0875 21.7649 11.0875H27.6473C28.2971 11.0875 28.8238 11.6143 28.8238 12.264V19.9572L21.2228 27.5581H8.23552C7.91064 27.5581 7.64729 27.8215 7.64729 28.1464C7.64729 28.4713 7.91064 28.7346 8.23552 28.7346H20.0463L18.2654 30.5155C17.8516 30.9293 17.5217 31.4191 17.2938 31.958L16.1691 34.617H4.11788C3.46813 34.617 2.94141 34.0903 2.94141 33.4405V2.85225C2.94141 2.2025 3.46813 1.67578 4.11788 1.67578H18.2355ZM7.64729 14.0287C7.64729 13.7038 7.91064 13.4405 8.23552 13.4405H17.6473C17.9722 13.4405 18.2355 13.7038 18.2355 14.0287C18.2355 14.3536 17.9722 14.617 17.6473 14.617H8.23552C7.91064 14.617 7.64729 14.3536 7.64729 14.0287ZM7.64729 18.7346C7.64729 18.4097 7.91064 18.1464 8.23552 18.1464H23.5296C23.8545 18.1464 24.1179 18.4097 24.1179 18.7346C24.1179 19.0595 23.8545 19.3228 23.5296 19.3228H8.23552C7.91064 19.3228 7.64729 19.0595 7.64729 18.7346ZM8.23552 22.8523C7.91064 22.8523 7.64729 23.1156 7.64729 23.4405C7.64729 23.7654 7.91064 24.0287 8.23552 24.0287H23.5296C23.8545 24.0287 24.1179 23.7654 24.1179 23.4405C24.1179 23.1156 23.8545 22.8523 23.5296 22.8523H8.23552Z" fill="#333333"/>
<path d="M21.5926 2.68128C21.222 2.31071 20.5884 2.57317 20.5884 3.09722V8.73592C20.5884 9.38569 21.1151 9.9124 21.7648 9.9124H27.4036C27.9276 9.9124 28.1901 9.27881 27.8195 8.90822L21.5926 2.68128Z" fill="#333333"/>
</svg>
