<svg width="14" height="14" viewBox="0 0 14 14" fill="none" xmlns="http://www.w3.org/2000/svg">
<g opacity="0.8">
<path d="M7.00033 0C3.78558 0 1.16699 2.41771 1.16699 5.38466C1.16699 6.91013 1.98949 8.48407 3.05583 9.95624C4.12274 11.4289 5.45683 12.7983 6.58791 13.8423C6.6973 13.9433 6.84565 14 7.00033 14C7.155 14 7.30335 13.9433 7.41274 13.8423C8.56949 12.7746 9.90358 11.4047 10.9641 9.93739C12.0246 8.47061 12.8337 6.9069 12.8337 5.38466C12.8337 2.41771 10.2151 0 7.00033 0ZM7.00033 3.2308C8.28191 3.2308 9.33366 4.20165 9.33366 5.38466C9.33366 6.56767 8.28191 7.53852 7.00033 7.53852C5.71874 7.53852 4.66699 6.56767 4.66699 5.38466C4.66699 4.20165 5.71874 3.2308 7.00033 3.2308Z" fill="#333333"/>
</g>
</svg>
